SplineFontDB: 3.0
FontName: LinLibertineC
FullName: Linux Libertine Capitals
FamilyName: Linux Libertine C
Weight: Book
Copyright: LinLinux Libertine by Philipp H. Poll, Open Font under Terms of following Free Software Licenses:\nGPL (General Public License) and OFL (Open Font License).\nCreated with FontForge 1.0 (http://fontforge.sf.net) Sept 2003, 2004, 2005, 2006, 2007
UComments: "2003-8-29: Created.+AAoA-2004-7-25: v(1.0) release candidate+AAoA-2005-12-28: v(1.1.0) stable+AAoA-2006-01-01: v(2.0.0) stable+AAoA-2006-09-05: v(2.2.0) stable+AAoA-2006-12-04: v(2.3.0) stable+AAoA-2007-03-11: v(2.4.0) stable+AAoA" 
Version: 2.7.x
ItalicAngle: 0
UnderlinePosition: -200
UnderlineWidth: 80
Ascent: 1638
Descent: 410
LayerCount: 2
Layer: 0 0 "Back" 
Layer: 1 0 "Fore" 
NeedsXUIDChange: 1
XUID: [1021 993 1524925707 3543303]
FSType: 0
OS2Version: 0
OS2_WeightWidthSlopeOnly: 0
OS2_UseTypoMetrics: 0
CreationTime: 1156455862
ModificationTime: 1213882869
PfmFamily: 17
TTFWeight: 400
TTFWidth: 5
LineGap: 135
VLineGap: 0
OS2TypoAscent: 1501
OS2TypoAOffset: 0
OS2TypoDescent: -499
OS2TypoDOffset: 0
OS2TypoLinegap: 0
OS2WinAscent: 1830
OS2WinAOffset: 0
OS2WinDescent: 500
OS2WinDOffset: 0
HheadAscent: 1830
HheadAOffset: 0
HheadDescent: -485
HheadDOffset: 0
OS2FamilyClass: 261
OS2Vendor: 'PfEd'
Lookup: 258 0 0 "'kern' Horizontales Kerning 1"  {"'kern' Horizontales Kerning 1-1"  } ['kern' ('DFLT' <'dflt' > 'cyrl' <'dflt' > 'grek' <'dflt' > 'latn' <'dflt' > ) ]
Lookup: 260 0 0 "'mark' Mark Positioning lookup 0"  {"'mark' Mark Positioning lookup 0"  } ['mark' ('DFLT' <'dflt' > 'cyrl' <'dflt' > 'goth' <'dflt' > 'grek' <'dflt' > 'latn' <'dflt' > ) ]
Lookup: 260 0 0 "'mark' Mark Positioning lookup 1"  {"'mark' Mark Positioning lookup 1"  } ['mark' ('DFLT' <'dflt' > 'cyrl' <'dflt' > 'goth' <'dflt' > 'grek' <'dflt' > 'latn' <'dflt' > ) ]

StartChar: exclam
Encoding: 33 33 0
Width: 466
VWidth: 2047
Flags: HW
HStem: -25 218<153 309> 1327 20G<209 259.5>
VStem: 120 226<1025.1 1330.6> 122 218<6 162>
LayerCount: 2
Fore
SplineSet
232 1347 m 0
 287 1347 346 1300 346 1198 c 0
 346 1065 314 978 293 802 c 0
 267 582 264 459 261 431 c 0
 259 407 252 390 232 390 c 0
 208 390 204 404 203 416 c 0
 199 458 188 643 172 802 c 0
 152.643 983.957 120 1054.07 120 1198 c 0
 120 1309 186 1347 232 1347 c 0
122 84 m 0
 122 144 171 193 231 193 c 0
 291 193 340 144 340 84 c 0
 340 24 291 -25 231 -25 c 0
 171 -25 122 24 122 84 c 0
EndSplineSet
EndChar

StartChar: quotedbl
Encoding: 34 34 1
Width: 690
VWidth: 2047
Flags: HW
HStem: 873 446<182 230.274 182 233> 875 446<441 489.274 441 492>
LayerCount: 2
Fore
SplineSet
182 873 m 1
 182 873 128 1198 128 1217 c 0
 128 1261 171 1319 233 1319 c 0
 286 1319 304 1284 304 1251 c 0
 304 1219 237 880 237 880 c 1
 182 873 l 1
441 875 m 1
 441 875 387 1200 387 1219 c 0
 387 1263 430 1321 492 1321 c 0
 545 1321 563 1286 563 1253 c 0
 563 1221 496 882 496 882 c 1
 441 875 l 1
EndSplineSet
EndChar

StartChar: numbersign
Encoding: 35 35 2
Width: 899
VWidth: 999
Flags: HW
HStem: 374 100<64 233 317 527 610 781> 699 100<116 285 368 579 662 832>
LayerCount: 2
Fore
SplineSet
544 474 m 1
 579 699 l 1
 354 699 l 1
 317 474 l 1
 544 474 l 1
647 699 m 1
 610 474 l 1
 795 474 l 1
 781 374 l 1
 597 374 l 1
 540 26 l 1
 473 26 l 1
 527 374 l 1
 303 374 l 1
 246 26 l 1
 179 26 l 1
 233 374 l 1
 49 374 l 1
 64 474 l 1
 250 474 l 1
 285 699 l 1
 100 699 l 1
 116 799 l 1
 301 799 l 1
 356 1146 l 1
 425 1146 l 1
 368 799 l 1
 595 799 l 1
 649 1146 l 1
 717 1146 l 1
 662 799 l 1
 847 799 l 1
 832 699 l 1
 647 699 l 1
EndSplineSet
EndChar

StartChar: dollar
Encoding: 36 36 3
Width: 899
VWidth: 2047
Flags: HW
HStem: -25 21G<370 617.5> 19.5 22.5<185.5 436> 1110 61<294.7 590.1>
VStem: 92 131<739.7 1072.5> 403 70<-165 1284> 670 148<228.236 533>
LayerCount: 2
Fore
SplineSet
185.5 19.5 m 0
 154.5 19.5 158.839 -2 115.5 -2 c 1
 115.5 73 100.5 185 83 299 c 1
 138 305 l 1
 169.979 180.283 261.735 60.1936 403 43.8782 c 1
 403 540.886 l 1
 281.525 595.051 92 688.172 92 889 c 0
 92 1066.26 267.465 1155.8 403 1169.22 c 1
 403 1284 l 1
 473 1284 l 1
 473 1170.32 l 1
 558.481 1167.08 632.292 1153.37 684.07 1153.37 c 0
 693.857 1153.37 702.857 1153.86 711 1155 c 1
 715.675 1062.93 735.151 961.649 752 862 c 1
 699 854 l 1
 688 891 l 2
 648.121 1025.14 586.106 1096.82 473 1108.34 c 1
 473 670.669 l 1
 589.505 625.943 818 527.292 818 319 c 0
 818 252.424 800.312 -5.93118 473 -24.0025 c 1
 473 -165 l 1
 403 -165 l 1
 403 -24.0564 l 1
 291.482 -17.6256 226.603 19.5 185.5 19.5 c 0
473 513.457 m 1
 473 44.8615 l 1
 554.457 56.8898 670 109.873 670 260 c 0
 670 424.345 556.083 481.51 473 513.457 c 1
403 699.463 m 1
 403 1107.24 l 1
 306.332 1092.3 223 1017.27 223 897 c 0
 223 801.114 323.469 736.476 403 699.463 c 1
EndSplineSet
EndChar

StartChar: percent
Encoding: 37 37 4
Width: 1305
VWidth: 2047
Flags: HW
HStem: -38 59<927.9 1124.2> 447 64<941 1110.49> 608 59<269.9 463.6> 978 76<654.569 841.547> 1092 65<282.3 459.1>
VStem: 120 105<694.5 956.7> 504 63<814.6 1036.62> 779 105<46.6 310.4> 1163 62<175.1 461.1>
LayerCount: 2
Fore
SplineSet
884 157 m 0
 884 51 939 21 976 21 c 0
 1090 21 1163 209 1163 322 c 0
 1163 429 1100 447 1071 447 c 0
 971 447 884 275 884 157 c 0
779 187 m 0
 779 341 898 511 1049 511 c 0
 1131 511 1225 474 1225 325 c 0
 1225 187 1134 -38 964 -38 c 0
 839 -38 779 79 779 187 c 0
745 1054 m 0
 831 1054 968 1076 1052 1165 c 1
 1130.96 1151 l 1
 285 -29 l 1
 207.899 -9.66667 l 1
 946 1017 l 1
 867 986 786 978 726 978 c 0
 677 978 600 999 561 1022 c 1
 565 1006 567 988 567 970 c 0
 567 838 478 608 306 608 c 0
 178 608 120 726 120 831 c 0
 120 988 241 1157 390 1157 c 0
 447 1157 505 1130 526 1106 c 1
 636 1054 709 1054 745 1054 c 0
225 802 m 0
 225 696 281 667 318 667 c 0
 430 667 504 850 504 968 c 0
 504 1070 448 1092 411 1092 c 0
 312 1092 225 921 225 802 c 0
EndSplineSet
EndChar

StartChar: parenleft
Encoding: 40 40 5
Width: 606
VWidth: 2047
Flags: HW
VStem: 90 159<372.68 1013>
LayerCount: 2
Fore
SplineSet
90 516 m 0
 90 898.309 281.287 1239.69 525 1448 c 1
 561 1412 l 1
 495.516 1338.33 249 1053.6 249 516 c 0
 249 -23.4 492.502 -306.416 561 -383 c 1
 525 -417 l 1
 98.5522 -48.8437 90 423.297 90 516 c 0
EndSplineSet
EndChar

StartChar: parenright
Encoding: 41 41 6
Width: 606
VWidth: 2047
Flags: HW
VStem: 357 159<19 659.32>
LayerCount: 2
Fore
SplineSet
516 516 m 0
 516 133.691 324.713 -207.689 81 -416 c 1
 45 -380 l 1
 110.484 -306.33 357 -21.5996 357 516 c 0
 357 1055.4 113.498 1338.42 45 1415 c 1
 81 1449 l 1
 507.448 1080.84 516 608.703 516 516 c 0
EndSplineSet
EndChar

StartChar: asterisk
Encoding: 42 42 7
Width: 887
VWidth: 2047
Flags: HW
HStem: 1169 138<190.3 312 566.3 675>
VStem: 370 130<1327.5 1447.2>
LayerCount: 2
Fore
SplineSet
406 1162 m 1
 379 1167 350 1169 319 1169 c 0
 220 1169 153 1183 153 1246 c 0
 153 1274 173 1307 221 1307 c 0
 291 1307 327 1240 418 1202 c 1
 410 1283 370 1337 370 1390 c 0
 370 1434 396 1470 433 1470 c 0
 469 1470 500 1448 500 1399 c 0
 500 1344 465 1262 460 1201 c 1
 554 1241 587 1306 656 1306 c 0
 710 1306 724 1266 724 1245 c 0
 724 1183 654 1170 584 1170 c 0
 544 1170 508 1167 472 1161 c 1
 541 1086 642 1065 642 984 c 0
 642 947 611 923 582 923 c 0
 502 923 487 1056 437 1137 c 1
 385 1045 370 923 293 923 c 0
 259 923 233 951 233 982 c 0
 233 1070 337 1085 406 1162 c 1
EndSplineSet
EndChar

StartChar: plus
Encoding: 43 43 8
Width: 1080
VWidth: 2047
Flags: HW
HStem: 424 101<135 490 591 945> 861 20G<490 591>
VStem: 490 101<70 424 525 881>
LayerCount: 2
Fore
SplineSet
591 525 m 1
 945 525 l 1
 945 424 l 1
 591 424 l 1
 591 70 l 1
 490 70 l 1
 490 424 l 1
 135 424 l 1
 135 525 l 1
 490 525 l 1
 490 881 l 1
 591 881 l 1
 591 525 l 1
EndSplineSet
EndChar

StartChar: slash
Encoding: 47 47 9
Width: 598
VWidth: 2047
Flags: HW
VStem: 8 570<-44 1396>
LayerCount: 2
Fore
SplineSet
578 1396 m 1
 93 -44 l 1
 8 -44 l 1
 493 1396 l 1
 578 1396 l 1
EndSplineSet
EndChar

StartChar: one
Encoding: 49 49 10
Width: 899
VWidth: 2047
Flags: HW
HStem: -2 61<230 430 566.6 775.467> 1164 20G<538 577>
VStem: 430 147<73.6103 943.75>
LayerCount: 2
Fore
SplineSet
384 977 m 0
 346 977 255 941 211 919 c 1
 187 984 l 1
 366 1066 436 1111 538 1184 c 1
 577 1184 l 1
 577 154 l 2
 577 80 587 59 655 59 c 2
 762 59 l 2
 769 59 779 55 779 42 c 2
 779 -2 l 1
 498 2 l 1
 214 -2 l 1
 214 43 l 1
 215 50 217 59 230 59 c 2
 352 59 l 2
 430 59 430 94 430 154 c 2
 430 858 l 2
 430 928 430 977 384 977 c 0
EndSplineSet
EndChar

StartChar: two
Encoding: 50 50 11
Width: 899
VWidth: 999
Flags: HW
HStem: 0 118<257 674.308> 1120 64<249.174 525.546>
VStem: 116 141<118 148.2 975.065 1059.44> 631 157<717.5 1121.81>
LayerCount: 2
Fore
SplineSet
118 908 m 0
 118 1024.49 232.163 1184 447 1184 c 0
 605.138 1184 788 1124.8 788 888 c 0
 788 734 707.918 656.085 598 549 c 2
 404 360 l 2
 393.533 349.803 257 214.8 257 118 c 1
 604 118 l 2
 674.308 118 710.308 153.692 739 266 c 1
 791 258 l 1
 750 0 l 1
 116 0 l 1
 116 114 134.68 202.393 325 398 c 2
 469 546 l 2
 583 664 631 755 631 880 c 0
 631 1066.01 504.42 1120 434 1120 c 0
 291.826 1120 254 1046.2 254 997 c 0
 254 980.127 258.101 964.719 262.788 949.75 c 0
 267.25 935.5 271 921.15 271 906 c 0
 271 852 229 832 196 832 c 0
 152 832 118 866 118 908 c 0
EndSplineSet
EndChar

StartChar: three
Encoding: 51 51 12
Width: 899
VWidth: 999
Flags: HMW
HStem: -25 63<267.6 482.1> 1121 63<376.7 550.9>
VStem: 609 132<909.7 1083.9> 655 151<39.5076 649.435>
LayerCount: 2
Fore
SplineSet
443 1121 m 0
 392 1121 241 1092 241 967 c 0
 241 929 227 867 172 867 c 0
 119 867 115 926 115 931 c 0
 115 996 198 1184 483 1184 c 0
 681 1184 741 1059 741 976 c 0
 741 925 725 824 540 707 c 1
 656 689 806 604.48 806 392 c 0
 806 120.852 601.954 -25 370 -25 c 0
 254 -25 91 27 91 105 c 0
 91 135 121 171 162 171 c 0
 200 171 218.789 149.558 237 123 c 0
 261 88 297 38 395 38 c 0
 462 38 655 106 655 364 c 0
 655 583.565 501 618 392 618 c 0
 372 618 351 615 328 610 c 1
 319 671 l 1
 477 698 609 851 609 947 c 0
 609 1063 526 1121 443 1121 c 0
EndSplineSet
EndChar

StartChar: four
Encoding: 52 52 13
Width: 899
VWidth: 999
Flags: HW
HStem: -2 59<390.392 526.419 670.07 802.662 802.662 803.112> 314 95<204 529 667 821>
VStem: 529 138<59.3448 314 409 756.436>
LayerCount: 2
Fore
SplineSet
529 727 m 2
 529 741 531 757 548 768 c 0
 572 784 608 802 638 802 c 0
 666 802 667 780 667 739 c 2
 667 409 l 1
 833 409 l 1
 821 314 l 1
 667 314 l 1
 667 144 l 2
 667 85 676 57 736 57 c 2
 790 57 l 2
 802 57 805 48 805 42 c 2
 805 -2 l 1
 805 -2 672.645 2 588 2 c 0
 510.374 2 389 -2 389 -2 c 1
 389 43 l 2
 389 48 391 57 403 57 c 2
 459 57 l 2
 523 57 529 83 529 143 c 2
 529 314 l 1
 126 314 l 2
 118 314 115 317 109 325 c 2
 92 348 l 1
 67 391 l 2
 66 392 66 394 66 396 c 0
 66 398 67 400 69 402 c 0
 202 548 438 1006 512 1173 c 0
 515 1181 519 1184 527 1184 c 0
 529 1184 573 1165 597 1162 c 1
 505 914 355 648 204 409 c 1
 529 409 l 1
 529 727 l 2
EndSplineSet
EndChar

StartChar: five
Encoding: 53 53 14
Width: 899
VWidth: 999
Flags: HMW
HStem: -25 70<295.121 521.673> 662 96<295.594 521.61> 1051 123<284 416.592 424.771 513.779 520.782 721>
VStem: 633 148<185.088 537.534>
DStem2: 145 615 245.568 728 0.117254 0.993102<124.012 449.291>
LayerCount: 2
Fore
SplineSet
633 346 m 0
 633 558.5 519 662 392 662 c 0
 297 662 225 648 145 615 c 1
 211 1174 l 1
 277.783 1167.78 347.613 1164.6 419.982 1164.6 c 0
 522.078 1164.6 629.226 1170.93 740 1184 c 1
 752 1178 l 1
 721 1044 l 1
 640.855 1037.18 575.154 1034.4 518.101 1034.4 c 0
 425.552 1034.4 355.762 1041.72 284 1051 c 1
 245.568 728 l 1
 288.568 744 363 758 442 758 c 0
 660 758 781 570 781 380 c 0
 781 152.5 621 -25 390 -25 c 0
 273 -25 103 40 103 121 c 0
 103 160 136 186 173 186 c 0
 214 186 239 156 265 123 c 0
 294.094 86.0735 328 45 393 45 c 0
 525 45 633 168.5 633 346 c 0
EndSplineSet
EndChar

StartChar: six
Encoding: 54 54 15
Width: 899
VWidth: 999
Flags: HW
HStem: -25 60<369.268 598.962> 628 67<319.129 575.267> 1131 53<549.696 769>
VStem: 94 141<212.069 536> 686 138<156.55 507.305>
LayerCount: 2
Fore
SplineSet
237 536 m 1
 236 516 235 485 235 464 c 0
 235 120 389 35 492 35 c 0
 586 35 686 122 686 335 c 0
 686 433 637 628 441 628 c 0
 398 628 320 624 237 536 c 1
775 1131 m 1
 640.517 1117.82 527.186 1084.46 427.719 987 c 0
 334.076 895.248 266.932 757.98 243 594 c 1
 290 651 404 695 481 695 c 0
 784 695 824 444 824 351 c 0
 824 210 754 -25 472 -25 c 0
 321 -25 94 64 94 471 c 0
 94 659.724 158.405 842.966 297.987 985 c 0
 430.146 1119.48 567.954 1172.8 769 1184 c 1
 775 1131 l 1
EndSplineSet
EndChar

StartChar: seven
Encoding: 55 55 16
Width: 899
VWidth: 999
Flags: HMW
HStem: -25 21G<237.693 376> 1041 121<197.735 249 249 672.137>
LayerCount: 2
Fore
SplineSet
307 1041 m 2
 217 1041 187 1004 148 900 c 1
 95 907 l 1
 119.44 991.282 139.259 1070.13 144.666 1183.5 c 1
 188.5 1183.5 l 1
 196 1171.5 202 1162 249 1162 c 2
 640 1162 l 2
 713.026 1162 756.5 1163.5 789 1173 c 1
 820 1159.5 l 1
 602.394 629.965 488.388 312.203 376 -18 c 1
 244 -25 l 1
 237.693 -12 l 1
 367.5 282 525 663 675 1041 c 1
 307 1041 l 2
EndSplineSet
EndChar

StartChar: eight
Encoding: 56 56 17
Width: 899
VWidth: 999
Flags: HMW
HStem: -25 57<313.582 586.963> 588 116 1134 50<328.378 578.37>
VStem: 91 119<136.46 422.528> 132 130<832.85 1054.09> 648 119<831.214 1064.03> 682 128<154.768 408.743>
DStem2: 410 742 310 653 0.842271 -0.539054<-184.329 3.70599 154.54 400.42>
LayerCount: 2
Fore
SplineSet
454 1134 m 0
 337 1134 262 1042 262 952 c 0
 262 893 286.19 821.742 410 742 c 2
 469 704 l 1
 522 743 648 837 648 942 c 0
 648 1032 581 1134 454 1134 c 0
767 940 m 0
 767 816 626 717 541 660 c 1
 660 582 l 2
 759.75 516.618 810 425 810 314 c 0
 810 165 690 -25 437 -25 c 0
 232 -25 91 83 91 282 c 0
 91 359 123 447 202 517 c 0
 252 560 295 596 344 632 c 1
 310 653 l 2
 190.776 726.638 132 806 132 916 c 0
 132 1065 267 1184 465 1184 c 0
 655 1184 767 1079 767 940 c 0
441 32 m 0
 529 32 682 80 682 274 c 0
 682 366 625.481 458.151 503 533 c 2
 413 588 l 1
 248 477 210 340 210 282 c 0
 210 109 352 32 441 32 c 0
EndSplineSet
EndChar

StartChar: nine
Encoding: 57 57 18
Width: 899
VWidth: 999
Flags: HW
HStem: -25 53<121 340.304> 464 67<314.733 570.87> 1124 60<291.038 520.732>
VStem: 66 138<651.695 1002.45> 655 141<623 946.931>
LayerCount: 2
Fore
SplineSet
653 623 m 1
 654 643 655 674 655 695 c 0
 655 1039 501 1124 398 1124 c 0
 304 1124 204 1037 204 824 c 0
 204 726 253 531 449 531 c 0
 492 531 570 535 653 623 c 1
115 28 m 1
 249.483 41.1797 362.814 74.5404 462.281 172 c 0
 555.924 263.752 623.068 401.02 647 565 c 1
 600 508 486 464 409 464 c 0
 106 464 66 715 66 808 c 0
 66 949 136 1184 418 1184 c 0
 569 1184 796 1095 796 688 c 0
 796 499.276 731.595 316.034 592.013 174 c 0
 459.855 39.5204 322.046 -13.7998 121 -25 c 1
 115 28 l 1
EndSplineSet
EndChar

StartChar: colon
Encoding: 58 58 19
Width: 450
VWidth: 2047
Flags: HW
HStem: 76 218<163 319> 614 218<163 319>
VStem: 132 218<107 263 645 801>
LayerCount: 2
Fore
SplineSet
132 185 m 0
 132 245 181 294 241 294 c 0
 301 294 350 245 350 185 c 0
 350 125 301 76 241 76 c 0
 181 76 132 125 132 185 c 0
132 723 m 0
 132 783 181 832 241 832 c 0
 301 832 350 783 350 723 c 0
 350 663 301 614 241 614 c 0
 181 614 132 663 132 723 c 0
EndSplineSet
EndChar

StartChar: less
Encoding: 60 60 20
Width: 999
VWidth: 2047
Flags: HW
HStem: 150 678<899 899>
VStem: 100 799<252 441>
LayerCount: 2
Fore
SplineSet
250 489 m 1
 899 252 l 1
 899 150 l 1
 100 441 l 1
 100 538 l 1
 899 828 l 1
 899 726 l 1
 250 489 l 1
EndSplineSet
EndChar

StartChar: equal
Encoding: 61 61 21
Width: 1080
VWidth: 2047
Flags: HW
HStem: 294 101<135 945> 551 101<135 945>
LayerCount: 2
Fore
SplineSet
945 652 m 1
 945 551 l 1
 135 551 l 1
 135 652 l 1
 945 652 l 1
945 395 m 1
 945 294 l 1
 135 294 l 1
 135 395 l 1
 945 395 l 1
EndSplineSet
EndChar

StartChar: greater
Encoding: 62 62 22
Width: 999
VWidth: 2047
Flags: HW
HStem: 145 678<100 100>
VStem: 100 799<532 721>
LayerCount: 2
Fore
SplineSet
749 484 m 1
 100 721 l 1
 100 823 l 1
 899 532 l 1
 899 435 l 1
 100 145 l 1
 100 247 l 1
 749 484 l 1
EndSplineSet
EndChar

StartChar: question
Encoding: 63 63 23
Width: 831
VWidth: 999
Flags: HMW
HStem: -25 218<291 447> 1289 60<241.424 509.413>
VStem: 60 138<1066.48 1210.11> 260 218<6 162> 603 152<890.146 1187.43>
LayerCount: 2
Fore
SplineSet
198 1171 m 0
 198 1141 203 1129 211 1118 c 0
 219 1107 224 1096 224 1069 c 0
 224 1022 183 997 143 997 c 0
 111 997 60 1013 60 1085 c 0
 60 1164 102.245 1219.7 163 1270 c 0
 224.247 1320.7 309 1349 417 1349 c 0
 626 1349 755 1226 755 1041 c 0
 755 879 635 789 539 719 c 0
 491 684 450 651 432 617 c 0
 405 566 395 516 395 467 c 2
 395 377 l 2
 395 363 384 356 368 356 c 0
 353 356 343 363 343 377 c 2
 343 471 l 2
 343 559 346.321 679.648 479 801 c 0
 561 876 603 936 603 1033 c 0
 603 1165 515 1289 397 1289 c 0
 280 1289 198 1232 198 1171 c 0
260 84 m 0
 260 144 309 193 369 193 c 0
 429 193 478 144 478 84 c 0
 478 24 429 -25 369 -25 c 0
 309 -25 260 24 260 84 c 0
EndSplineSet
EndChar

StartChar: at
Encoding: 64 64 24
Width: 2057
VWidth: 2047
Flags: HW
HStem: -464 79<339.2 1360.5> -11 79<1284 1696.1> -6 86<782.7 990.2> 842 63<1087.56 1279.3> 1329 73<597.2 1465.6>
VStem: 120 171<117.4 1141.7> 625 165<161.5 500.4> 1786 156<227.8 1171.6>
LayerCount: 2
Fore
SplineSet
1327 686 m 0
 1327 775 1266 842 1181 842 c 0
 1139 842 1038 841 951 745 c 0
 834 619 790 456 790 308 c 0
 790 193 828 80 979 80 c 0
 1044 80 1192 212 1255 375 c 0
 1284 452 1327 627 1327 686 c 0
1349 96 m 0
 1349 73 1370 68 1375 68 c 0
 1622 68 1786 158 1786 592 c 0
 1786 1130 1375 1329 1073 1329 c 0
 707 1329 291 1068 291 497 c 0
 291 205 451 -385 1094 -385 c 0
 1299 -385 1449 -327 1579 -225 c 1
 1611 -269 l 1
 1466 -378 1321 -464 1049 -464 c 0
 503 -464 120 -47 120 467 c 0
 120 986 514 1402 1074 1402 c 0
 1591 1402 1942 1036 1942 584 c 0
 1942 310 1807 -11 1284 -11 c 0
 1214 -11 1197 43 1197 82 c 0
 1197 120 1207 171 1227 235 c 1
 1086 30 971 -6 907 -6 c 0
 667 -6 625 190 625 285 c 0
 625 631 919 905 1174 905 c 0
 1255 905 1336 864 1360 802 c 1
 1372 860 l 1
 1487 890 l 1
 1524 878 l 1
 1381 256 l 2
 1366.05 190.988 1349 116 1349 96 c 0
EndSplineSet
EndChar

StartChar: A
Encoding: 65 65 25
Width: 1424
VWidth: 2047
Flags: HW
HStem: -2 59<9 9.09515 9.09515 156.504 278.619 444.853 444.853 445 898 898.145 898.145 1061.5 1259.92 1405.89 1405.89 1406> 500 80<485.064 896> 1327 20G<718.5 747>
DStem2: 195 166 287 147 0.392235 0.919865<-19.4003 402.061 509.52 1078.8> 799 1287 694 1126 0.353155 -0.935565<113.545 695.7 780.787 1191.15>
AnchorPoint: "unten_punkt" 630 -222 basechar 0
AnchorPoint: "unten_anhang" 238 10 basechar 0
AnchorPoint: "top_akzent" 737 1635 basechar 0
AnchorPoint: "top_punkt" 738 1434 basechar 0
LayerCount: 2
Fore
SplineSet
531 580 m 2
 896 580 l 1
 694 1126 l 1
 482 616 l 2
 479 609 478 604 478 599 c 0
 478 586 492 580 531 580 c 2
287 147 m 2
 281 133 278 120 278 109 c 0
 278 75 312 57 373 57 c 2
 432 57 l 2
 441 57 449 51 449 40 c 2
 449 2 l 1
 445 -2 l 1
 445 -2 242 2 192 2 c 0
 140 2 9 -2 9 -2 c 1
 5 2 l 1
 5 40 l 2
 5 51 11 57 21 57 c 2
 45 57 l 2
 129 57 165 97 195 166 c 2
 673 1287 l 2
 692 1333 708 1347 729 1347 c 0
 765 1347 783 1328 799 1287 c 2
 1218 177 l 2
 1248.17 97.0653 1289 57 1370 57 c 2
 1393 57 l 2
 1402 57 1413 51 1413 40 c 2
 1413 2 l 1
 1406 -2 l 1
 1406 -2 1250 2 1170 2 c 0
 1097 2 898 -2 898 -2 c 1
 894 2 l 1
 894 40 l 2
 894 51 900 57 910 57 c 2
 967 57 l 2
 1031 57 1063 79 1063 113 c 0
 1063 123 1061 135 1056 147 c 2
 925 500 l 1
 494 500 l 2
 444 500 429 488 419 464 c 2
 287 147 l 2
EndSplineSet
EndChar

StartChar: B
Encoding: 66 66 26
Width: 1214
VWidth: 2047
Flags: HW
HStem: -2 59<38 210.378 389.539 760.824> 693 70<382 734.641> 1265 59<38 211.749 389.207 726.685>
VStem: 217 165<77 693 763 1243.72> 849 158<867.241 1155.85> 946 183<218.487 539.783>
AnchorPoint: "unten_punkt" 549 -222 basechar 0
AnchorPoint: "unten_anhang" 523 1 basechar 0
AnchorPoint: "top_punkt" 577 1434 basechar 0
AnchorPoint: "top_akzent" 576 1635 basechar 0
LayerCount: 2
Fore
SplineSet
382 1178 m 2
 382 763 l 1
 544 763 l 2
 714 763 849 832 849 1005 c 0
 849 1215 686 1252 571 1252 c 0
 394 1252 382 1245 382 1178 c 2
382 693 m 1
 382 148 l 2
 382 80 397 67 564 67 c 0
 875 67 946 253 946 379 c 0
 946 563 816 693 575 693 c 2
 382 693 l 1
35 41 m 2
 35 51 38 57 50 57 c 2
 111 57 l 2
 192 57 217 79 217 151 c 2
 217 1176 l 2
 217 1245 196 1265 111 1265 c 2
 50 1265 l 2
 39 1265 35 1271 35 1279 c 2
 35 1320.25 l 1
 38 1324 l 1
 298 1320 l 1
 298 1320 485 1324 557 1324 c 0
 938 1324 1007 1147 1007 1009 c 0
 1007 896 922 787 817 735 c 1
 1034 686 1129 546 1129 356 c 0
 1129 181 1010 -2 602 -2 c 0
 455 -2 298 2 298 2 c 1
 38 -2 l 1
 35 1.75 l 1
 35 41 l 2
EndSplineSet
EndChar

StartChar: C
Encoding: 67 67 27
Width: 1319
VWidth: 2047
Flags: HW
HStem: -25 85<539.142 950.601> 1272 75<552.926 927.464>
VStem: 75 178<418.126 892.619>
AnchorPoint: "unten_punkt" 743 -226 basechar 0
AnchorPoint: "unten_anhang" 729 -18 basechar 0
AnchorPoint: "top_punkt" 738 1434 basechar 0
AnchorPoint: "top_akzent" 737 1635 basechar 0
LayerCount: 2
Fore
SplineSet
728 -25 m 0
 286 -25 75 316 75 645 c 0
 75 1048 390 1347 729 1347 c 0
 980 1347 1060 1262 1178 1255 c 1
 1184 1143 1203 1044 1223 939 c 1
 1161 929 l 1
 1108 1105 990 1272 706 1272 c 0
 544 1272 253 1100 253 684 c 0
 253 385 408 60 726 60 c 0
 916 60 1054 128 1200 286 c 1
 1247 256 l 1
 1108 74 925 -25 728 -25 c 0
EndSplineSet
EndChar

StartChar: D
Encoding: 68 68 28
Width: 1428
VWidth: 2047
Flags: HW
HStem: -2 59<38 50 50 211.976 422.871 882.828> 1265 59<38 53 53 213.647 421.452 791.782>
VStem: 217 165<80.7039 1239.96> 1152 188<367.398 857.642>
AnchorPoint: "unten_punkt" 572 -219 basechar 0
AnchorPoint: "unten_anhang" 572 9 basechar 0
AnchorPoint: "top_punkt" 627 1434 basechar 0
AnchorPoint: "top_akzent" 626 1635 basechar 0
LayerCount: 2
Fore
SplineSet
35 39 m 2
 35 49 40 57 50 57 c 2
 111 57 l 2
 188 57 217 85 217 151 c 2
 217 1171 l 2
 217 1245 197 1265 111 1265 c 2
 53 1265 l 2
 42 1265 35 1272 35 1283 c 2
 35 1319.83 l 1
 38 1324 l 1
 296 1320 l 1
 296 1320 563 1324 632 1324 c 0
 1027 1324 1340 1011 1340 631 c 0
 1340 128 959 -2 669 -2 c 0
 459 -2 296 2 296 2 c 1
 38 -2 l 1
 35 2 l 1
 35 39 l 2
382 147 m 2
 382 81 406 67 607 67 c 0
 895 67 1152 168 1152 581 c 0
 1152 897 997 1255 556 1255 c 0
 454 1255 382 1248 382 1175 c 2
 382 147 l 2
EndSplineSet
EndChar

StartChar: E
Encoding: 69 69 29
Width: 1167
VWidth: 2047
Flags: HW
HStem: -2 59<28 199.931> 0 80<375.074 920.566> 669 70<373 740.095> 888 20G<781 832.5> 1242 80<375.211 857.022> 1265 59<29 200.021>
VStem: 208 165<83.591 669 739 1238.57> 768 69<508 579 830 904.994>
AnchorPoint: "unten_anhang" 572 9 basechar 0
AnchorPoint: "unten_punkt" 572 -219 basechar 0
AnchorPoint: "top_punkt" 574 1434 basechar 0
AnchorPoint: "top_akzent" 580 1648 basechar 0
LayerCount: 2
Fore
SplineSet
723 1242 m 2
 447 1242 l 2
 398 1242 373 1224 373 1175 c 2
 373 739 l 1
 653 739 l 2
 725 739 742.922 773.018 756 830 c 2
 770 891 l 2
 771 900 777 908 785 908 c 2
 830 908 l 2
 835 908 837 904 837 899 c 0
 830 848 821 773 821 704 c 0
 821 634 832 543 837 508 c 1
 832 501 l 1
 785 501 l 2
 774 501 769 509 768 516 c 2
 756 579 l 2
 744.77 637.957 722 669 653 669 c 2
 373 669 l 1
 373 147 l 2
 373 93 402 80 447 80 c 2
 786 80 l 2
 942 80 1002 200 1043 348 c 1
 1105 338 l 1
 1082 232 1060 114 1051 0 c 1
 449 0 l 1
 290 2 l 1
 28 -2 l 1
 25 2 l 1
 25 43 l 2
 25 50 28 57 41 57 c 2
 102 57 l 2
 184 57 208 90 208 147 c 2
 208 1173 l 2
 208 1237 180 1265 102 1265 c 2
 41 1265 l 2
 27 1265 25 1274 25 1279 c 2
 25 1320 l 1
 29 1324 l 1
 291 1320 l 1
 450 1322 l 1
 975 1324 l 1
 984 1215 1002 1090 1018 1006 c 1
 958 996 l 1
 913 1137 877 1242 723 1242 c 2
EndSplineSet
EndChar

StartChar: F
Encoding: 70 70 30
Width: 998
VWidth: 2047
Flags: HW
HStem: -2 59<30 194.943 381.694 552> 669 70<373 738.095> 888 20G<779 830.5> 1242 82<375.211 836.993> 1265 59<32 201.88>
VStem: 208 165<68.8652 669 739 1238.87> 766 69<508 553.632 859.768 904.994>
AnchorPoint: "unten_anhang" 297 0 basechar 0
AnchorPoint: "unten_punkt" 412 -228 basechar 0
AnchorPoint: "top_punkt" 588 1434 basechar 0
AnchorPoint: "top_akzent" 586 1635 basechar 0
LayerCount: 2
Fore
SplineSet
373 1175 m 2
 373 739 l 1
 651 739 l 2
 723 739 740.922 773.018 754 830 c 2
 768 891 l 2
 769 900 775 908 783 908 c 2
 828 908 l 2
 833 908 835 904 835 899 c 1
 828 852 819 773 819 704 c 0
 819 634 826 572 835 508 c 1
 830 501 l 1
 783 501 l 2
 772 501 767 509 766 516 c 2
 754 579 l 2
 742.77 637.957 720 669 651 669 c 2
 373 669 l 1
 373 147 l 2
 373 84 404 57 485 57 c 2
 539 57 l 2
 548 57 556 51 556 40 c 2
 556 2 l 1
 552 -2 l 1
 294 2 l 2
 221 2 30 -2 30 -2 c 1
 26 2 l 1
 26 40 l 2
 26 51 32 57 42 57 c 2
 96 57 l 2
 180 57 208 90 208 147 c 2
 208 1175 l 2
 208 1234 190 1265 102 1265 c 2
 41 1265 l 2
 27 1265 25 1275 25 1280 c 2
 25 1320 l 1
 32 1324 l 1
 288 1320 l 1
 441 1322 l 1
 955 1324 l 1
 964 1215 982 1090 998 1006 c 1
 938 996 l 1
 893 1137 857 1242 703 1242 c 2
 447 1242 l 2
 398 1242 373 1224 373 1175 c 2
EndSplineSet
EndChar

StartChar: G
Encoding: 71 71 31
Width: 1420
VWidth: 2047
Flags: HW
HStem: -25 75<597.937 1018.34> 555 74<927 1095.06 1277.81 1376> 1272 75<550.557 965.743>
VStem: 65 178<440.982 883.546> 1106 165<199.651 544.121>
AnchorPoint: "unten_anhang" 748 0 basechar 0
AnchorPoint: "unten_punkt" 748 -228 basechar 0
AnchorPoint: "top_punkt" 744 1434 basechar 0
AnchorPoint: "top_akzent" 743 1635 basechar 0
LayerCount: 2
Fore
SplineSet
767 1347 m 0
 1018 1347 1092 1256 1214 1255 c 1
 1228 1108 1242 1026 1259 940 c 1
 1198 928 l 1
 1144 1103 1037 1272 739 1272 c 0
 463 1272 243 1028 243 669 c 0
 243 399 441 50 804 50 c 0
 916 50 1036 85 1106 151 c 1
 1106 465 l 2
 1106 528 1075 555 994 555 c 2
 940 555 l 2
 931 555 923 561 923 572 c 2
 923 625 l 1
 927 629 l 1
 927 629 1105 625 1185 625 c 0
 1258 625 1376 629 1376 629 c 1
 1380 625 l 1
 1380 572 l 2
 1380 561 1374 555 1364 555 c 2
 1362 555 l 2
 1291 555 1271 522 1271 465 c 2
 1271 228 l 2
 1271 204 1283 188 1304 169 c 1
 1165 52 1000 -25 758 -25 c 0
 346 -25 65 274 65 629 c 0
 65 1080 416 1347 767 1347 c 0
EndSplineSet
EndChar

StartChar: grave
Encoding: 96 96 32
Width: 803
VWidth: 2047
Flags: HW
HStem: 1102 333<335 491>
VStem: 197 324<1124 1365>
LayerCount: 2
Fore
SplineSet
365 1430 m 1
 508 1173 l 2
 519 1153 521 1139 521 1124 c 0
 521 1114 507 1102 491 1102 c 0
 478 1102 464 1112 432 1142 c 2
 197 1365 l 1
 202 1387 l 1
 218 1400 265 1435 335 1435 c 0
 345 1435 358 1433 365 1430 c 1
EndSplineSet
EndChar

StartChar: ograve
Encoding: 242 242 33
Width: 1132
VWidth: 1463
Flags: HW
HStem: -25 65<421.463 743.549> 905 65<404.993 703.27>
VStem: 75 165<244.853 676.833> 892 165<258.068 681.873>
LayerCount: 2
Fore
SplineSet
543 1367.92 m 1
 686 1110.92 l 2
 697 1090.92 699 1076.92 699 1061.92 c 0
 699 1051.92 685 1039.92 669 1039.92 c 0
 656 1039.92 642 1049.92 610 1079.92 c 2
 375 1302.92 l 1
 380 1324.92 l 1
 396 1337.92 443 1372.92 513 1372.92 c 0
 523 1372.92 536 1370.92 543 1367.92 c 1
539 905 m 0
 386 905 240 786 240 479 c 0
 240 197 382 40 592 40 c 0
 776 40 892 192 892 453 c 0
 892 758 741 905 539 905 c 0
1057 482 m 0
 1057 189 866 -25 561 -25 c 0
 286 -25 75 166 75 454 c 0
 75 741 273 970 559 970 c 0
 825 970 1057 772 1057 482 c 0
EndSplineSet
EndChar

StartChar: oacute
Encoding: 243 243 34
Width: 1132
VWidth: 1463
Flags: HW
HStem: -25 65<421.463 743.549> 905 65<404.993 703.27>
VStem: 75 165<244.853 676.833> 892 165<258.068 681.873>
LayerCount: 2
Fore
SplineSet
633 1355.92 m 1
 640 1358.92 653 1360.92 663 1360.92 c 0
 720.337 1360.92 745.833 1338.75 763 1323.38 c 0
 767.721 1319.15 771.923 1315.49 776 1312.92 c 1
 781 1290.92 l 1
 546 1067.92 l 2
 514 1037.92 500 1027.92 487 1027.92 c 0
 471 1027.92 457.001 1039.25 457.001 1052.59 c 0
 457.001 1063.59 457.188 1078.72 470 1098.92 c 2
 633 1355.92 l 1
539 905 m 0
 386 905 240 786 240 479 c 0
 240 197 382 40 592 40 c 0
 776 40 892 192 892 453 c 0
 892 758 741 905 539 905 c 0
1057 482 m 0
 1057 189 866 -25 561 -25 c 0
 286 -25 75 166 75 454 c 0
 75 741 273 970 559 970 c 0
 825 970 1057 772 1057 482 c 0
EndSplineSet
EndChar

StartChar: ocircumflex
Encoding: 244 244 35
Width: 1132
VWidth: 1463
Flags: HW
HStem: -25 65<421.463 743.549> 905 65<404.993 703.27>
VStem: 75 165<244.853 676.833> 892 165<258.068 681.873>
LayerCount: 2
Fore
SplineSet
632.5 1324 m 1
 691.5 1228 766.5 1142 839.5 1060 c 1
 797.5 1031 l 1
 717.5 1090 648.5 1141 579.5 1215 c 1
 503.5 1137 437.5 1086 361.5 1031 c 1
 320.5 1060 l 1
 392.5 1141 470.5 1230 530.5 1324 c 1
 632.5 1324 l 1
539 905 m 0
 386 905 240 786 240 479 c 0
 240 197 382 40 592 40 c 0
 776 40 892 192 892 453 c 0
 892 758 741 905 539 905 c 0
1057 482 m 0
 1057 189 866 -25 561 -25 c 0
 286 -25 75 166 75 454 c 0
 75 741 273 970 559 970 c 0
 825 970 1057 772 1057 482 c 0
EndSplineSet
EndChar

StartChar: otilde
Encoding: 245 245 36
Width: 1132
VWidth: 1463
Flags: HW
HStem: -25 65<421.463 743.549> 905 65<404.993 703.27> 1078 90<644.3 752.2> 1177 94<357.1 472.8>
VStem: 75 165<244.853 676.833> 278 568<1089 1263> 892 165<258.068 681.873>
LayerCount: 2
Fore
SplineSet
695 1168 m 0
 739 1168 768 1190 797 1276 c 1
 846 1263 l 1
 821 1140 763 1078 668 1078 c 0
 623 1078 580.215 1104.34 538 1131 c 0
 500 1155 462 1177 426 1177 c 0
 373 1177 346 1147 326 1079 c 1
 278 1089 l 1
 306 1210 352 1271 440 1271 c 0
 503 1271 548 1242 588 1214 c 0
 622.094 1190.13 656 1168 695 1168 c 0
539 905 m 0
 386 905 240 786 240 479 c 0
 240 197 382 40 592 40 c 0
 776 40 892 192 892 453 c 0
 892 758 741 905 539 905 c 0
1057 482 m 0
 1057 189 866 -25 561 -25 c 0
 286 -25 75 166 75 454 c 0
 75 741 273 970 559 970 c 0
 825 970 1057 772 1057 482 c 0
EndSplineSet
EndChar

StartChar: odieresis
Encoding: 246 246 37
Width: 1132
VWidth: 1463
Flags: HW
HStem: -25 65<421.463 743.549> 905 65<404.993 703.27> 1080 186<345.2 477.8 674.2 806.8>
VStem: 75 165<244.853 676.833> 318.5 186<1106.7 1239.3> 647.5 186<1106.7 1239.3> 892 165<258.068 681.873>
LayerCount: 2
Fore
SplineSet
647.5 1173 m 0
 647.5 1224 689.5 1266 740.5 1266 c 0
 791.5 1266 833.5 1224 833.5 1173 c 0
 833.5 1122 791.5 1080 740.5 1080 c 0
 689.5 1080 647.5 1122 647.5 1173 c 0
318.5 1173 m 0
 318.5 1224 360.5 1266 411.5 1266 c 0
 462.5 1266 504.5 1224 504.5 1173 c 0
 504.5 1122 462.5 1080 411.5 1080 c 0
 360.5 1080 318.5 1122 318.5 1173 c 0
539 905 m 0
 386 905 240 786 240 479 c 0
 240 197 382 40 592 40 c 0
 776 40 892 192 892 453 c 0
 892 758 741 905 539 905 c 0
1057 482 m 0
 1057 189 866 -25 561 -25 c 0
 286 -25 75 166 75 454 c 0
 75 741 273 970 559 970 c 0
 825 970 1057 772 1057 482 c 0
EndSplineSet
EndChar

StartChar: divide
Encoding: 247 247 38
Width: 1080
VWidth: 2047
Flags: HW
HStem: 105.047 182.715<478.207 608.956> 425 101<135 945> 655.047 182.715<478.207 608.956>
VStem: 135 810 452.224 182.715<681.029 811.779> 452.224 182.715<131.029 261.779>
LayerCount: 2
Fore
SplineSet
945 526 m 1
 945 425 l 1
 135 425 l 1
 135 526 l 1
 945 526 l 1
452.225 196.403 m 0
 452.225 246.692 493.293 287.761 543.581 287.761 c 0
 593.87 287.761 634.938 246.692 634.938 196.403 c 0
 634.938 146.115 593.87 105.047 543.581 105.047 c 0
 493.293 105.047 452.225 146.115 452.225 196.403 c 0
452.225 746.403 m 0
 452.225 796.692 493.293 837.761 543.581 837.761 c 0
 593.87 837.761 634.938 796.692 634.938 746.403 c 0
 634.938 696.115 593.87 655.047 543.581 655.047 c 0
 493.293 655.047 452.225 696.115 452.225 746.403 c 0
EndSplineSet
EndChar

StartChar: ugrave
Encoding: 249 249 39
Width: 1145
VWidth: 2047
Flags: HW
HStem: -25 60<444.079 766.841> 888 55<58 170.544 170.544 173.445 173.445 191.181 347.061 484 729.456 869.181 963.434 1087>
VStem: 193 152<154.134 883.225> 871 91<155.235 883.335>
LayerCount: 2
Fore
SplineSet
548 1367.92 m 1
 691 1110.92 l 2
 702 1090.92 704 1076.92 704 1061.92 c 0
 704 1051.92 690 1039.92 674 1039.92 c 0
 661 1039.92 647 1049.92 615 1079.92 c 2
 380 1302.92 l 1
 385 1324.92 l 1
 401 1337.92 448 1372.92 518 1372.92 c 0
 528 1372.92 541 1370.92 548 1367.92 c 1
564 -25 m 0
 422 -25 193 49 193 347 c 2
 193 824 l 2
 193 869 169 888 105 888 c 2
 68 888 l 2
 61 888 55 892 55 900 c 2
 55 943 l 1
 58 947 l 1
 58 947 192 943 254 943 c 0
 311 943 484 947 484 947 c 1
 487 943 l 1
 487 900 l 2
 487 892 483 888 475 888 c 2
 433 888 l 2
 367 888 345 865 345 824 c 2
 345 390 l 2
 345 200 378 35 599 35 c 0
 868 35 871 231 871 408 c 2
 871 824 l 2
 871 869 847 888 783 888 c 2
 741 888 l 2
 734 888 728 892 728 900 c 2
 728 943 l 1
 731 947 l 1
 731 947 863 943 926 943 c 0
 982 943 1087 947 1087 947 c 1
 1090 943 l 1
 1090 900 l 2
 1090 892 1085 888 1078 888 c 2
 1042 888 l 2
 976 888 962 865 962 824 c 2
 962 434 l 2
 962 150 893 -25 564 -25 c 0
EndSplineSet
EndChar

StartChar: uacute
Encoding: 250 250 40
Width: 1145
VWidth: 2047
Flags: HW
HStem: -25 60<444.079 766.841> 888 55<58 170.544 170.544 173.445 173.445 191.181 347.061 484 729.456 869.181 963.434 1087>
VStem: 193 152<154.134 883.225> 871 91<155.235 883.335>
LayerCount: 2
Fore
SplineSet
702 1355.92 m 1
 709 1358.92 722 1360.92 732 1360.92 c 0
 789.337 1360.92 814.833 1338.75 832 1323.38 c 0
 836.721 1319.15 840.923 1315.49 845 1312.92 c 1
 850 1290.92 l 1
 615 1067.92 l 2
 583 1037.92 569 1027.92 556 1027.92 c 0
 540 1027.92 526.001 1039.25 526.001 1052.59 c 0
 526.001 1063.59 526.188 1078.72 539 1098.92 c 2
 702 1355.92 l 1
564 -25 m 0
 422 -25 193 49 193 347 c 2
 193 824 l 2
 193 869 169 888 105 888 c 2
 68 888 l 2
 61 888 55 892 55 900 c 2
 55 943 l 1
 58 947 l 1
 58 947 192 943 254 943 c 0
 311 943 484 947 484 947 c 1
 487 943 l 1
 487 900 l 2
 487 892 483 888 475 888 c 2
 433 888 l 2
 367 888 345 865 345 824 c 2
 345 390 l 2
 345 200 378 35 599 35 c 0
 868 35 871 231 871 408 c 2
 871 824 l 2
 871 869 847 888 783 888 c 2
 741 888 l 2
 734 888 728 892 728 900 c 2
 728 943 l 1
 731 947 l 1
 731 947 863 943 926 943 c 0
 982 943 1087 947 1087 947 c 1
 1090 943 l 1
 1090 900 l 2
 1090 892 1085 888 1078 888 c 2
 1042 888 l 2
 976 888 962 865 962 824 c 2
 962 434 l 2
 962 150 893 -25 564 -25 c 0
EndSplineSet
EndChar

StartChar: ucircumflex
Encoding: 251 251 41
Width: 1145
VWidth: 2047
Flags: HW
HStem: -25 60<444.079 766.841> 888 55<58 170.544 170.544 173.445 173.445 191.181 347.061 484 729.456 869.181 963.434 1087>
VStem: 193 152<154.134 883.225> 871 91<155.235 883.335>
LayerCount: 2
Fore
SplineSet
661.5 1323 m 1
 720.5 1227 795.5 1141 868.5 1059 c 1
 826.5 1030 l 1
 746.5 1089 677.5 1140 608.5 1214 c 1
 532.5 1136 466.5 1085 390.5 1030 c 1
 349.5 1059 l 1
 421.5 1140 499.5 1229 559.5 1323 c 1
 661.5 1323 l 1
564 -25 m 0
 422 -25 193 49 193 347 c 2
 193 824 l 2
 193 869 169 888 105 888 c 2
 68 888 l 2
 61 888 55 892 55 900 c 2
 55 943 l 1
 58 947 l 1
 58 947 192 943 254 943 c 0
 311 943 484 947 484 947 c 1
 487 943 l 1
 487 900 l 2
 487 892 483 888 475 888 c 2
 433 888 l 2
 367 888 345 865 345 824 c 2
 345 390 l 2
 345 200 378 35 599 35 c 0
 868 35 871 231 871 408 c 2
 871 824 l 2
 871 869 847 888 783 888 c 2
 741 888 l 2
 734 888 728 892 728 900 c 2
 728 943 l 1
 731 947 l 1
 731 947 863 943 926 943 c 0
 982 943 1087 947 1087 947 c 1
 1090 943 l 1
 1090 900 l 2
 1090 892 1085 888 1078 888 c 2
 1042 888 l 2
 976 888 962 865 962 824 c 2
 962 434 l 2
 962 150 893 -25 564 -25 c 0
EndSplineSet
EndChar

StartChar: ebreve
Encoding: 277 277 42
Width: 950
VWidth: 2047
Flags: HW
HStem: 0 57<68 204.917 379.874 740.48> 471 65<360 612.703> 888 59<68 204.969 360.056 733.098> 1043 117<341.8 625.2>
VStem: 207 153<61.0434 471 536 884.156> 225 55<1206.33 1342.71> 628 54<348.554 407.891> 724 54<1209.09 1348>
LayerCount: 2
Fore
SplineSet
280 1348 m 1
 284 1243 379 1160 503 1160 c 0
 597 1160 719 1221 724 1348 c 1
 778 1320 l 1
 758 1114 605 1043 503 1043 c 0
 344 1043 240 1161 225 1320 c 1
 280 1348 l 1
830 947 m 1
 832 857 846 779 860 700 c 1
 809 694 l 1
 787 768 748 888 618 888 c 2
 418 888 l 2
 379 888 360 875 360 840 c 2
 360 536 l 1
 539 536 l 2
 595 536 609 560 619 601 c 2
 630 644 l 2
 631 651 635 656 642 656 c 2
 677 656 l 2
 681 656 682 654 682 650 c 0
 678 603 670 546 670 497 c 0
 670 446 677 404 682 356 c 1
 678 351 l 1
 642 351 l 2
 633 351 629 357 628 362 c 2
 619 407 l 2
 610 449 592 471 539 471 c 2
 360 471 l 1
 360 105 l 2
 360 66 383 57 418 57 c 2
 620 57 l 2
 744 57 791 152 823 255 c 1
 875 249 l 1
 850 149 835 65 832 0 c 1
 419 0 l 1
 271 2 l 1
 68 -2 l 1
 65 2 l 1
 65 47 l 2
 65 52 67 57 77 57 c 2
 125 57 l 2
 189 57 207 82 207 123 c 2
 207 822 l 2
 207 868 185 888 125 888 c 2
 77 888 l 2
 66 888 65 894 65 898 c 2
 65 942 l 1
 68 947 l 1
 272 943 l 1
 420 947 l 1
 830 947 l 1
EndSplineSet
EndChar

StartChar: Edotaccent
Encoding: 278 278 43
Width: 1167
VWidth: 2047
Flags: HW
HStem: -2 59<28 199.931> 0 80<375.074 920.566> 669 70<373 740.095> 888 20<781 832.5> 1242 80<375.211 857.022> 1265 59<29 200.021> 1417 196<503.8 644.2>
VStem: 208 165<83.591 669 739 1238.57> 476 196<1444.8 1585.2> 768 69<508 579 830 904.994>
LayerCount: 2
Fore
SplineSet
723 1242 m 2
 447 1242 l 2
 398 1242 373 1224 373 1175 c 2
 373 739 l 1
 653 739 l 2
 725 739 742.922 773.018 756 830 c 2
 770 891 l 2
 771 900 777 908 785 908 c 2
 830 908 l 2
 835 908 837 904 837 899 c 0
 830 848 821 773 821 704 c 0
 821 634 832 543 837 508 c 1
 832 501 l 1
 785 501 l 2
 774 501 769 509 768 516 c 2
 756 579 l 2
 744.77 637.957 722 669 653 669 c 2
 373 669 l 1
 373 147 l 2
 373 93 402 80 447 80 c 2
 786 80 l 2
 942 80 1002 200 1043 348 c 1
 1105 338 l 1
 1082 232 1060 114 1051 0 c 1
 449 0 l 1
 290 2 l 1
 28 -2 l 1
 25 2 l 1
 25 43 l 2
 25 50 28 57 41 57 c 2
 102 57 l 2
 184 57 208 90 208 147 c 2
 208 1173 l 2
 208 1237 180 1265 102 1265 c 2
 41 1265 l 2
 27 1265 25 1274 25 1279 c 2
 25 1320 l 1
 29 1324 l 1
 291 1320 l 1
 450 1322 l 1
 975 1324 l 1
 984 1215 1002 1090 1018 1006 c 1
 958 996 l 1
 913 1137 877 1242 723 1242 c 2
476 1515 m 0
 476 1569 520 1613 574 1613 c 0
 628 1613 672 1569 672 1515 c 0
 672 1461 628 1417 574 1417 c 0
 520 1417 476 1461 476 1515 c 0
EndSplineSet
EndChar

StartChar: edotaccent
Encoding: 279 279 44
Width: 950
VWidth: 2047
Flags: HW
HStem: 0 57<68 204.917 379.874 740.48> 471 65<360 612.703> 888 59<68 204.969 360.056 733.098> 1073.5 196<455.3 595.7>
VStem: 207 153<61.0434 471 536 884.156> 427.5 196<1101.3 1241.7> 628 54<348.554 407.891>
LayerCount: 2
Fore
SplineSet
427.5 1171.5 m 0
 427.5 1225.5 471.5 1269.5 525.5 1269.5 c 0
 579.5 1269.5 623.5 1225.5 623.5 1171.5 c 0
 623.5 1117.5 579.5 1073.5 525.5 1073.5 c 0
 471.5 1073.5 427.5 1117.5 427.5 1171.5 c 0
830 947 m 1
 832 857 846 779 860 700 c 1
 809 694 l 1
 787 768 748 888 618 888 c 2
 418 888 l 2
 379 888 360 875 360 840 c 2
 360 536 l 1
 539 536 l 2
 595 536 609 560 619 601 c 2
 630 644 l 2
 631 651 635 656 642 656 c 2
 677 656 l 2
 681 656 682 654 682 650 c 0
 678 603 670 546 670 497 c 0
 670 446 677 404 682 356 c 1
 678 351 l 1
 642 351 l 2
 633 351 629 357 628 362 c 2
 619 407 l 2
 610 449 592 471 539 471 c 2
 360 471 l 1
 360 105 l 2
 360 66 383 57 418 57 c 2
 620 57 l 2
 744 57 791 152 823 255 c 1
 875 249 l 1
 850 149 835 65 832 0 c 1
 419 0 l 1
 271 2 l 1
 68 -2 l 1
 65 2 l 1
 65 47 l 2
 65 52 67 57 77 57 c 2
 125 57 l 2
 189 57 207 82 207 123 c 2
 207 822 l 2
 207 868 185 888 125 888 c 2
 77 888 l 2
 66 888 65 894 65 898 c 2
 65 942 l 1
 68 947 l 1
 272 943 l 1
 420 947 l 1
 830 947 l 1
EndSplineSet
EndChar

StartChar: Eogonek
Encoding: 280 280 45
Width: 1167
VWidth: 2047
Flags: HW
HStem: -459 81<783.979 968.584> -2 59<28 199.931> 0 52<893.367 993> 0 80<375.074 920.566> 669 70<373 740.095> 888 20<781 832.5> 1242 80<375.211 857.022> 1265 59<29 200.021>
VStem: 208 165<83.591 669 739 1238.57> 637 123<-354.321 -152.569> 768 69<508 579 830 904.994>
LayerCount: 2
Fore
SplineSet
828 -459 m 0
 718 -459 637 -396 637 -284 c 0
 637 -186.923 718.512 -68.5361 841.482 7.01007e-08 c 1
 449 0 l 1
 290 2 l 1
 28 -2 l 1
 25 2 l 1
 25 43 l 2
 25 50 28 57 41 57 c 2
 102 57 l 2
 184 57 208 90 208 147 c 2
 208 1173 l 2
 208 1237 180 1265 102 1265 c 2
 41 1265 l 2
 27 1265 25 1274 25 1279 c 2
 25 1320 l 1
 29 1324 l 1
 291 1320 l 1
 450 1322 l 1
 975 1324 l 1
 984 1215 1002 1090 1018 1006 c 1
 958 996 l 1
 913 1137 877 1242 723 1242 c 2
 447 1242 l 2
 398 1242 373 1224 373 1175 c 2
 373 739 l 1
 653 739 l 2
 725 739 742.922 773.018 756 830 c 2
 770 891 l 2
 771 900 777 908 785 908 c 2
 830 908 l 2
 835 908 837 904 837 899 c 0
 830 848 821 773 821 704 c 0
 821 634 832 543 837 508 c 1
 832 501 l 1
 785 501 l 2
 774 501 769 509 768 516 c 2
 756 579 l 2
 744.77 637.957 722 669 653 669 c 2
 373 669 l 1
 373 147 l 2
 373 93 402 80 447 80 c 2
 786 80 l 2
 942 80 1002 200 1043 348 c 1
 1105 338 l 1
 1082 232 1060 114 1051 0 c 1
 1036 0 l 2
 871.75 0 760 -153 760 -259 c 0
 760 -324 805 -378 879 -378 c 0
 940 -378 982 -348.5 1021.5 -306 c 1
 1052.5 -321.5 l 1
 1004 -418 900.586 -459 828 -459 c 0
EndSplineSet
EndChar

StartChar: eogonek
Encoding: 281 281 46
Width: 950
VWidth: 2047
Flags: HW
HStem: -459 81<583.979 768.585> 0 52<693.367 793> 0 57<68 204.917 379.874 740.48> 471 65<360 612.703> 888 59<68 204.969 360.056 733.098>
VStem: 207 153<61.0434 471 536 884.156> 437 123<-354.321 -152.569> 628 54<348.554 407.891>
LayerCount: 2
Fore
SplineSet
628 -459 m 0
 518 -459 437 -396 437 -284 c 0
 437 -186.923 518.512 -68.5361 641.482 7.01007e-08 c 1
 419 0 l 1
 271 2 l 1
 68 -2 l 1
 65 2 l 1
 65 47 l 2
 65 52 67 57 77 57 c 2
 125 57 l 2
 189 57 207 82 207 123 c 2
 207 822 l 2
 207 868 185 888 125 888 c 2
 77 888 l 2
 66 888 65 894 65 898 c 2
 65 942 l 1
 68 947 l 1
 272 943 l 1
 420 947 l 1
 830 947 l 1
 832 857 846 779 860 700 c 1
 809 694 l 1
 787 768 748 888 618 888 c 2
 418 888 l 2
 379 888 360 875 360 840 c 2
 360 536 l 1
 539 536 l 2
 595 536 609 560 619 601 c 2
 630 644 l 2
 631 651 635 656 642 656 c 2
 677 656 l 2
 681 656 682 654 682 650 c 0
 678 603 670 546 670 497 c 0
 670 446 677 404 682 356 c 1
 678 351 l 1
 642 351 l 2
 633 351 629 357 628 362 c 2
 619 407 l 2
 610 449 592 471 539 471 c 2
 360 471 l 1
 360 105 l 2
 360 66 383 57 418 57 c 2
 620 57 l 2
 744 57 791 152 823 255 c 1
 875 249 l 1
 850.581 151.323 835.702 68.9115 832.229 4.5609 c 1
 836 0 l 1
 671.75 0 560 -153 560 -259 c 0
 560 -324 605 -378 679 -378 c 0
 740 -378 782 -348.5 821.5 -306 c 1
 852.5 -321.5 l 1
 804 -418 700.59 -459 628 -459 c 0
EndSplineSet
EndChar

StartChar: Ecaron
Encoding: 282 282 47
Width: 1167
VWidth: 2047
Flags: HW
HStem: -2 59<28 199.931> 0 80<375.074 920.566> 669 70<373 740.095> 888 20<781 832.5> 1242 80<375.211 857.022> 1265 59<29 200.021>
VStem: 208 165<83.591 669 739 1238.57> 768 69<508 579 830 904.994>
LayerCount: 2
Fore
SplineSet
723 1242 m 2
 447 1242 l 2
 398 1242 373 1224 373 1175 c 2
 373 739 l 1
 653 739 l 2
 725 739 742.922 773.018 756 830 c 2
 770 891 l 2
 771 900 777 908 785 908 c 2
 830 908 l 2
 835 908 837 904 837 899 c 0
 830 848 821 773 821 704 c 0
 821 634 832 543 837 508 c 1
 832 501 l 1
 785 501 l 2
 774 501 769 509 768 516 c 2
 756 579 l 2
 744.77 637.957 722 669 653 669 c 2
 373 669 l 1
 373 147 l 2
 373 93 402 80 447 80 c 2
 786 80 l 2
 942 80 1002 200 1043 348 c 1
 1105 338 l 1
 1082 232 1060 114 1051 0 c 1
 449 0 l 1
 290 2 l 1
 28 -2 l 1
 25 2 l 1
 25 43 l 2
 25 50 28 57 41 57 c 2
 102 57 l 2
 184 57 208 90 208 147 c 2
 208 1173 l 2
 208 1237 180 1265 102 1265 c 2
 41 1265 l 2
 27 1265 25 1274 25 1279 c 2
 25 1320 l 1
 29 1324 l 1
 291 1320 l 1
 450 1322 l 1
 975 1324 l 1
 984 1215 1002 1090 1018 1006 c 1
 958 996 l 1
 913 1137 877 1242 723 1242 c 2
548 1429 m 1
 487 1504 416 1566 342 1622 c 1
 374 1664 l 1
 454 1629 524 1589 592 1538 c 1
 667 1593 733 1630 811 1664 c 1
 840 1622 l 1
 764 1564 698 1498 636 1429 c 1
 548 1429 l 1
EndSplineSet
EndChar

StartChar: ecaron
Encoding: 283 283 48
Width: 950
VWidth: 2047
Flags: HW
HStem: -2 59<68 204.917 379.874 740.48> 471 65<360 612.703> 888 59<68 204.969 360.056 729.762>
VStem: 207 153<61.0434 471 536 884.156> 628 54<351.224 407.69> 809 51<693.5 778.346> 823 52<156.475 255>
LayerCount: 2
Fore
SplineSet
830 947 m 1
 832 857 846 779 860 700 c 1
 809 694 l 1
 787 768 748 888 618 888 c 2
 418 888 l 2
 379 888 360 875 360 840 c 2
 360 536 l 1
 539 536 l 2
 595 536 609 560 619 601 c 2
 630 644 l 2
 631 651 635 656 642 656 c 2
 677 656 l 2
 681 656 682 654 682 650 c 0
 678 603 670 546 670 497 c 0
 670 446 677 404 682 356 c 1
 678 351 l 1
 642 351 l 2
 633 351 629 357 628 362 c 2
 619 407 l 2
 610 449 592 471 539 471 c 2
 360 471 l 1
 360 105 l 2
 360 66 383 57 418 57 c 2
 620 57 l 2
 744 57 791 152 823 255 c 1
 875 249 l 1
 850 149 835 65 832 0 c 1
 419 0 l 1
 271 2 l 1
 68 -2 l 1
 65 2 l 1
 65 47 l 2
 65 52 67 57 77 57 c 2
 125 57 l 2
 189 57 207 82 207 123 c 2
 207 822 l 2
 207 868 185 888 125 888 c 2
 77 888 l 2
 66 888 65 894 65 898 c 2
 65 942 l 1
 68 947 l 1
 272 943 l 1
 420 947 l 1
 830 947 l 1
456 1043 m 1
 397 1139 320 1232 249 1309 c 1
 291 1336 l 1
 371 1277 437 1225 507 1151 c 1
 583 1229 652 1281 728 1336 c 1
 767 1309 l 1
 696 1228 618 1137 558 1043 c 1
 456 1043 l 1
EndSplineSet
EndChar

StartChar: Gcircumflex
Encoding: 284 284 49
Width: 1420
VWidth: 2047
Flags: HW
HStem: -25 75<597.937 1018.34> 555 74<927 1095.06 1277.81 1376> 1272 75<550.557 965.743>
VStem: 65 178<440.982 883.546> 1106 165<199.651 544.121>
LayerCount: 2
Fore
SplineSet
767 1347 m 0
 1018 1347 1092 1256 1214 1255 c 1
 1228 1108 1242 1026 1259 940 c 1
 1198 928 l 1
 1144 1103 1037 1272 739 1272 c 0
 463 1272 243 1028 243 669 c 0
 243 399 441 50 804 50 c 0
 916 50 1036 85 1106 151 c 1
 1106 465 l 2
 1106 528 1075 555 994 555 c 2
 940 555 l 2
 931 555 923 561 923 572 c 2
 923 625 l 1
 927 629 l 1
 927 629 1105 625 1185 625 c 0
 1258 625 1376 629 1376 629 c 1
 1380 625 l 1
 1380 572 l 2
 1380 561 1374 555 1364 555 c 2
 1362 555 l 2
 1291 555 1271 522 1271 465 c 2
 1271 228 l 2
 1271 204 1283 188 1304 169 c 1
 1165 52 1000 -25 758 -25 c 0
 346 -25 65 274 65 629 c 0
 65 1080 416 1347 767 1347 c 0
788 1649 m 1
 849 1574 920 1512 994 1456 c 1
 962 1414 l 1
 882 1449 812 1489 744 1540 c 1
 669 1485 603 1448 525 1414 c 1
 496 1456 l 1
 572 1514 637 1580 700 1649 c 1
 788 1649 l 1
EndSplineSet
EndChar

StartChar: gcircumflex
Encoding: 285 285 50
Width: 1114
VWidth: 2047
Flags: HW
HStem: -25 55<459.779 759.615> 396 53<675 810.982 969.119 1049> 915 55<416.781 769.687>
VStem: 77 160<283.87 671.741> 815 152<153.878 391.225>
LayerCount: 2
Fore
SplineSet
652.5 1336 m 1
 711.5 1240 786.5 1154 859.5 1072 c 1
 817.5 1043 l 1
 737.5 1102 668.5 1153 599.5 1227 c 1
 523.5 1149 457.5 1098 381.5 1043 c 1
 340.5 1072 l 1
 412.5 1153 490.5 1242 550.5 1336 c 1
 652.5 1336 l 1
815 332 m 2
 815 377 790 396 727 396 c 2
 685 396 l 2
 678 396 672 400 672 408 c 2
 672 446 l 1
 675 449 l 1
 675 449 838 446 900 446 c 0
 957 446 1049 449 1049 449 c 1
 1052 446 l 1
 1052 408 l 2
 1052 400 1048 396 1040 396 c 2
 1038 396 l 2
 983 396 967 373 967 332 c 2
 967 174 l 2
 967 160 982 142 995 128 c 1
 869 38 719 -25 580 -25 c 0
 286 -25 77 189 77 450 c 0
 77 777 306 970 606 970 c 0
 720 970 872 933 935 933 c 1
 937 837 947 753 960 671 c 1
 907 666 l 1
 880 804 792 915 580 915 c 0
 365 915 237 735 237 478 c 0
 237 309 361 30 616 30 c 0
 689 30 762 66 815 116 c 1
 815 332 l 2
EndSplineSet
EndChar

StartChar: Gbreve
Encoding: 286 286 51
Width: 1420
VWidth: 2047
Flags: HW
HStem: -25 75<597.937 1018.34> 555 74<927 1095.06 1277.81 1376> 1272 75<550.557 965.743> 1419 107<620.3 892> 1631 20<483 540 982 1037>
VStem: 65 178<440.982 883.546> 483 554<1553.82 1651 1651 1651> 1106 165<199.651 544.121>
LayerCount: 2
Fore
SplineSet
767 1347 m 0
 1018 1347 1092 1256 1214 1255 c 1
 1228 1108 1242 1026 1259 940 c 1
 1198 928 l 1
 1144 1103 1037 1272 739 1272 c 0
 463 1272 243 1028 243 669 c 0
 243 399 441 50 804 50 c 0
 916 50 1036 85 1106 151 c 1
 1106 465 l 2
 1106 528 1075 555 994 555 c 2
 940 555 l 2
 931 555 923 561 923 572 c 2
 923 625 l 1
 927 629 l 1
 927 629 1105 625 1185 625 c 0
 1258 625 1376 629 1376 629 c 1
 1380 625 l 1
 1380 572 l 2
 1380 561 1374 555 1364 555 c 2
 1362 555 l 2
 1291 555 1271 522 1271 465 c 2
 1271 228 l 2
 1271 204 1283 188 1304 169 c 1
 1165 52 1000 -25 758 -25 c 0
 346 -25 65 274 65 629 c 0
 65 1080 416 1347 767 1347 c 0
1037 1651 m 1
 1025 1505 896 1419 762 1419 c 0
 611 1419 494 1508 483 1651 c 1
 540 1651 l 1
 557 1571 653 1526 762 1526 c 0
 862 1526 968 1571 982 1651 c 1
 1037 1651 l 1
EndSplineSet
EndChar

StartChar: gbreve
Encoding: 287 287 52
Width: 1114
VWidth: 2047
Flags: HW
HStem: -25 55<459.779 759.615> 396 53<675 810.982 969.119 1049> 915 55<416.781 769.687> 1051 117<429.3 712.7>
VStem: 77 160<283.87 671.741> 312.5 55<1214.33 1350.71> 811.5 54<1217.09 1356> 815 152<153.878 391.225>
LayerCount: 2
Fore
SplineSet
815 332 m 2
 815 377 790 396 727 396 c 2
 685 396 l 2
 678 396 672 400 672 408 c 2
 672 446 l 1
 675 449 l 1
 675 449 838 446 900 446 c 0
 957 446 1049 449 1049 449 c 1
 1052 446 l 1
 1052 408 l 2
 1052 400 1048 396 1040 396 c 2
 1038 396 l 2
 983 396 967 373 967 332 c 2
 967 174 l 2
 967 160 982 142 995 128 c 1
 869 38 719 -25 580 -25 c 0
 286 -25 77 189 77 450 c 0
 77 777 306 970 606 970 c 0
 720 970 872 933 935 933 c 1
 937 837 947 753 960 671 c 1
 907 666 l 1
 880 804 792 915 580 915 c 0
 365 915 237 735 237 478 c 0
 237 309 361 30 616 30 c 0
 689 30 762 66 815 116 c 1
 815 332 l 2
367.5 1356 m 1
 371.5 1251 466.5 1168 590.5 1168 c 0
 684.5 1168 806.5 1229 811.5 1356 c 1
 865.5 1328 l 1
 845.5 1122 692.5 1051 590.5 1051 c 0
 431.5 1051 327.5 1169 312.5 1328 c 1
 367.5 1356 l 1
EndSplineSet
EndChar

StartChar: Gdotaccent
Encoding: 288 288 53
Width: 1420
VWidth: 2047
Flags: HW
HStem: -25 75<597.937 1018.34> 555 74<927 1095.06 1277.81 1376> 1272 75<550.557 965.743> 1445 196<697.8 838.2>
VStem: 65 178<440.982 883.546> 670 196<1472.8 1613.2> 1106 165<199.651 544.121>
LayerCount: 2
Fore
SplineSet
767 1347 m 0
 1018 1347 1092 1256 1214 1255 c 1
 1228 1108 1242 1026 1259 940 c 1
 1198 928 l 1
 1144 1103 1037 1272 739 1272 c 0
 463 1272 243 1028 243 669 c 0
 243 399 441 50 804 50 c 0
 916 50 1036 85 1106 151 c 1
 1106 465 l 2
 1106 528 1075 555 994 555 c 2
 940 555 l 2
 931 555 923 561 923 572 c 2
 923 625 l 1
 927 629 l 1
 927 629 1105 625 1185 625 c 0
 1258 625 1376 629 1376 629 c 1
 1380 625 l 1
 1380 572 l 2
 1380 561 1374 555 1364 555 c 2
 1362 555 l 2
 1291 555 1271 522 1271 465 c 2
 1271 228 l 2
 1271 204 1283 188 1304 169 c 1
 1165 52 1000 -25 758 -25 c 0
 346 -25 65 274 65 629 c 0
 65 1080 416 1347 767 1347 c 0
670 1543 m 0
 670 1597 714 1641 768 1641 c 0
 822 1641 866 1597 866 1543 c 0
 866 1489 822 1445 768 1445 c 0
 714 1445 670 1489 670 1543 c 0
EndSplineSet
EndChar

StartChar: gdotaccent
Encoding: 289 289 54
Width: 1114
VWidth: 2047
Flags: HW
HStem: -25 55<459.779 759.615> 396 53<675 810.982 969.119 1049> 915 55<416.781 769.687> 1043 196<529.8 670.2>
VStem: 77 160<283.87 671.741> 502 196<1070.8 1211.2> 815 152<153.878 391.225>
LayerCount: 2
Fore
SplineSet
502 1141 m 0
 502 1195 546 1239 600 1239 c 0
 654 1239 698 1195 698 1141 c 0
 698 1087 654 1043 600 1043 c 0
 546 1043 502 1087 502 1141 c 0
815 332 m 2
 815 377 790 396 727 396 c 2
 685 396 l 2
 678 396 672 400 672 408 c 2
 672 446 l 1
 675 449 l 1
 675 449 838 446 900 446 c 0
 957 446 1049 449 1049 449 c 1
 1052 446 l 1
 1052 408 l 2
 1052 400 1048 396 1040 396 c 2
 1038 396 l 2
 983 396 967 373 967 332 c 2
 967 174 l 2
 967 160 982 142 995 128 c 1
 869 38 719 -25 580 -25 c 0
 286 -25 77 189 77 450 c 0
 77 777 306 970 606 970 c 0
 720 970 872 933 935 933 c 1
 937 837 947 753 960 671 c 1
 907 666 l 1
 880 804 792 915 580 915 c 0
 365 915 237 735 237 478 c 0
 237 309 361 30 616 30 c 0
 689 30 762 66 815 116 c 1
 815 332 l 2
EndSplineSet
EndChar

StartChar: Gcommaaccent
Encoding: 290 290 55
Width: 1420
VWidth: 2047
Flags: HW
HStem: -274 167<672.1 806.289> -25 75<597.937 1018.34> 555 74<927 1095.06 1277.81 1376> 1272 75<550.557 965.743>
VStem: 65 178<440.982 883.546> 828 66<-319.467 -250.366> 1106 165<199.651 544.121>
LayerCount: 2
Fore
SplineSet
767 1347 m 0
 1018 1347 1092 1256 1214 1255 c 1
 1228 1108 1242 1026 1259 940 c 1
 1198 928 l 1
 1144 1103 1037 1272 739 1272 c 0
 463 1272 243 1028 243 669 c 0
 243 399 441 50 804 50 c 0
 916 50 1036 85 1106 151 c 1
 1106 465 l 2
 1106 528 1075 555 994 555 c 2
 940 555 l 2
 931 555 923 561 923 572 c 2
 923 625 l 1
 927 629 l 1
 927 629 1105 625 1185 625 c 0
 1258 625 1376 629 1376 629 c 1
 1380 625 l 1
 1380 572 l 2
 1380 561 1374 555 1364 555 c 2
 1362 555 l 2
 1291 555 1271 522 1271 465 c 2
 1271 228 l 2
 1271 204 1283 188 1304 169 c 1
 1165 52 1000 -25 758 -25 c 0
 346 -25 65 274 65 629 c 0
 65 1080 416 1347 767 1347 c 0
767 -107 m 0
 846 -107 894 -183 894 -256 c 0
 894 -309 859 -464 674 -472 c 1
 666 -438 l 1
 822 -407 828 -287 828 -276 c 0
 828 -268 827 -262 825 -256 c 1
 801 -268 781 -274 765 -274 c 0
 682 -274 662 -223 662 -189 c 0
 662 -156 694 -107 767 -107 c 0
EndSplineSet
EndChar

StartChar: gcommaaccent
Encoding: 291 291 56
Width: 1114
VWidth: 2047
Flags: HW
HStem: -25 55<459.779 759.615> 396 53<675 810.982 969.119 1049> 915 55<416.781 769.687>
VStem: 77 160<283.87 671.741> 815 152<153.878 391.225>
LayerCount: 2
Fore
SplineSet
609 1050 m 0
 531 1050 486 1125 486 1199 c 0
 486 1252 517 1406 703 1416 c 1
 712 1381 l 1
 626 1363 589 1287 589 1240 c 0
 589 1220 597 1203 611 1203 c 0
 695 1203 705 1152 705 1119 c 0
 705 1087 683 1050 609 1050 c 0
815 332 m 2
 815 377 790 396 727 396 c 2
 685 396 l 2
 678 396 672 400 672 408 c 2
 672 446 l 1
 675 449 l 1
 675 449 838 446 900 446 c 0
 957 446 1049 449 1049 449 c 1
 1052 446 l 1
 1052 408 l 2
 1052 400 1048 396 1040 396 c 2
 1038 396 l 2
 983 396 967 373 967 332 c 2
 967 174 l 2
 967 160 982 142 995 128 c 1
 869 38 719 -25 580 -25 c 0
 286 -25 77 189 77 450 c 0
 77 777 306 970 606 970 c 0
 720 970 872 933 935 933 c 1
 937 837 947 753 960 671 c 1
 907 666 l 1
 880 804 792 915 580 915 c 0
 365 915 237 735 237 478 c 0
 237 309 361 30 616 30 c 0
 689 30 762 66 815 116 c 1
 815 332 l 2
EndSplineSet
EndChar

StartChar: Hcircumflex
Encoding: 292 292 57
Width: 1435
VWidth: 2047
Flags: HW
HStem: -2 59<40 204.943 393.94 562 874 1038.94 1227.94 1396> 664 80<383 1052> 1265 59<39 207.06 396.057 561 873 1041.06 1230.06 1395>
VStem: 218 165<68.8652 664 744 1253.13> 1052 165<68.8652 664 744 1253.13>
LayerCount: 2
Fore
SplineSet
754 1645 m 1
 815 1570 886 1508 960 1452 c 1
 928 1410 l 1
 848 1445 778 1485 710 1536 c 1
 635 1481 569 1444 491 1410 c 1
 462 1452 l 1
 538 1510 603 1576 666 1645 c 1
 754 1645 l 1
1052 147 m 2
 1052 664 l 1
 383 664 l 1
 383 147 l 2
 383 84 414 57 495 57 c 2
 549 57 l 2
 558 57 566 51 566 40 c 2
 566 2 l 1
 562 -2 l 1
 562 -2 384 2 304 2 c 0
 231 2 40 -2 40 -2 c 1
 36 2 l 1
 36 40 l 2
 36 51 42 57 52 57 c 2
 106 57 l 2
 190 57 218 90 218 147 c 2
 218 1175 l 2
 218 1238 187 1265 106 1265 c 2
 52 1265 l 2
 43 1265 35 1271 35 1282 c 2
 35 1320 l 1
 39 1324 l 1
 39 1324 217 1320 297 1320 c 0
 370 1320 561 1324 561 1324 c 1
 565 1320 l 1
 565 1282 l 2
 565 1271 559 1265 549 1265 c 2
 495 1265 l 2
 411 1265 383 1232 383 1175 c 2
 383 744 l 1
 1052 744 l 1
 1052 1175 l 2
 1052 1238 1021 1265 940 1265 c 2
 886 1265 l 2
 877 1265 869 1271 869 1282 c 2
 869 1320 l 1
 873 1324 l 1
 873 1324 1051 1320 1131 1320 c 0
 1204 1320 1395 1324 1395 1324 c 1
 1399 1320 l 1
 1399 1282 l 2
 1399 1271 1393 1265 1383 1265 c 2
 1329 1265 l 2
 1245 1265 1217 1232 1217 1175 c 2
 1217 147 l 2
 1217 84 1248 57 1329 57 c 2
 1383 57 l 2
 1392 57 1400 51 1400 40 c 2
 1400 2 l 1
 1396 -2 l 1
 1396 -2 1218 2 1138 2 c 0
 1065 2 874 -2 874 -2 c 1
 870 2 l 1
 870 40 l 2
 870 51 876 57 886 57 c 2
 940 57 l 2
 1024 57 1052 90 1052 147 c 2
EndSplineSet
EndChar

StartChar: hcircumflex
Encoding: 293 293 58
Width: 1219
VWidth: 2047
Flags: HW
HStem: 2 55<69 205.944 362.815 500 720.19 856.939 1012.82 1151> 480 65<361 859> 888 56<69 188.342 188.342 189.445 189.445 206.185 363.056 500 717.924 857.119 1013.06 1150>
VStem: 208 153<61.6005 480 545 883.399> 859 152<61.6005 480 545 883.399>
LayerCount: 2
Fore
SplineSet
657 1336 m 1
 716 1240 791 1154 864 1072 c 1
 822 1043 l 1
 742 1102 673 1153 604 1227 c 1
 528 1149 462 1098 386 1043 c 1
 345 1072 l 1
 417 1153 495 1242 555 1336 c 1
 657 1336 l 1
859 120 m 2
 859 480 l 1
 361 480 l 1
 361 120 l 2
 361 75 385 57 448 57 c 2
 490 57 l 2
 497 57 503 52 503 45 c 2
 503 2 l 1
 500 -2 l 1
 500 -2 338 2 275 2 c 0
 218 2 69 -2 69 -2 c 1
 66 2 l 1
 66 45 l 2
 66 52 71 57 79 57 c 2
 121 57 l 2
 186 57 208 79 208 120 c 2
 208 825 l 2
 208 870 184 888 121 888 c 2
 79 888 l 2
 72 888 65 893 65 901 c 2
 65 943 l 1
 69 947 l 1
 69 947 207 944 270 944 c 0
 327 944 500 947 500 947 c 1
 503 943 l 1
 503 901 l 2
 503 893 498 888 490 888 c 2
 448 888 l 2
 383 888 361 866 361 825 c 2
 361 545 l 1
 859 545 l 1
 859 825 l 2
 859 870 834 888 771 888 c 2
 729 888 l 2
 722 888 716 893 716 901 c 2
 716 943 l 1
 719 947 l 1
 719 947 858 943 920 943 c 0
 977 943 1150 947 1150 947 c 1
 1153 943 l 1
 1153 901 l 2
 1153 893 1149 888 1141 888 c 2
 1099 888 l 2
 1033 888 1011 866 1011 825 c 2
 1011 120 l 2
 1011 75 1035 57 1099 57 c 2
 1141 57 l 2
 1148 57 1154 52 1154 45 c 2
 1154 2 l 1
 1151 -2 l 1
 1151 -2 988 2 926 2 c 0
 869 2 720 -2 720 -2 c 1
 717 2 l 1
 717 45 l 2
 717 52 721 57 729 57 c 2
 771 57 l 2
 837 57 859 79 859 120 c 2
EndSplineSet
EndChar

StartChar: Hbar
Encoding: 294 294 59
Width: 1435
VWidth: 2047
Flags: HW
HStem: -2 59<40 204.943 393.94 562 874 1038.94 1227.94 1396> 664 80<383 1052> 1044 80<83 1343> 1265 59<39 207.06 396.057 561 873 1041.06 1230.06 1395>
VStem: 218 165<68.8652 664 744 1253.13> 1052 165<68.8652 664 744 1253.13>
LayerCount: 2
Fore
SplineSet
1052 147 m 2
 1052 664 l 1
 383 664 l 1
 383 147 l 2
 383 84 414 57 495 57 c 2
 549 57 l 2
 558 57 566 51 566 40 c 2
 566 2 l 1
 562 -2 l 1
 562 -2 384 2 304 2 c 0
 231 2 40 -2 40 -2 c 1
 36 2 l 1
 36 40 l 2
 36 51 42 57 52 57 c 2
 106 57 l 2
 190 57 218 90 218 147 c 2
 218 1044 l 1
 83 1044 l 1
 83 1124 l 1
 218 1124 l 1
 218 1175 l 2
 218 1238 187 1265 106 1265 c 2
 52 1265 l 2
 43 1265 35 1271 35 1282 c 2
 35 1320 l 1
 39 1324 l 1
 39 1324 217 1320 297 1320 c 0
 370 1320 561 1324 561 1324 c 1
 565 1320 l 1
 565 1282 l 2
 565 1271 559 1265 549 1265 c 2
 495 1265 l 2
 411 1265 383 1232 383 1175 c 2
 383 1124 l 1
 1052 1124 l 1
 1052 1175 l 2
 1052 1238 1021 1265 940 1265 c 2
 886 1265 l 2
 877 1265 869 1271 869 1282 c 2
 869 1320 l 1
 873 1324 l 1
 873 1324 1051 1320 1131 1320 c 0
 1204 1320 1395 1324 1395 1324 c 1
 1399 1320 l 1
 1399 1282 l 2
 1399 1271 1393 1265 1383 1265 c 2
 1329 1265 l 2
 1245 1265 1217 1232 1217 1175 c 2
 1217 1124 l 1
 1343 1124 l 1
 1343 1044 l 1
 1217 1044 l 1
 1217 147 l 2
 1217 84 1248 57 1329 57 c 2
 1383 57 l 2
 1392 57 1400 51 1400 40 c 2
 1400 2 l 1
 1396 -2 l 1
 1396 -2 1218 2 1138 2 c 0
 1065 2 874 -2 874 -2 c 1
 870 2 l 1
 870 40 l 2
 870 51 876 57 886 57 c 2
 940 57 l 2
 1024 57 1052 90 1052 147 c 2
1052 1044 m 1
 383 1044 l 1
 383 744 l 1
 1052 744 l 1
 1052 1044 l 1
EndSplineSet
EndChar

StartChar: hbar
Encoding: 295 295 60
Width: 1219
VWidth: 2047
Flags: HW
HStem: 2 55<69 205.944 362.815 500 720.19 856.939 1012.82 1151> 480 65<361 859> 709 65<82 1132> 888 56<69 188.342 188.342 189.445 189.445 206.185 363.056 500 717.924 857.119 1013.06 1150>
VStem: 208 153<61.6005 480 545 883.399> 859 152<61.6005 480 545 883.399>
LayerCount: 2
Fore
SplineSet
859 120 m 2
 859 480 l 1
 361 480 l 1
 361 120 l 2
 361 75 385 57 448 57 c 2
 490 57 l 2
 497 57 503 52 503 45 c 2
 503 2 l 1
 500 -2 l 1
 500 -2 338 2 275 2 c 0
 218 2 69 -2 69 -2 c 1
 66 2 l 1
 66 45 l 2
 66 52 71 57 79 57 c 2
 121 57 l 2
 186 57 208 79 208 120 c 2
 208 709 l 1
 82 709 l 1
 82 774 l 1
 208 774 l 1
 208 825 l 2
 208 870 184 888 121 888 c 2
 79 888 l 2
 72 888 65 893 65 901 c 2
 65 943 l 1
 69 947 l 1
 69 947 207 944 270 944 c 0
 327 944 500 947 500 947 c 1
 503 943 l 1
 503 901 l 2
 503 893 498 888 490 888 c 2
 448 888 l 2
 383 888 361 866 361 825 c 2
 361 774 l 1
 859 774 l 1
 859 825 l 2
 859 870 834 888 771 888 c 2
 729 888 l 2
 722 888 716 893 716 901 c 2
 716 943 l 1
 719 947 l 1
 719 947 858 943 920 943 c 0
 977 943 1150 947 1150 947 c 1
 1153 943 l 1
 1153 901 l 2
 1153 893 1149 888 1141 888 c 2
 1099 888 l 2
 1033 888 1011 866 1011 825 c 2
 1011 774 l 1
 1132 774 l 1
 1132 709 l 1
 1011 709 l 1
 1011 120 l 2
 1011 75 1035 57 1099 57 c 2
 1141 57 l 2
 1148 57 1154 52 1154 45 c 2
 1154 2 l 1
 1151 -2 l 1
 1151 -2 988 2 926 2 c 0
 869 2 720 -2 720 -2 c 1
 717 2 l 1
 717 45 l 2
 717 52 721 57 729 57 c 2
 771 57 l 2
 837 57 859 79 859 120 c 2
859 709 m 1
 361 709 l 1
 361 545 l 1
 859 545 l 1
 859 709 l 1
EndSplineSet
EndChar

StartChar: Itilde
Encoding: 296 296 61
Width: 601
VWidth: 2047
Flags: HW
HStem: -2 59<40 204.943 393.94 562> 1265 59<39 207.06 396.057 561> 1426 90<386.3 494.2> 1525 94<99.1 214.8>
VStem: 20 568<1437 1611> 218 165<68.5488 1253.13>
LayerCount: 2
Fore
SplineSet
383 1175 m 2
 383 146 l 2
 383 83 414 57 495 57 c 2
 549 57 l 2
 558 57 566 51 566 40 c 2
 566 2 l 1
 562 -2 l 1
 562 -2 384 2 304 2 c 0
 231 2 40 -2 40 -2 c 1
 36 2 l 1
 36 40 l 2
 36 51 42 57 52 57 c 2
 106 57 l 2
 190 57 218 89 218 146 c 2
 218 1175 l 2
 218 1238 187 1265 106 1265 c 2
 52 1265 l 2
 43 1265 35 1271 35 1282 c 2
 35 1320 l 1
 39 1324 l 1
 39 1324 217 1320 297 1320 c 0
 370 1320 561 1324 561 1324 c 1
 565 1320 l 1
 565 1282 l 2
 565 1271 559 1265 549 1265 c 2
 495 1265 l 2
 411 1265 383 1232 383 1175 c 2
437 1516 m 0
 481 1516 510 1538 539 1624 c 1
 588 1611 l 1
 563 1488 505 1426 410 1426 c 0
 365 1426 322.215 1452.34 280 1479 c 0
 242 1503 204 1525 168 1525 c 0
 115 1525 88 1495 68 1427 c 1
 20 1437 l 1
 48 1558 94 1619 182 1619 c 0
 245 1619 290 1590 330 1562 c 0
 364.094 1538.13 398 1516 437 1516 c 0
EndSplineSet
EndChar

StartChar: itilde
Encoding: 297 297 62
Width: 568
VWidth: 2047
Flags: HW
HStem: 2 55<69 202.312 366.361 500> 888 55<68 189.073 189.073 187.428 187.428 206.185 363.056 500> 1043 90<361.3 469.2> 1142 94<74.1 189.8>
VStem: -5 568<1054 1228> 208 153<64.1946 883.225>
LayerCount: 2
Fore
SplineSet
361 824 m 2
 361 134 l 2
 361 89 385 57 448 57 c 2
 490 57 l 2
 497 57 503 53 503 45 c 2
 503 2 l 1
 500 -2 l 1
 500 -2 362 2 299 2 c 0
 242 2 69 -2 69 -2 c 1
 66 2 l 1
 66 45 l 2
 66 53 71 57 79 57 c 2
 121 57 l 2
 186 57 208 94 208 134 c 2
 208 824 l 2
 208 869 184 888 121 888 c 2
 79 888 l 2
 72 888 65 890 65 898 c 2
 65 943 l 1
 68 947 l 1
 68 947 231 943 294 943 c 0
 351 943 500 947 500 947 c 1
 503 943 l 1
 503 900 l 2
 503 892 498 888 490 888 c 2
 448 888 l 2
 383 888 361 865 361 824 c 2
412 1133 m 0
 456 1133 485 1155 514 1241 c 1
 563 1228 l 1
 538 1105 480 1043 385 1043 c 0
 340 1043 297.215 1069.34 255 1096 c 0
 217 1120 179 1142 143 1142 c 0
 90 1142 63 1112 43 1044 c 1
 -5 1054 l 1
 23 1175 69 1236 157 1236 c 0
 220 1236 265 1207 305 1179 c 0
 339.094 1155.13 373 1133 412 1133 c 0
EndSplineSet
EndChar

StartChar: Imacron
Encoding: 298 298 63
Width: 601
VWidth: 2047
Flags: HW
HStem: -2 59<40 204.943 393.94 562> 1265 59<39 207.06 396.057 561> 1501 90<39 577.8>
VStem: 218 165<68.5488 1253.13>
LayerCount: 2
Fore
SplineSet
383 1175 m 2
 383 146 l 2
 383 83 414 57 495 57 c 2
 549 57 l 2
 558 57 566 51 566 40 c 2
 566 2 l 1
 562 -2 l 1
 562 -2 384 2 304 2 c 0
 231 2 40 -2 40 -2 c 1
 36 2 l 1
 36 40 l 2
 36 51 42 57 52 57 c 2
 106 57 l 2
 190 57 218 89 218 146 c 2
 218 1175 l 2
 218 1238 187 1265 106 1265 c 2
 52 1265 l 2
 43 1265 35 1271 35 1282 c 2
 35 1320 l 1
 39 1324 l 1
 39 1324 217 1320 297 1320 c 0
 370 1320 561 1324 561 1324 c 1
 565 1320 l 1
 565 1282 l 2
 565 1271 559 1265 549 1265 c 2
 495 1265 l 2
 411 1265 383 1232 383 1175 c 2
544 1501 m 2
 43 1501 l 2
 25 1501 18 1517 18 1531 c 0
 18 1555 39 1591 63 1591 c 2
 564 1591 l 2
 584 1591 592 1575 592 1561 c 0
 592 1537 570 1501 544 1501 c 2
EndSplineSet
EndChar

StartChar: imacron
Encoding: 299 299 64
Width: 568
VWidth: 2047
Flags: HW
HStem: 2 55<69 202.312 366.361 500> 888 55<68 189.073 189.073 187.428 187.428 206.185 363.056 500> 1043 90<13 551.8>
VStem: 208 153<64.1946 883.225>
LayerCount: 2
Fore
SplineSet
361 824 m 2
 361 134 l 2
 361 89 385 57 448 57 c 2
 490 57 l 2
 497 57 503 53 503 45 c 2
 503 2 l 1
 500 -2 l 1
 500 -2 362 2 299 2 c 0
 242 2 69 -2 69 -2 c 1
 66 2 l 1
 66 45 l 2
 66 53 71 57 79 57 c 2
 121 57 l 2
 186 57 208 94 208 134 c 2
 208 824 l 2
 208 869 184 888 121 888 c 2
 79 888 l 2
 72 888 65 890 65 898 c 2
 65 943 l 1
 68 947 l 1
 68 947 231 943 294 943 c 0
 351 943 500 947 500 947 c 1
 503 943 l 1
 503 900 l 2
 503 892 498 888 490 888 c 2
 448 888 l 2
 383 888 361 865 361 824 c 2
518 1043 m 2
 17 1043 l 2
 -1 1043 -8 1059 -8 1073 c 0
 -8 1097 13 1133 37 1133 c 2
 538 1133 l 2
 558 1133 566 1117 566 1103 c 0
 566 1079 544 1043 518 1043 c 2
EndSplineSet
EndChar

StartChar: Ibreve
Encoding: 300 300 65
Width: 601
VWidth: 2047
Flags: HW
HStem: -2 59<40 204.943 393.94 562> 1265 59<39 207.06 396.057 561> 1417 107<163.3 435> 1629 20<26 83 525 580>
VStem: 26 554<1551.82 1649 1649 1649> 218 165<68.5488 1253.13>
LayerCount: 2
Fore
SplineSet
383 1175 m 2
 383 146 l 2
 383 83 414 57 495 57 c 2
 549 57 l 2
 558 57 566 51 566 40 c 2
 566 2 l 1
 562 -2 l 1
 562 -2 384 2 304 2 c 0
 231 2 40 -2 40 -2 c 1
 36 2 l 1
 36 40 l 2
 36 51 42 57 52 57 c 2
 106 57 l 2
 190 57 218 89 218 146 c 2
 218 1175 l 2
 218 1238 187 1265 106 1265 c 2
 52 1265 l 2
 43 1265 35 1271 35 1282 c 2
 35 1320 l 1
 39 1324 l 1
 39 1324 217 1320 297 1320 c 0
 370 1320 561 1324 561 1324 c 1
 565 1320 l 1
 565 1282 l 2
 565 1271 559 1265 549 1265 c 2
 495 1265 l 2
 411 1265 383 1232 383 1175 c 2
580 1649 m 1
 568 1503 439 1417 305 1417 c 0
 154 1417 37 1506 26 1649 c 1
 83 1649 l 1
 100 1569 196 1524 305 1524 c 0
 405 1524 511 1569 525 1649 c 1
 580 1649 l 1
EndSplineSet
EndChar

StartChar: ibreve
Encoding: 301 301 66
Width: 568
VWidth: 2047
Flags: HW
HStem: 2 55<69 202.312 366.361 500> 888 55<68 189.073 189.073 187.428 187.428 206.185 363.056 500> 1043 117<119.3 402.7>
VStem: 2.5 55<1206.33 1342.71> 208 153<64.1946 883.225> 501.5 54<1209.09 1348>
LayerCount: 2
Fore
SplineSet
361 824 m 2
 361 134 l 2
 361 89 385 57 448 57 c 2
 490 57 l 2
 497 57 503 53 503 45 c 2
 503 2 l 1
 500 -2 l 1
 500 -2 362 2 299 2 c 0
 242 2 69 -2 69 -2 c 1
 66 2 l 1
 66 45 l 2
 66 53 71 57 79 57 c 2
 121 57 l 2
 186 57 208 94 208 134 c 2
 208 824 l 2
 208 869 184 888 121 888 c 2
 79 888 l 2
 72 888 65 890 65 898 c 2
 65 943 l 1
 68 947 l 1
 68 947 231 943 294 943 c 0
 351 943 500 947 500 947 c 1
 503 943 l 1
 503 900 l 2
 503 892 498 888 490 888 c 2
 448 888 l 2
 383 888 361 865 361 824 c 2
57.5 1348 m 1
 61.5 1243 156.5 1160 280.5 1160 c 0
 374.5 1160 496.5 1221 501.5 1348 c 1
 555.5 1320 l 1
 535.5 1114 382.5 1043 280.5 1043 c 0
 121.5 1043 17.5 1161 2.5 1320 c 1
 57.5 1348 l 1
EndSplineSet
EndChar

StartChar: Iogonek
Encoding: 302 302 67
Width: 601
VWidth: 2047
Flags: HW
HStem: -461 81<308.979 493.745> -2 52<418.478 518> -2 59<40 204.943 393.94 562> 1265 59<39 207.06 396.057 561>
VStem: 162 123<-356.321 -154.569> 218 165<68.5488 1253.13>
LayerCount: 2
Fore
SplineSet
353 -461 m 0
 243 -461 162 -398 162 -286 c 0
 162 -187.276 246.301 -66.5132 372.776 1.44471 c 1
 346.84 1.78065 322.733 1.99998 304 2 c 0
 231 2 40 -2 40 -2 c 1
 36 2 l 1
 36 40 l 2
 36 51 42 57 52 57 c 2
 106 57 l 2
 190 57 218 89 218 146 c 2
 218 1175 l 2
 218 1238 187 1265 106 1265 c 2
 52 1265 l 2
 43 1265 35 1271 35 1282 c 2
 35 1320 l 1
 39 1324 l 1
 39 1324 217 1320 297 1320 c 0
 370 1320 561 1324 561 1324 c 1
 565 1320 l 1
 565 1282 l 2
 565 1271 559 1265 549 1265 c 2
 495 1265 l 2
 411 1265 383 1232 383 1175 c 2
 383 146 l 2
 383 83 414 57 495 57 c 2
 549 57 l 2
 558 57 566 51 566 40 c 2
 566 2 l 1
 562 -2 l 1
 560.981 -1.97726 l 1
 561 -2 l 1
 397 -2 285 -155 285 -261 c 0
 285 -326 330 -380 404 -380 c 0
 465 -380 507 -350 547 -308 c 1
 578 -324 l 1
 529 -420 426 -461 353 -461 c 0
EndSplineSet
EndChar

StartChar: iogonek
Encoding: 303 303 68
Width: 568
VWidth: 2047
Flags: HW
HStem: -459 81<215.979 400.585> 0 52<325.367 425> 2 55<69 202.312 366.361 500> 888 55<68 189.073 189.073 187.428 187.428 206.185 363.056 500>
VStem: 69 123<-354.321 -152.569> 208 153<64.1946 883.225>
LayerCount: 2
Fore
SplineSet
260 -459 m 0
 150 -459 69 -396 69 -284 c 0
 69 -186.034 152.011 -66.3658 276.871 1.87047 c 1
 206.695 1.18372 69 -1.99998 69 -2 c 1
 66 2 l 1
 66 45 l 2
 66 53 71 57 79 57 c 2
 121 57 l 2
 186 57 208 94 208 134 c 2
 208 824 l 2
 208 869 184 888 121 888 c 2
 79 888 l 2
 72 888 65 890 65 898 c 2
 65 943 l 1
 68 947 l 1
 68 947 231 943 294 943 c 0
 351 943 500 947 500 947 c 1
 503 943 l 1
 503 900 l 2
 503 892 498 888 490 888 c 2
 448 888 l 2
 383 888 361 865 361 824 c 2
 361 134 l 2
 361 89 385 57 448 57 c 2
 490 57 l 2
 497 57 503 53 503 45 c 2
 503 2 l 1
 500 -2 l 1
 500 -2 478.967 -1.39035 449.575 -0.64701 c 0
 295.449 -11.5169 192 -157.013 192 -259 c 0
 192 -324 237 -378 311 -378 c 0
 372 -378 414 -348.5 453.5 -306 c 1
 484.5 -321.5 l 1
 436 -418 332.59 -459 260 -459 c 0
EndSplineSet
EndChar

StartChar: Idotaccent
Encoding: 304 304 69
Width: 601
VWidth: 2047
Flags: HW
HStem: -2 59<40 204.943 393.94 562> 1265 59<39 207.06 396.057 561> 1439 196<229.8 370.2>
VStem: 202 196<1466.8 1607.2> 218 165<68.5488 1253.13>
LayerCount: 2
Fore
SplineSet
383 1175 m 2
 383 146 l 2
 383 83 414 57 495 57 c 2
 549 57 l 2
 558 57 566 51 566 40 c 2
 566 2 l 1
 562 -2 l 1
 562 -2 384 2 304 2 c 0
 231 2 40 -2 40 -2 c 1
 36 2 l 1
 36 40 l 2
 36 51 42 57 52 57 c 2
 106 57 l 2
 190 57 218 89 218 146 c 2
 218 1175 l 2
 218 1238 187 1265 106 1265 c 2
 52 1265 l 2
 43 1265 35 1271 35 1282 c 2
 35 1320 l 1
 39 1324 l 1
 39 1324 217 1320 297 1320 c 0
 370 1320 561 1324 561 1324 c 1
 565 1320 l 1
 565 1282 l 2
 565 1271 559 1265 549 1265 c 2
 495 1265 l 2
 411 1265 383 1232 383 1175 c 2
202 1537 m 0
 202 1591 246 1635 300 1635 c 0
 354 1635 398 1591 398 1537 c 0
 398 1483 354 1439 300 1439 c 0
 246 1439 202 1483 202 1537 c 0
EndSplineSet
EndChar

StartChar: afii10057
Encoding: 1032 1032 70
Width: 760
VWidth: 2047
Flags: HW
HStem: -25 64<234.8 423.3> 1265 55<192.492 385.3 599 734.112>
VStem: 406 165<104.7 1207>
LayerCount: 2
Fore
SplineSet
292 39 m 0
 393 39 406 162 406 353 c 2
 406 1144 l 2
 406 1207 361 1265 280 1265 c 2
 206 1265 l 2
 197 1265 189 1271 189 1282 c 2
 189 1320 l 1
 193 1324 l 1
 193 1324 405 1320 485 1320 c 0
 558 1320 729 1324 729 1324 c 1
 733 1320 l 1
 733 1282 l 2
 733 1271 727 1265 717 1265 c 2
 683 1265 l 2
 599 1265 571 1233 571 1176 c 2
 571 398 l 2
 571 32 422 -25 293 -25 c 0
 224 -25 80 -4 80 105 c 0
 80 155 116 177 147 177 c 0
 204 177 226.375 125.472 230 101 c 0
 234 74 248 39 292 39 c 0
EndSplineSet
EndChar

StartChar: afii10061
Encoding: 1036 1036 71
Width: 1233
VWidth: 2047
Flags: HW
HStem: -2 59<1085 1193> 2 55<34.8876 190 389.7 562.508> 661 88<367 537.371> 1208 126<873.2 1028> 1265 55<38.4916 211.3 411 566.112> 1431 250<619 874>
VStem: 218 165<89 1249.1> 367 830<40 661> 589 413<1461 1574>
LayerCount: 2
Fore
SplineSet
1193 -2 m 1
 1045 0 l 2
 881.03 2.21582 816 144 727.881 367.5 c 0
 646.961 572.739 610.646 657.183 383 660.873 c 1
 383 146 l 2
 383 83 414 57 495 57 c 2
 549 57 l 2
 558 57 566 51 566 40 c 2
 566 2 l 1
 562 -2 l 1
 562 -2 384 2 304 2 c 0
 231 2 40 -2 40 -2 c 1
 36 2 l 1
 36 40 l 2
 36 51 42 57 52 57 c 2
 106 57 l 2
 190 57 218 89 218 146 c 2
 218 1175 l 2
 218 1238 187 1265 106 1265 c 2
 52 1265 l 2
 43 1265 35 1271 35 1282 c 2
 35 1320 l 1
 39 1324 l 1
 39 1324 217 1320 297 1320 c 0
 370 1320 561 1324 561 1324 c 1
 565 1320 l 1
 565 1282 l 2
 565 1271 559 1265 549 1265 c 2
 495 1265 l 2
 411 1265 383 1232 383 1175 c 2
 383 749.03 l 1
 455.916 749.333 547.537 752.475 598 780 c 0
 719 846 742.099 999.26 758.838 1114.67 c 0
 776.001 1233 884 1334 1028 1334 c 0
 1136 1334 1173.5 1278.5 1173.5 1230.5 c 0
 1173.5 1180.5 1126.5 1143.5 1083.5 1143.5 c 0
 1056.92 1143.5 1026 1154 1008 1172 c 0
 987.16 1192.84 960.41 1208 933 1208 c 0
 887 1208 844.29 1150.87 834 1091 c 0
 812 963 776 754 612 702 c 1
 753 702 796.087 607.189 849.839 483 c 0
 968 210 1085 57 1159 57 c 2
 1180 57 l 2
 1189 57 1197 51 1197 40 c 2
 1197 2 l 1
 1193 -2 l 1
874 1681 m 1
 1002 1574 l 1
 707 1455 l 2
 662.714 1437.14 636.5 1431 619 1431 c 0
 600.5 1431 589 1441.5 589 1461 c 0
 589 1475 594.307 1486.08 620 1504 c 2
 874 1681 l 1
EndSplineSet
LCarets2: 1 0 
EndChar

StartChar: uni040D
Encoding: 1037 1037 72
Width: 1435
VWidth: 2047
Flags: HW
HStem: 3 54<34.8876 190 388.4 561.575 868.888 1024 1223.7 1396.51> 1265 53<39.4246 212.6 411 566.112 872.492 1045.3 1245 1400.11> 1431 246<610.5 859.5>
VStem: 218 165<84 159 274 1240> 454.5 435<1461 1583> 1052 165<83 1034 1149 1250.1>
LayerCount: 2
Fore
SplineSet
1217 1176 m 2
 1217 146 l 2
 1217 83 1248 57 1329 57 c 2
 1383 57 l 2
 1392 57 1400 51 1400 40 c 2
 1400 2 l 1
 1396 -2 l 1
 1396 -2 1218 3 1138 3 c 0
 1065 3 874 -2 874 -2 c 1
 870 2 l 1
 870 40 l 2
 870 51 876 57 886 57 c 2
 940 57 l 2
 1024 57 1052 89 1052 146 c 2
 1052 1034 l 1
 383 159 l 1
 383 147 l 2
 383 84 413 57 495 57 c 2
 549 57 l 2
 557 57 565 51 565 40 c 2
 565 2 l 1
 561 -2 l 1
 561 -2 384 3 304 3 c 0
 232 3 40 -2 40 -2 c 1
 36 2 l 1
 36 40 l 2
 36 51 42 57 52 57 c 2
 106 57 l 2
 190 57 218 90 218 147 c 2
 218 1177 l 2
 218 1240 188 1265 106 1265 c 2
 52 1265 l 2
 44 1265 36 1271 36 1282 c 2
 36 1320 l 1
 40 1324 l 1
 40 1324 218 1318 298 1318 c 0
 370 1318 561 1324 561 1324 c 1
 565 1320 l 1
 565 1282 l 2
 565 1271 559 1265 549 1265 c 2
 495 1265 l 2
 411 1265 383 1234 383 1177 c 2
 383 274 l 1
 1052 1149 l 1
 1052 1176 l 2
 1052 1239 1021 1265 940 1265 c 2
 886 1265 l 2
 877 1265 869 1271 869 1282 c 2
 869 1320 l 1
 873 1324 l 1
 873 1324 1051 1319 1131 1319 c 0
 1204 1319 1395 1325 1395 1325 c 1
 1399 1321 l 1
 1399 1283 l 2
 1399 1272 1393 1266 1383 1266 c 2
 1329 1266 l 2
 1245 1266 1217 1233 1217 1176 c 2
610.5 1677 m 1
 858.5 1504 l 2
 880.5 1488 889.5 1475 889.5 1461 c 0
 889.5 1440.5 878.5 1431 859.5 1431 c 0
 841.5 1431 814.921 1437.47 771.5 1455 c 2
 454.5 1583 l 1
 610.5 1677 l 1
EndSplineSet
LCarets2: 1 0 
EndChar

StartChar: afii10062
Encoding: 1038 1038 73
Width: 1189
VWidth: 2047
Flags: HW
HStem: -46 127<316 484.5> 1265 55<-0.837511 150 350 483.105 800.274 950.625 1043.97 1189.4> 1427 63<547.5 724.3>
VStem: 383.5 510<1437.6 1630 1576 1578>
LayerCount: 2
Fore
SplineSet
400 81 m 0
 465 81 517 125 580 278 c 1
 180.828 1144 l 2
 161.363 1186.23 120 1265 20 1265 c 0
 8 1265 0 1272 0 1281 c 2
 0 1320 l 1
 3 1324 l 1
 3 1324 131 1320 215 1320 c 0
 317 1320 482 1324 482 1324 c 1
 486 1320.17 l 1
 486 1282 l 2
 486 1272 480.667 1265 472 1265 c 2
 394 1265 l 2
 350 1265 336 1254 336 1233 c 0
 336 1219 340.057 1200.44 349 1178 c 2
 671 468 l 1
 938 1178 l 2
 948 1202 952 1219 952 1231 c 0
 952 1260 926.333 1265 871 1265 c 2
 810 1265 l 2
 803 1265 798 1271.5 798 1281 c 2
 798 1320.17 l 1
 801 1324 l 1
 801 1324 935 1320 1022 1320 c 0
 1087 1320 1186 1324 1186 1324 c 1
 1189 1320.17 l 1
 1189 1282 l 2
 1189 1269 1176 1265 1168 1265 c 0
 1072.59 1265 1053.06 1241.23 1021.19 1159 c 2
 700 330 l 2
 613 106 500 -46 316 -46 c 0
 229 -46 136 2 136 68 c 0
 136 125 165 162 231 162 c 0
 260 162 306 147 325 123 c 0
 340.026 104.02 370 81 400 81 c 0
893.5 1586 m 0
 893.5 1478 766.5 1427 636.5 1427 c 0
 501.5 1427 383.5 1476 383.5 1584 c 0
 383.5 1629 407.5 1647 462.5 1647 c 0
 506.225 1647 527.097 1613.56 527.097 1582.88 c 0
 527.097 1579.88 526.896 1576.91 526.5 1574 c 0
 526.161 1571.51 525.994 1569.04 525.994 1566.59 c 0
 525.994 1525.61 572.455 1490 638.5 1490 c 0
 700.558 1490 751.122 1519.18 751.122 1565.06 c 0
 751.122 1567.97 750.918 1570.95 750.5 1574 c 0
 750.077 1577.09 749.857 1580.28 749.857 1583.51 c 0
 749.857 1613.37 768.479 1647 814.5 1647 c 0
 869.5 1647 893.5 1626 893.5 1586 c 0
EndSplineSet
LCarets2: 1 0 
EndChar

StartChar: afii10020
Encoding: 1043 1043 74
Width: 987
VWidth: 2047
Flags: HW
HStem: 2 55<24.4391 177 375.8 552.163> 1240 80<402 902.2> 1265 55<28.1306 290>
VStem: 208 165<90 1243.2>
LayerCount: 2
Fore
SplineSet
702 1240 m 2
 447 1240 l 2
 402 1240 373 1227 373 1173 c 2
 373 147 l 2
 373 90 401 57 485 57 c 2
 539 57 l 2
 549 57 555 51 555 40 c 2
 555 2 l 1
 551 -2 l 1
 551 -2 360 2 287 2 c 0
 207 2 29 -2 29 -2 c 1
 25 2 l 1
 25 40 l 2
 25 51 33 57 42 57 c 2
 96 57 l 2
 177 57 208 84 208 147 c 2
 208 1173 l 2
 208 1245 189 1265 102 1265 c 2
 41 1265 l 2
 32 1265 25 1271 25 1281 c 2
 25 1320 l 1
 29 1324 l 1
 29 1324 264 1320 290 1320 c 2
 449 1320 l 1
 954 1320 l 1
 963 1211 980 1088 996 1004 c 1
 936 994 l 1
 892 1135 856 1240 702 1240 c 2
EndSplineSet
EndChar

StartChar: afii10021
Encoding: 1044 1044 75
Width: 1342
VWidth: 2047
Flags: HW
HStem: 0 57<956 1198> 0 80<371 925> 1263 59<309.882 452.029 1127 1265.63>
VStem: 951 165<64.8 1222>
LayerCount: 2
Fore
SplineSet
229 97 m 0
 278 154 320 296 384.385 616.155 c 0
 431.415 850.015 454.917 1060 454.917 1190.08 c 0
 454.917 1240.03 435.868 1263 382 1263 c 2
 321 1263 l 2
 312 1263 306 1272 306 1281 c 2
 306 1304 l 2
 306 1313 317 1322 331 1322 c 2
 1257 1322 l 2
 1263 1322 1268 1314 1268 1309 c 2
 1268 1280 l 2
 1268 1268 1260 1263 1252 1263 c 2
 1191 1263 l 2
 1127 1263 1116 1230 1116 1158 c 2
 1116 160 l 2
 1116 84 1163 57 1198 57 c 0
 1243.65 57 1258.93 40.9541 1260 16 c 2
 1273 -288 l 1
 1218 -288 1218 -288 1218 -288 c 1
 1194 -175 1120 0 956 0 c 2
 371 0 l 2
 200 0 148 -183 125 -288 c 1
 70 -288 l 1
 83 16 l 2
 84.0244 39.9561 105.667 57 126 57 c 0
 168.5 57 195.119 57.5879 229 97 c 0
874 1239 m 2
 621 1239 l 2
 566 1239 544.019 1211 540 1159 c 0
 524 952 494.41 740.269 468 600 c 0
 423 361 373 158 373 114 c 0
 373 91 399 80 429 80 c 2
 876 80 l 2
 925 80 951 87 951 161 c 2
 951 1160 l 2
 951 1222 938 1239 874 1239 c 2
EndSplineSet
EndChar

StartChar: afii10024
Encoding: 1046 1046 76
Width: 1753
VWidth: 2047
Flags: HW
HStem: -2 59<50 153.816 616 780.943 969.94 1138 1599.18 1703> 661 88<700.537 794 959 1052.46> 1208 126<153.113 337.617 1415.38 1599.89> 1265 59<615 783.06 972.057 1137>
VStem: 794 165<68.5488 1253.13>
LayerCount: 2
Fore
SplineSet
1703 -2 m 1
 1569 0 l 2
 1422 2.19399 1363.28 144.098 1284 368 c 0
 1210 577 1177 661 959 661 c 1
 959 146 l 2
 959 83 990 57 1071 57 c 2
 1125 57 l 2
 1134 57 1142 51 1142 40 c 2
 1142 2 l 1
 1138 -2 l 1
 1138 -2 960 2 880 2 c 0
 807 2 616 -2 616 -2 c 1
 612 2 l 1
 612 40 l 2
 612 51 618 57 628 57 c 2
 682 57 l 2
 766 57 794 89 794 146 c 2
 794 661 l 1
 576 661 543 577 469 368 c 0
 389.724 144.098 330.997 2.19399 184 0 c 2
 50 -2 l 1
 47 2 l 1
 47 40 l 2
 47 51 54 57 62 57 c 2
 81 57 l 2
 148 57 251.373 210.637 359 483 c 0
 408 607 446 702 573 702 c 1
 426 754 393 963 373 1091 c 0
 363.634 1150.94 326 1208 284 1208 c 0
 260 1208 236 1193 217 1172 c 0
 200.842 1154.14 173 1144 149 1144 c 0
 110 1144 68 1180 68 1230 c 0
 68 1278 102 1334 199 1334 c 0
 328 1334 425.746 1232.97 441 1115 c 0
 456 999 477.163 846.268 586 780 c 0
 635.073 750.121 726 749 794 749 c 1
 794 1175 l 2
 794 1238 763 1265 682 1265 c 2
 628 1265 l 2
 619 1265 611 1271 611 1282 c 2
 611 1320 l 1
 615 1324 l 1
 615 1324 793 1320 873 1320 c 0
 946 1320 1137 1324 1137 1324 c 1
 1141 1320 l 1
 1141 1282 l 2
 1141 1271 1135 1265 1125 1265 c 2
 1071 1265 l 2
 987 1265 959 1232 959 1175 c 2
 959 749 l 1
 1027 749 1117.93 750.121 1167 780 c 0
 1275.84 846.268 1297 999 1312 1115 c 0
 1327.25 1232.97 1425 1334 1554 1334 c 0
 1651 1334 1685 1278 1685 1230 c 0
 1685 1180 1643 1144 1604 1144 c 0
 1580 1144 1552.16 1154.14 1536 1172 c 0
 1517 1193 1493 1208 1469 1208 c 0
 1427 1208 1389.37 1150.94 1380 1091 c 0
 1360 963 1327 754 1180 702 c 1
 1307 702 1345 607 1394 483 c 0
 1501.63 210.637 1605 57 1672 57 c 2
 1691 57 l 2
 1699 57 1706 51 1706 40 c 2
 1706 2 l 1
 1703 -2 l 1
EndSplineSet
EndChar

StartChar: afii10025
Encoding: 1047 1047 77
Width: 1112
VWidth: 2047
Flags: HW
HStem: -25 76<305.5 695.5> 689 75<338 774.5> 1278 69<353.8 673.8>
VStem: 768 164<890.4 1214.1> 830 187<73.7 494.9>
LayerCount: 2
Fore
SplineSet
507 51 m 0
 652 51 830 140 830 361 c 0
 830 464 750 689 510 689 c 2
 361 689 l 2
 338 689 323 702 323 725 c 0
 323 748.5 338 764 361 764 c 2
 456 764 l 2
 701 764 768 924 768 1036 c 0
 768 1173 636 1278 510 1278 c 0
 258 1278 210 1126 162 960 c 1
 101 965 l 1
 142 1322 l 1
 320 1322 391 1347 515 1347 c 0
 704 1347 932 1252 932 1056 c 0
 932 894 843 792 697 738 c 1
 842 696 1017 613 1017 394 c 0
 1017 84 744 -25 502 -25 c 0
 336 -25 236 39.0001 172 89 c 0
 117.176 131.831 74 186.704 74 242 c 0
 74 295 96 337 143 337 c 0
 201 337 221.512 311.928 244 245 c 0
 286 120 352 51 507 51 c 0
EndSplineSet
EndChar

StartChar: afii10026
Encoding: 1048 1048 78
Width: 1435
VWidth: 2047
Flags: HW
HStem: 3 54<34.8876 190 388.4 561.575 868.888 1024 1223.7 1396.51> 1265 53<39.4246 212.6 411 566.112 872.492 1045.3 1245 1400.11>
VStem: 218 165<84 159 274 1240> 1052 165<83 1034 1149 1250.1>
LayerCount: 2
Fore
SplineSet
1217 1176 m 2
 1217 146 l 2
 1217 83 1248 57 1329 57 c 2
 1383 57 l 2
 1392 57 1400 51 1400 40 c 2
 1400 2 l 1
 1396 -2 l 1
 1396 -2 1218 3 1138 3 c 0
 1065 3 874 -2 874 -2 c 1
 870 2 l 1
 870 40 l 2
 870 51 876 57 886 57 c 2
 940 57 l 2
 1024 57 1052 89 1052 146 c 2
 1052 1034 l 1
 383 159 l 1
 383 147 l 2
 383 84 413 57 495 57 c 2
 549 57 l 2
 557 57 565 51 565 40 c 2
 565 2 l 1
 561 -2 l 1
 561 -2 384 3 304 3 c 0
 232 3 40 -2 40 -2 c 1
 36 2 l 1
 36 40 l 2
 36 51 42 57 52 57 c 2
 106 57 l 2
 190 57 218 90 218 147 c 2
 218 1177 l 2
 218 1240 188 1265 106 1265 c 2
 52 1265 l 2
 44 1265 36 1271 36 1282 c 2
 36 1320 l 1
 40 1324 l 1
 40 1324 218 1318 298 1318 c 0
 370 1318 561 1324 561 1324 c 1
 565 1320 l 1
 565 1282 l 2
 565 1271 559 1265 549 1265 c 2
 495 1265 l 2
 411 1265 383 1234 383 1177 c 2
 383 274 l 1
 1052 1149 l 1
 1052 1176 l 2
 1052 1239 1021 1265 940 1265 c 2
 886 1265 l 2
 877 1265 869 1271 869 1282 c 2
 869 1320 l 1
 873 1324 l 1
 873 1324 1051 1319 1131 1319 c 0
 1204 1319 1395 1325 1395 1325 c 1
 1399 1321 l 1
 1399 1283 l 2
 1399 1272 1393 1266 1383 1266 c 2
 1329 1266 l 2
 1245 1266 1217 1233 1217 1176 c 2
EndSplineSet
EndChar

StartChar: afii10027
Encoding: 1049 1049 79
Width: 1435
VWidth: 2047
Flags: HW
HStem: 3 54<34.8876 190 388.4 561.575 868.888 1024 1223.7 1396.51> 1265 53<39.4246 212.6 411 566.112 872.492 1045.3 1245 1400.11> 1427 63<631.641 798.175>
VStem: 218 165<84 159 274 1240> 462.5 143.597<1513.32 1622.76> 828.857 143.643<1505.42 1622.33> 1052 165<83 1034 1149 1250.1>
LayerCount: 2
Fore
SplineSet
1217 1176 m 2
 1217 146 l 2
 1217 83 1248 57 1329 57 c 2
 1383 57 l 2
 1392 57 1400 51 1400 40 c 2
 1400 2 l 1
 1396 -2 l 1
 1396 -2 1218 3 1138 3 c 0
 1065 3 874 -2 874 -2 c 1
 870 2 l 1
 870 40 l 2
 870 51 876 57 886 57 c 2
 940 57 l 2
 1024 57 1052 89 1052 146 c 2
 1052 1034 l 1
 383 159 l 1
 383 147 l 2
 383 84 413 57 495 57 c 2
 549 57 l 2
 557 57 565 51 565 40 c 2
 565 2 l 1
 561 -2 l 1
 561 -2 384 3 304 3 c 0
 232 3 40 -2 40 -2 c 1
 36 2 l 1
 36 40 l 2
 36 51 42 57 52 57 c 2
 106 57 l 2
 190 57 218 90 218 147 c 2
 218 1177 l 2
 218 1240 188 1265 106 1265 c 2
 52 1265 l 2
 44 1265 36 1271 36 1282 c 2
 36 1320 l 1
 40 1324 l 1
 40 1324 218 1318 298 1318 c 0
 370 1318 561 1324 561 1324 c 1
 565 1320 l 1
 565 1282 l 2
 565 1271 559 1265 549 1265 c 2
 495 1265 l 2
 411 1265 383 1234 383 1177 c 2
 383 274 l 1
 1052 1149 l 1
 1052 1176 l 2
 1052 1239 1021 1265 940 1265 c 2
 886 1265 l 2
 877 1265 869 1271 869 1282 c 2
 869 1320 l 1
 873 1324 l 1
 873 1324 1051 1319 1131 1319 c 0
 1204 1319 1395 1325 1395 1325 c 1
 1399 1321 l 1
 1399 1283 l 2
 1399 1272 1393 1266 1383 1266 c 2
 1329 1266 l 2
 1245 1266 1217 1233 1217 1176 c 2
972.5 1586 m 0
 972.5 1478 845.5 1427 715.5 1427 c 0
 580.5 1427 462.5 1476 462.5 1584 c 0
 462.5 1629 486.5 1647 541.5 1647 c 0
 585.225 1647 606.097 1613.56 606.097 1582.88 c 0
 606.097 1579.88 605.896 1576.91 605.5 1574 c 0
 605.161 1571.51 604.994 1569.04 604.994 1566.59 c 0
 604.994 1525.61 651.455 1490 717.5 1490 c 0
 779.558 1490 830.122 1519.18 830.122 1565.06 c 0
 830.122 1567.97 829.918 1570.95 829.5 1574 c 0
 829.077 1577.09 828.857 1580.28 828.857 1583.51 c 0
 828.857 1613.37 847.479 1647 893.5 1647 c 0
 948.5 1647 972.5 1626 972.5 1586 c 0
EndSplineSet
LCarets2: 1 0 
EndChar

StartChar: afii10033
Encoding: 1055 1055 80
Width: 1367
VWidth: 999
Flags: HW
HStem: 2 55<33.8876 189 388.7 551.508 810.888 956 1155.7 1328.51> 1238 82<393 993.5> 1265 57<38 196.5 1198 1327.8>
VStem: 217 165<90 1234.4> 984 165<72.9 1204>
LayerCount: 2
Fore
SplineSet
984 147 m 2
 984 1147 l 2
 984 1204 974 1238 909 1238 c 2
 456 1238 l 2
 393 1238 382 1214 382 1146 c 2
 382 147 l 2
 382 84 413 57 494 57 c 2
 538 57 l 2
 547 57 555 51 555 40 c 2
 555 2 l 1
 551 -2 l 1
 551 -2 383 2 303 2 c 0
 230 2 39 -2 39 -2 c 1
 35 2 l 1
 35 40 l 2
 35 51 41 57 51 57 c 2
 105 57 l 2
 189 57 217 90 217 147 c 2
 217 1175 l 2
 217 1251 177 1265 112 1265 c 2
 51 1265 l 2
 38 1265 35 1274 35 1281 c 2
 35 1320 l 1
 39 1324 l 1
 167 1324 39 1320 677 1320 c 0
 1328 1320 1198 1324 1328 1324 c 1
 1332 1320 l 1
 1332 1282 l 2
 1332 1274 1325 1265 1315 1265 c 2
 1255 1265 l 2
 1198 1264 1149 1238 1149 1175 c 2
 1149 147 l 2
 1149 84 1180 57 1261 57 c 2
 1315 57 l 2
 1324 57 1332 51 1332 40 c 2
 1332 2 l 1
 1328 -2 l 1
 1328 -2 1150 2 1070 2 c 0
 997 2 816 -2 816 -2 c 1
 812 2 l 1
 812 40 l 2
 812 51 818 57 828 57 c 2
 872 57 l 2
 956 57 984 90 984 147 c 2
EndSplineSet
EndChar

StartChar: afii10034
Encoding: 1056 1056 81
Width: 1068
VWidth: 2047
Flags: HW
HStem: 2 55<33.8876 189 388.7 561.508> 577 68<415.514 788> 1268 50<35 176.648> 1269 70<464.656 734.6>
VStem: 217 165<71.9 598 655 1242> 843 175<770.1 1152.3>
LayerCount: 2
Fore
SplineSet
382 1175 m 2
 382 655 l 1
 405 650 478 645 528 645 c 0
 728 645 843 738 843 959 c 0
 843 1218 692 1269 550 1269 c 0
 404 1269 382 1235 382 1175 c 2
217 146 m 2
 217 1175 l 2
 217 1241 162 1265 126 1265 c 2
 48 1265 l 2
 39 1265 35 1270 35 1278 c 2
 35 1320 l 1
 39 1324 l 1
 39 1324 204 1320 298 1320 c 0
 360 1320 513 1339 566 1339 c 0
 945 1339 1018 1116 1018 995 c 0
 1018 822 912 577 539 577 c 0
 466 577 429 583 382 598 c 1
 382 146 l 2
 382 83 413 57 494 57 c 2
 548 57 l 2
 557 57 565 51 565 40 c 2
 565 2 l 1
 561 -2 l 1
 561 -2 383 2 303 2 c 0
 230 2 39 -2 39 -2 c 1
 35 2 l 1
 35 40 l 2
 35 51 41 57 51 57 c 2
 105 57 l 2
 189 57 217 89 217 146 c 2
EndSplineSet
EndChar

StartChar: afii10035
Encoding: 1057 1057 82
Width: 1319
VWidth: 2047
Flags: HW
HStem: -25 85<312.6 973> 1272 75<495.4 1055.3>
VStem: 75 178<295.3 1168.9>
LayerCount: 2
Fore
SplineSet
728 -25 m 0
 286 -25 75 316 75 645 c 0
 75 1048 390 1347 729 1347 c 0
 980 1347 1060 1262 1178 1255 c 1
 1184 1143 1203 1044 1223 939 c 1
 1161 929 l 1
 1108 1105 990 1272 706 1272 c 0
 544 1272 253 1100 253 684 c 0
 253 385 408 60 726 60 c 0
 916 60 1054 128 1200 286 c 1
 1247 256 l 1
 1108 74 925 -25 728 -25 c 0
EndSplineSet
EndChar

StartChar: afii10036
Encoding: 1058 1058 83
Width: 1183
VWidth: 2047
Flags: HW
HStem: 2 55<344.888 500 699.7 872.508> 1242 80<110.1 503 717 1068>
VStem: 528 165<90 1242.9> 1069 54<1332.81 1379>
LayerCount: 2
Fore
SplineSet
158 1322 m 2
 1025 1322 l 2
 1068 1322 1069 1358 1069 1371 c 1
 1123 1379 l 1
 1131 1278 1145 1172 1168 1063 c 1
 1107 1053 l 1
 1066 1216 1039 1242 926 1242 c 2
 791 1242 l 2
 717 1242 693 1224 693 1156 c 2
 693 147 l 2
 693 84 724 57 805 57 c 2
 859 57 l 2
 868 57 876 51 876 40 c 2
 876 2 l 1
 872 -2 l 1
 872 -2 693 2 613 2 c 0
 540 2 350 -2 350 -2 c 1
 346 2 l 1
 346 40 l 2
 346 51 352 57 362 57 c 2
 416 57 l 2
 500 57 528 90 528 147 c 2
 528 1161 l 2
 528 1224 503 1242 429 1242 c 2
 257 1242 l 2
 144 1242 117 1216 76 1053 c 1
 15 1063 l 1
 38 1172 52 1278 60 1379 c 1
 114 1371 l 1
 114 1358 115 1322 158 1322 c 2
EndSplineSet
EndChar

StartChar: afii10037
Encoding: 1059 1059 84
Width: 1189
VWidth: 2047
Flags: HW
HStem: -46 127<316 484.5> 1265 55<-0.837511 150 350 483.105 800.274 950.625 1043.97 1189.4>
LayerCount: 2
Fore
SplineSet
400 81 m 0
 465 81 517 125 580 278 c 1
 180.828 1144 l 2
 161.363 1186.23 120 1265 20 1265 c 0
 8 1265 0 1272 0 1281 c 2
 0 1320 l 1
 3 1324 l 1
 3 1324 131 1320 215 1320 c 0
 317 1320 482 1324 482 1324 c 1
 486 1320.17 l 1
 486 1282 l 2
 486 1272 480.667 1265 472 1265 c 2
 394 1265 l 2
 350 1265 336 1254 336 1233 c 0
 336 1219 340.057 1200.44 349 1178 c 2
 671 468 l 1
 938 1178 l 2
 948 1202 952 1219 952 1231 c 0
 952 1260 926.333 1265 871 1265 c 2
 810 1265 l 2
 803 1265 798 1271.5 798 1281 c 2
 798 1320.17 l 1
 801 1324 l 1
 801 1324 935 1320 1022 1320 c 0
 1087 1320 1186 1324 1186 1324 c 1
 1189 1320.17 l 1
 1189 1282 l 2
 1189 1269 1176 1265 1168 1265 c 0
 1072.59 1265 1053.06 1241.23 1021.19 1159 c 2
 700 330 l 2
 613 106 500 -46 316 -46 c 0
 229 -46 136 2 136 68 c 0
 136 125 165 162 231 162 c 0
 260 162 306 147 325 123 c 0
 340.026 104.02 370 81 400 81 c 0
EndSplineSet
EndChar

StartChar: afii10039
Encoding: 1061 1061 85
Width: 1343
VWidth: 2047
Flags: HW
HStem: -2 59<3.15305 186.6 1235.27 1332> 1265 59<383.94 495.682 884.197 1002.31 1163.14 1289>
LayerCount: 2
Fore
SplineSet
27 1279 m 2
 27 1320 l 1
 37 1324 l 1
 89 1322 221 1320 243 1320 c 0
 254 1320 426 1322 488 1324 c 1
 488 1324 496 1320 497 1320 c 1
 497 1280 l 2
 497 1270 494 1265 487 1265 c 2
 421 1265 l 2
 387 1265 375 1258 375 1244 c 0
 375 1227 391 1200 412 1172 c 2
 655 812 l 2
 666 796 673 789 680 789 c 0
 687 789 695 797 707 814 c 2
 971 1172 l 2
 992 1201 1002 1226 1002 1241 c 0
 1002 1259 987 1265 959 1265 c 2
 896 1265 l 1
 889 1266 882 1269 882 1279 c 2
 882 1320 l 1
 886 1324 l 1
 930 1323 1067 1320 1090 1320 c 0
 1100 1320 1253 1322 1289 1324 c 1
 1294 1320 l 1
 1294 1280 l 2
 1294 1273 1293 1265 1275 1265 c 0
 1150 1265 1105.34 1204.75 1050 1130 c 2
 782 768 l 2
 764 743 756 725 756 707 c 0
 756 686 768 665 789 638 c 2
 1103 208 l 2
 1160 130 1231 57 1320 57 c 0
 1331 57 1335 50 1335 42 c 2
 1335 2 l 1
 1332 -2 l 1
 1275 0 1141 2 1116 2 c 0
 1103 2 860 -2 860 -2 c 1
 853 2 l 1
 853 43 l 2
 853 52 859 57 866 57 c 2
 908 57 l 2
 956 57 974 64 974 80 c 0
 974 95 956.723 117.803 934 150 c 2
 663 534 l 2
 651 551 643 558 635 558 c 0
 628 558 617 544 605 528 c 2
 333 157 l 2
 315 132 306 111 306 95 c 0
 306 71 326 57 365 57 c 2
 404 57 l 2
 413 56 416 50 416 42 c 2
 416 2 l 1
 410 -2 l 1
 410 -2 210 2 180 2 c 0
 170 2 9 -2 9 -2 c 1
 6 2 l 1
 6 43 l 2
 6 54 17 57 28 57 c 0
 150 57 219.508 151.358 264 212 c 2
 545 595 l 2
 558 612 566 630 566 644 c 0
 566 664 555 681 536 705 c 2
 242 1124 l 2
 107.987 1314.99 27 1245 27 1279 c 2
EndSplineSet
EndChar

StartChar: afii10040
Encoding: 1062 1062 86
Width: 1310
VWidth: 999
Flags: HW
HStem: -2 59<40.4375 174> 5 70<369 962.9> 1265 59<39 196.05 367 501 801 968.073 1117.02 1258>
VStem: 188 165<60.5 1251> 948 165<90.7 1236>
LayerCount: 2
Fore
SplineSet
938 5 m 2
 938 5 754.454 5.9145 553.861 5.9145 c 0
 453.565 5.9145 349.007 5.68587 261 5 c 2
 40 -2 l 1
 35 2 l 1
 35 36 l 2
 35 48 43.5 57 53 57 c 2
 107 57 l 2
 174 59 188 72 188 153 c 2
 188 1171 l 2
 188 1251 175.5 1265 107 1265 c 2
 46 1265 l 2
 39 1265 35 1268 35 1275 c 2
 35 1320 l 1
 39 1324 l 1
 261 1320 l 1
 501 1324 l 1
 505 1320.33 l 1
 505 1276 l 2
 505 1269 501 1265 494 1265 c 2
 433 1265 l 2
 367 1265 353 1253 353 1171 c 2
 353 171 l 2
 353 86 369 75 433 75 c 2
 868 75 l 2
 941 75 948 105 948 171 c 2
 948 1171 l 2
 948 1236 944.979 1263.74 868 1265 c 2
 807 1265 l 2
 800 1265 796 1268 796 1275 c 2
 796 1319.5 l 1
 801 1324 l 1
 1021 1320 l 1
 1258 1324 l 1
 1264 1319.5 l 1
 1264 1276 l 2
 1264 1269 1260 1265 1252 1265 c 2
 1192 1265 l 2
 1117.02 1263.75 1113 1240 1113 1171 c 2
 1113 157 l 2
 1113 106 1146 57 1197.33 57 c 0
 1247.78 57 1256.23 33.9668 1257 16 c 2
 1270 -288 l 1
 1215 -288 l 1
 1185.5 -144 1096 4.21279 938 5 c 2
EndSplineSet
EndChar

StartChar: afii10041
Encoding: 1063 1063 87
Width: 1297
VWidth: 2047
Flags: HW
HStem: 2 55<735.888 891 1090.7 1263.51> 512 119<405.1 665.4> 1265 55<19.4916 192.3 392 547.112 739.492 912.3 1112 1267.11>
VStem: 199 165<687 1247.1> 919 165<83 649 727 1238>
LayerCount: 2
Fore
SplineSet
199 1173 m 2
 199 1236 168 1265 87 1265 c 2
 33 1265 l 2
 24 1265 16 1271 16 1282 c 2
 16 1320 l 1
 20 1324 l 1
 20 1324 198 1320 278 1320 c 0
 351 1320 542 1324 542 1324 c 1
 546 1320 l 1
 546 1282 l 2
 546 1271 540 1265 530 1265 c 2
 476 1265 l 2
 392 1265 364 1230 364 1173 c 2
 364 855 l 2
 364 687 449.5 631 597.5 631 c 0
 658.5 631 788 640 919 727 c 1
 919 1175 l 2
 919 1238 888 1265 807 1265 c 2
 753 1265 l 2
 744 1265 736 1271 736 1282 c 2
 736 1320 l 1
 740 1324 l 1
 740 1324 918 1320 998 1320 c 0
 1071 1320 1262 1324 1262 1324 c 1
 1266 1320 l 1
 1266 1282 l 2
 1266 1271 1260 1265 1250 1265 c 2
 1196 1265 l 2
 1112 1265 1084 1232 1084 1175 c 2
 1084 146 l 2
 1084 83 1115 57 1196 57 c 2
 1250 57 l 2
 1259 57 1267 51 1267 40 c 2
 1267 2 l 1
 1263 -2 l 1
 1263 -2 1085 2 1005 2 c 0
 932 2 741 -2 741 -2 c 1
 737 2 l 1
 737 40 l 2
 737 51 743 57 753 57 c 2
 807 57 l 2
 891 57 919 89 919 146 c 2
 919 649 l 1
 770 544 630 512 512 512 c 0
 278.5 512 199 674 199 877 c 2
 199 1173 l 2
EndSplineSet
EndChar

StartChar: afii10042
Encoding: 1064 1064 88
Width: 1972
VWidth: 999
Flags: HW
HStem: -2.16992 59.1699<69.25 206 1753.45 1904.49> 5 70<398.627 896 1054.9 1577> 1265 55<38.4916 211.3 411 561.112 727.492 895.3 1095 1245.11 1415.49 1583.3 1783 1938.11>
VStem: 218 165<90.3013 1232> 902 165<90.4 1232> 1590 165<90 1249.1>
LayerCount: 2
Fore
SplineSet
1755 1175 m 2
 1755 143 l 2
 1755 72 1772.5 57 1836 57 c 2
 1897 57 l 2
 1904 57 1908 54 1908 47 c 2
 1908 2 l 1
 1904.49 -2.16992 l 1
 1669 5 l 1
 368 5 l 1
 69.25 -2 l 1
 65 2.25 l 1
 65 47 l 2
 65 54 69 57 76 57 c 2
 137 57 l 2
 206 59 218 73 218 153 c 2
 218 1175 l 2
 218 1238 187 1265 106 1265 c 2
 52 1265 l 2
 43 1265 35 1271 35 1282 c 2
 35 1320 l 1
 39 1324 l 1
 39 1324 217 1320 297 1320 c 0
 370 1320 556 1324 556 1324 c 1
 560 1320 l 1
 560 1282 l 2
 560 1271 554 1265 544 1265 c 2
 495 1265 l 2
 411 1265 383 1232 383 1175 c 2
 383 171 l 2
 383 122 383 105 409 84 c 0
 417 77 435 75 463 75 c 2
 833 75 l 2
 896 75 902 107 902 171 c 2
 902 1175 l 2
 902 1238 871 1265 790 1265 c 2
 741 1265 l 2
 732 1265 724 1271 724 1282 c 2
 724 1320 l 1
 728 1324 l 1
 728 1324 901 1320 981 1320 c 0
 1054 1320 1240 1324 1240 1324 c 1
 1244 1320 l 1
 1244 1282 l 2
 1244 1271 1238 1265 1228 1265 c 2
 1179 1265 l 2
 1095 1265 1067 1232 1067 1175 c 2
 1067 171 l 2
 1067 109 1075 75 1142 75 c 2
 1510 75 l 2
 1577 75 1590 90 1590 171 c 2
 1590 1175 l 2
 1590 1238 1559 1265 1478 1265 c 2
 1429 1265 l 2
 1420 1265 1412 1271 1412 1282 c 2
 1412 1320 l 1
 1416 1324 l 1
 1416 1324 1589 1320 1669 1320 c 0
 1742 1320 1933 1324 1933 1324 c 1
 1937 1320 l 1
 1937 1282 l 2
 1937 1271 1931 1265 1921 1265 c 2
 1867 1265 l 2
 1783 1265 1755 1232 1755 1175 c 2
EndSplineSet
EndChar

StartChar: afii10043
Encoding: 1065 1065 89
Width: 1977
VWidth: 999
Flags: HW
HStem: 2 55<69 205.333 1796.05 1817.1> 2 72<366.8 894 1051.9 1581> 1265 55<38.4916 211.3 411 561.112 727.492 895.3 1095 1245.11 1415.49 1583.3 1783 1938.11>
VStem: 218 165<109 1249.1> 902 165<74.3557 1232> 1590 165<74.8 1232>
LayerCount: 2
Fore
SplineSet
383 1175 m 2
 383 171 l 2
 383 109 389 74 463 74 c 2
 817 74 l 2
 894 74 902 96.6582 902 171 c 2
 902 1175 l 2
 902 1238 871 1265 790 1265 c 2
 741 1265 l 2
 732 1265 724 1271 724 1282 c 2
 724 1320 l 1
 728 1324 l 1
 728 1324 901 1320 981 1320 c 0
 1054 1320 1240 1324 1240 1324 c 1
 1244 1320 l 1
 1244 1282 l 2
 1244 1271 1238 1265 1228 1265 c 2
 1179 1265 l 2
 1095 1265 1067 1232 1067 1175 c 2
 1067 171 l 2
 1067 95.7383 1078 74 1165 74 c 2
 1510 74 l 2
 1581 74 1590 97 1590 171 c 2
 1590 1175 l 2
 1590 1238 1559 1265 1478 1265 c 2
 1429 1265 l 2
 1420 1265 1412 1271 1412 1282 c 2
 1412 1320 l 1
 1416 1324 l 1
 1416 1324 1589 1320 1669 1320 c 0
 1742 1320 1933 1324 1933 1324 c 1
 1937 1320 l 1
 1937 1282 l 2
 1937 1271 1931 1265 1921 1265 c 2
 1867 1265 l 2
 1783 1265 1755 1232 1755 1175 c 2
 1755 165 l 2
 1755 85 1805.5 57 1837 57 c 0
 1873 57 1897.29 48.418 1899 13 c 2
 1912 -288 l 1
 1856 -288 l 1
 1842 -198 1764 2 1587 2 c 2
 301 2 l 1
 69 -3 l 1
 65 0.333008 l 1
 65 44 l 2
 65 51 69 54 76 54 c 2
 137 54 l 2
 205.333 54 218 62 218 142 c 2
 218 1175 l 2
 218 1238 187 1265 106 1265 c 2
 52 1265 l 2
 43 1265 35 1271 35 1282 c 2
 35 1320 l 1
 39 1324 l 1
 39 1324 217 1320 297 1320 c 0
 370 1320 556 1324 556 1324 c 1
 560 1320 l 1
 560 1282 l 2
 560 1271 554 1265 544 1265 c 2
 495 1265 l 2
 411 1265 383 1232 383 1175 c 2
EndSplineSet
EndChar

StartChar: afii10044
Encoding: 1066 1066 90
Width: 1470
VWidth: 2047
Flags: HW
HStem: -2 61<359.888 515 684.786 707 723.554 1148.9> 683 81<708 887> 1242 80<201 536.75> 1265 59<622.012 891.112>
VStem: 53 61<967.778 1073.74> 543 165<90 683 764 1227.8> 1212 183<210.2 535.2>
LayerCount: 2
Fore
SplineSet
708 683 m 1
 708 162 l 2
 708 93.9248 718.297 59 830 59 c 0
 1141 59 1212 248 1212 374 c 0
 1212 498 1150 683 887 683 c 2
 708 683 l 1
622.012 1320 m 2
 695 1320 886 1324 886 1324 c 1
 890 1320 l 1
 890 1282 l 2
 890 1271 884 1265 874 1265 c 2
 820 1265 l 2
 736 1265 708 1232 708 1175 c 2
 708 764 l 1
 832 764 l 2
 1335 764 1395 558 1395 374 c 0
 1395 33 1074.5 -2 826.5 -2 c 0
 752.5 -2 689 2 629 2 c 0
 556 2 365 -2 365 -2 c 1
 361 2 l 1
 361 40 l 2
 361 51 367 57 377 57 c 2
 431 57 l 2
 515 57 543 90 543 147 c 2
 543 1155 l 2
 543 1211 519.5 1242 462 1242 c 2
 335 1242 l 2
 201 1242 132 1048 114 960 c 1
 53 970 l 1
 70.7803 1085.46 81 1196 85 1322 c 1
 542 1322 l 1
 622.012 1320 l 2
EndSplineSet
EndChar

StartChar: afii10045
Encoding: 1067 1067 91
Width: 1611
VWidth: 2047
Flags: HW
HStem: -2 61<33.8876 189 358.785 381 397.554 822.9> 1 59<1047 1211.94 1400.94 1569> 683 81<382 561> 1265 55<37.8366 214.2 413 565.561> 1268 59<1046 1214.06 1403.06 1568>
VStem: 217 165<93.9248 683 764 1249.1> 886 183<210.2 535.2> 1225 165<71.5488 1256.13>
LayerCount: 2
Fore
SplineSet
217 1175 m 2
 217 1232 189 1265 105 1265 c 2
 51 1265 l 2
 41 1265 35 1271 35 1282 c 2
 35 1320 l 1
 39 1324 l 1
 39 1324 230 1320 303 1320 c 0
 383 1320 561 1324 561 1324 c 1
 565 1320 l 1
 565 1282 l 2
 565 1271 557 1265 548 1265 c 2
 494 1265 l 2
 413 1265 382 1238 382 1175 c 2
 382 764 l 1
 506 764 l 2
 1009 764 1069 558 1069 374 c 0
 1069 33 748.5 -2 500.5 -2 c 0
 426.5 -2 363 2 303 2 c 0
 245 2 39 -2 39 -2 c 1
 35 2 l 1
 35 40 l 2
 35 51 41 57 51 57 c 2
 105 57 l 2
 189 57 217 90 217 147 c 2
 217 1175 l 2
382 683 m 1
 382 162 l 2
 382 93.9248 392.296 59 504 59 c 0
 815 59 886 248 886 374 c 0
 886 498 824 683 561 683 c 2
 382 683 l 1
1390 1178 m 2
 1390 149 l 2
 1390 86 1421 60 1502 60 c 2
 1556 60 l 2
 1565 60 1573 54 1573 43 c 2
 1573 5 l 1
 1569 1 l 1
 1569 1 1391 5 1311 5 c 0
 1238 5 1047 1 1047 1 c 1
 1043 5 l 1
 1043 43 l 2
 1043 54 1049 60 1059 60 c 2
 1113 60 l 2
 1197 60 1225 92 1225 149 c 2
 1225 1178 l 2
 1225 1241 1194 1268 1113 1268 c 2
 1059 1268 l 2
 1050 1268 1042 1274 1042 1285 c 2
 1042 1323 l 1
 1046 1327 l 1
 1046 1327 1224 1323 1304 1323 c 0
 1377 1323 1568 1327 1568 1327 c 1
 1572 1323 l 1
 1572 1285 l 2
 1572 1274 1566 1268 1556 1268 c 2
 1502 1268 l 2
 1418 1268 1390 1235 1390 1178 c 2
EndSplineSet
EndChar

StartChar: afii10046
Encoding: 1068 1068 92
Width: 1144
VWidth: 2047
Flags: HW
HStem: -2 61<33.8876 189 358.785 381 397.554 822.9> 683 81<382 561> 1265 55<37.8366 214.2 413 565.561>
VStem: 217 165<93.9248 683 764 1249.1> 886 183<210.2 535.2>
LayerCount: 2
Fore
SplineSet
217 1175 m 2
 217 1232 189 1265 105 1265 c 2
 51 1265 l 2
 41 1265 35 1271 35 1282 c 2
 35 1320 l 1
 39 1324 l 1
 39 1324 230 1320 303 1320 c 0
 383 1320 561 1324 561 1324 c 1
 565 1320 l 1
 565 1282 l 2
 565 1271 557 1265 548 1265 c 2
 494 1265 l 2
 413 1265 382 1238 382 1175 c 2
 382 764 l 1
 506 764 l 2
 1009 764 1069 558 1069 374 c 0
 1069 33 748.5 -2 500.5 -2 c 0
 426.5 -2 363 2 303 2 c 0
 245 2 39 -2 39 -2 c 1
 35 2 l 1
 35 40 l 2
 35 51 41 57 51 57 c 2
 105 57 l 2
 189 57 217 90 217 147 c 2
 217 1175 l 2
382 683 m 1
 382 162 l 2
 382 93.9248 392.296 59 504 59 c 0
 815 59 886 248 886 374 c 0
 886 498 824 683 561 683 c 2
 382 683 l 1
EndSplineSet
EndChar

StartChar: afii10047
Encoding: 1069 1069 93
Width: 1239
VWidth: 2047
Flags: HW
HStem: -25 69<393.9 928.2> 559 115<665.3 821.669> 637 101<349 558.3> 1272 75<303.1 780.2>
VStem: 967 63<672 738>
LayerCount: 2
Fore
SplineSet
966.937 627.628 m 1
 854.949 559.715 762.519 559 738 559 c 0
 610 559 522 637 401 637 c 0
 323 637 290.5 604 274 604 c 0
 266 604 255 611 255 628 c 0
 255 679 385 738 505 738 c 0
 642 738 701 674 820 674 c 0
 877.642 674 924.619 686.716 965.397 704.53 c 1
 944.314 1126.01 719.688 1272 554 1272 c 0
 361 1272 200 1105 147 929 c 1
 85 939 l 1
 108 1047 124 1143 130 1255 c 1
 248 1262 356 1347 571 1347 c 0
 910 1347 1149 1126 1149 683 c 0
 1149 231 912 -25 564 -25 c 0
 388 -25 272 39 208 89 c 0
 153 132 110 195 110 250 c 0
 110 303 136 337 173 337 c 0
 231 337 254.975 311.992 277 245 c 0
 325 99 438 44 585 44 c 0
 845.492 44 963.839 345.817 966.937 627.628 c 1
EndSplineSet
EndChar

StartChar: afii10048
Encoding: 1070 1070 94
Width: 1854
VWidth: 2047
Flags: HW
HStem: -25 70<925.7 1487.3> 2 55<34.8876 190 389.7 562.508> 625 80<380 591> 1265 55<38.4916 211.3 411 566.112> 1277 70<926.4 1482.8>
VStem: 218 165<89 1249.1> 583 8<625 658.8> 1587 187<158.2 1187.8>
LayerCount: 2
Fore
SplineSet
1150 1277 m 0
 978 1277 771 1100 771 670 c 0
 771 276 992 45 1213 45 c 0
 1424 45 1587 268 1587 634 c 0
 1587 1060 1406 1277 1150 1277 c 0
1774 674 m 0
 1774 264 1540 -25 1176 -25 c 0
 850.721 -25 587.401 227.753 583.055 625 c 1
 383 625 l 1
 383 146 l 2
 383 83 414 57 495 57 c 2
 549 57 l 2
 558 57 566 51 566 40 c 2
 566 2 l 1
 562 -2 l 1
 562 -2 384 2 304 2 c 0
 231 2 40 -2 40 -2 c 1
 36 2 l 1
 36 40 l 2
 36 51 42 57 52 57 c 2
 106 57 l 2
 190 57 218 89 218 146 c 2
 218 1175 l 2
 218 1238 187 1265 106 1265 c 2
 52 1265 l 2
 43 1265 35 1271 35 1282 c 2
 35 1320 l 1
 39 1324 l 1
 39 1324 217 1320 297 1320 c 0
 370 1320 561 1324 561 1324 c 1
 565 1320 l 1
 565 1282 l 2
 565 1271 559 1265 549 1265 c 2
 495 1265 l 2
 411 1265 383 1232 383 1175 c 2
 383 705 l 1
 585.567 705 l 1
 612.752 1072.43 853.076 1347 1174 1347 c 0
 1517 1347 1774 1080 1774 674 c 0
EndSplineSet
EndChar

StartChar: afii10049
Encoding: 1071 1071 95
Width: 1149
VWidth: 2047
Flags: HW
HStem: 0 57<23.0635 141.1 580.888 736 935.7 1108.51> 661 88<480.6 764> 1252 72<428.5 780.074> 1265 59<851 1116.19>
VStem: 142 158<746.9 1180.3> 764 165<89 661 749 1265.1>
LayerCount: 2
Fore
SplineSet
764 661 m 1
 546 661 516 577 442 368 c 0
 362.724 144.098 303.997 2.19434 157 0 c 2
 23 -2 l 1
 20 2 l 1
 20 40 l 2
 20 51 27 57 35 57 c 2
 54 57 l 2
 121 57 224.373 210.638 332 483 c 0
 365.033 566.594 393.067 637.009 446.74 674.021 c 1
 307.523 693.83 142 788.564 142 997 c 0
 142 1138 211 1324 592 1324 c 0
 664 1324 784 1320 851 1320 c 0
 916 1320 1114 1324 1114 1324 c 1
 1114 1279 l 2
 1114 1271 1110.25 1265 1099 1265 c 2
 1038 1265 l 2
 953 1265 929 1245.06 929 1175 c 2
 929 146 l 2
 929 83 960 57 1041 57 c 2
 1095 57 l 2
 1104 57 1112 51 1112 40 c 2
 1112 2 l 1
 1108 -2 l 1
 1108 -2 930 2 850 2 c 0
 777 2 586 -2 586 -2 c 1
 582 2 l 1
 582 40 l 2
 582 51 588 57 598 57 c 2
 652 57 l 2
 736 57 764 89 764 146 c 2
 764 661 l 1
764 1178 m 2
 764 1245 755 1252 578 1252 c 0
 463 1252 300 1218 300 1029 c 0
 300 812 435 749 605 749 c 2
 764 749 l 1
 764 1178 l 2
EndSplineSet
EndChar

StartChar: afii10089
Encoding: 1095 1095 96
Width: 1046
VWidth: 2047
Flags: HW
HStem: -2 59<562 681.823 845.008 962> 363 73<330.371 616.552> 888 59<37 141.334 301.312 421 563 682.363 843.234 983>
VStem: 145 153<468.277 884.382> 686 153<60.381 453 525 884.843>
LayerCount: 2
Fore
SplineSet
686 790 m 2
 686 869 675.5 888 603 888 c 2
 571 888 l 2
 564 888 560 891 560 898 c 2
 560 942.75 l 1
 563 947 l 1
 752 943 l 1
 983 947 l 1
 986 943 l 1
 986 899 l 2
 986 892 982 888 974 888 c 2
 922 888 l 2
 853 888 839 873 839 790 c 2
 839 155 l 2
 839 78 847.667 57 922 57 c 2
 956 57 l 2
 963 57 966 53 966 47 c 2
 966 1.66699 l 1
 962 -2 l 1
 962 -2 847.086 2 771 2 c 0
 689 2 562 -2 562 -2 c 1
 558 2.66699 l 1
 558 46 l 2
 558 53 562 57 570 57 c 2
 603 57 l 2
 677.333 57 686 76 686 155 c 2
 686 453 l 1
 606 393 541 363 418 363 c 0
 217 363 145 457 145 673 c 2
 145 792 l 2
 145 870 134.333 888 62 888 c 2
 46 888 l 2
 39 888 35 891 35 898 c 2
 35 942.667 l 1
 37 947 l 1
 212 942 l 1
 421 947 l 1
 424 942.667 l 1
 424 900 l 2
 424 892 420 888 412 888 c 2
 381 888 l 2
 312.333 888 298 868 298 803 c 2
 298 665 l 2
 298 505 314 436 440 436 c 0
 540 436 620 461 686 525 c 1
 686 790 l 2
EndSplineSet
EndChar

StartChar: afii10090
Encoding: 1096 1096 97
Width: 1676
VWidth: 2047
Flags: HW
HStem: -2 59<88 209.898 1455.18 1606> 0 74<369.403 751.969 914.94 1295.27> 888 59<67 208.277 368.732 496 625 752.448 913.234 1050 1158 1296.28 1456.73 1587>
VStem: 212 153<78.0091 143 143 884.976> 756 153<78.0504 173 173 884.843> 1300 153<78.389 792 792 884.976>
CounterMasks: 1 1c
LayerCount: 2
Fore
SplineSet
1453 792 m 2
 1453 141 l 2
 1453 59 1468 57 1537 57 c 2
 1599 57 l 2
 1607 57 1611 52 1611 45 c 2
 1611 2 l 1
 1606 -2 l 1
 1373 0 l 1
 280 0 l 1
 88 -2 l 1
 85 2 l 1
 85 47 l 2
 85 54 89 57 96 57 c 2
 129 57 l 2
 201 57 212 64 212 143 c 2
 212 792 l 2
 212 870 201 888 129 888 c 2
 76 888 l 2
 69 888 65 891 65 898 c 2
 65 943 l 1
 67 947 l 1
 279 942 l 1
 496 947 l 1
 499 943 l 1
 499 900 l 2
 499 892 495 888 487 888 c 2
 448 888 l 2
 379 888 365 875 365 792 c 2
 365 174 l 2
 365 93 377 74 448 74 c 2
 673 74 l 2
 746 74 756 97 756 173 c 2
 756 790 l 2
 756 869 746 888 673 888 c 2
 633 888 l 2
 626 888 622 891 622 898 c 2
 622 943 l 1
 625 947 l 1
 822 943 l 1
 1050 947 l 1
 1053 943 l 1
 1053 899 l 2
 1053 892 1049 888 1041 888 c 2
 992 888 l 2
 923 888 909 873 909 790 c 2
 909 174 l 2
 909 88 933 74 992 74 c 2
 1218 74 l 2
 1294 74 1300 110 1300 174 c 2
 1300 792 l 2
 1300 870 1289 888 1217 888 c 2
 1167 888 l 2
 1160 888 1156 891 1156 898 c 2
 1156 943 l 1
 1158 947 l 1
 1367 942 l 1
 1587 947 l 1
 1590 943 l 1
 1590 900 l 2
 1590 892 1586 888 1578 888 c 2
 1536 888 l 2
 1467 888 1453 875 1453 792 c 2
EndSplineSet
EndChar

StartChar: afii10091
Encoding: 1097 1097 98
Width: 1658
VWidth: 2047
Flags: HW
HStem: -2 59<89 209.823 373.295 448 448 747.495 854.12 920.021> -0.00585938 72.9941<993 1295.55> 887.982 59<67.001 208.335 368.785 496.001 625.001 752.364 913.235 1050 1158 1296.33 1456.78 1587>
VStem: 212 153<74.4817 144 144 884.958> 756 153<75.1765 170 170 884.825> 1300 153<77.4063 791.982 791.982 884.958>
CounterMasks: 1 1c
LayerCount: 2
Fore
SplineSet
1453 791.982 m 2
 1453 152 l 2
 1453 100 1480 57 1527 57 c 0
 1555 57 1584.35 54.4286 1586 16 c 2
 1598 -263 l 1
 1547 -263 l 1
 1522 -162 1467 -0.00585938 1302 -0.00585938 c 2
 280.999 -0.00585938 l 1
 89 -2 l 1
 85 2.33301 l 1
 85 46 l 2
 85 53 89 57 96 57 c 2
 129 57 l 2
 200.333 57 212 65 212 144 c 2
 212 791.982 l 2
 212 869.982 201.333 887.982 129 887.982 c 2
 76.001 887.982 l 2
 69.001 887.982 65.001 890.982 65.001 897.982 c 2
 65.001 942.649 l 1
 67.001 946.982 l 1
 279.001 941.982 l 1
 496.001 946.982 l 1
 499.001 942.649 l 1
 499.001 899.982 l 2
 499.001 891.982 495.001 887.982 487.001 887.982 c 2
 448 887.982 l 2
 379.333 887.982 365 874.982 365 791.982 c 2
 365 171 l 2
 365 90 377 71 448 71 c 2
 673 71 l 2
 746 71 756 94 756 170 c 2
 756 789.982 l 2
 756 868.982 745.5 887.982 673 887.982 c 2
 633.001 887.982 l 2
 626.001 887.982 622.001 890.982 622.001 897.982 c 2
 622.001 942.732 l 1
 625.001 946.982 l 1
 822.001 942.982 l 1
 1050 946.982 l 1
 1053 942.982 l 1
 1053 898.982 l 2
 1053 891.982 1049 887.982 1041 887.982 c 2
 992.001 887.982 l 2
 923.001 887.982 909 872.982 909 789.982 c 2
 909 171 l 2
 909 85 934 71 993 71 c 2
 1217 73 l 2
 1293 73.6785 1300 104 1300 173 c 2
 1300 791.982 l 2
 1300 869.982 1289.33 887.982 1217 887.982 c 2
 1167 887.982 l 2
 1160 887.982 1156 890.982 1156 897.982 c 2
 1156 942.649 l 1
 1158 946.982 l 1
 1367 941.982 l 1
 1587 946.982 l 1
 1590 942.649 l 1
 1590 899.982 l 2
 1590 891.982 1586 887.982 1578 887.982 c 2
 1536 887.982 l 2
 1467.33 887.982 1453 874.982 1453 791.982 c 2
EndSplineSet
EndChar

StartChar: afii10092
Encoding: 1098 1098 99
Width: 1121
VWidth: 2047
Flags: HW
HStem: -2 59<262 392.483 566.029 836.136> 479 65<554 831.379> 868.639 74.361<189.005 397.699> 888 59<556.422 706>
VStem: 54 55<638 746.059> 401 153<78.8416 479 544 867.102> 903 153<138.133 410.062>
LayerCount: 2
Fore
SplineSet
401 147 m 2
 401 776 l 2
 401 851 387 868.639 341 868.639 c 0
 175 868.639 144 796 109 629 c 1
 54 638 l 1
 67 732 75 827 78 945 c 1
 479 943 l 1
 706 947 l 1
 711 943 l 1
 711 896 l 2
 711 889 707 888 700 888 c 2
 637 888 l 2
 562 888 554 872 554 800 c 2
 554 544 l 1
 682 544 l 2
 878 544 1056 482 1056 288 c 0
 1056 116 920 0 691 0 c 2
 474 2 l 2
 401 2 262 -2 262 -2 c 1
 258 2 l 1
 258 40 l 2
 258 51 264 57 274 57 c 2
 313 57 l 2
 382 57 401 89 401 147 c 2
903 268 m 0
 903 376 848 479 702 479 c 2
 554 479 l 1
 554 159 l 2
 554 86 599 63 694 63 c 0
 796 63 903 100 903 268 c 0
EndSplineSet
EndChar

StartChar: afii10093
Encoding: 1099 1099 100
Width: 1416
VWidth: 2047
Flags: HW
HStem: -2 59<78 208.483 378.516 652.136> 2 55<920 1053.31 1217.36 1351> 479 65<370 647.379> 888 55<919 1040.07 1040.07 1038.43 1038.43 1057.19 1214.06 1351> 888 59<78 208.483 376.915 510>
VStem: 217 153<75.4497 479 544 881.339> 719 153<138.133 410.062> 1059 153<64.1946 883.225>
LayerCount: 2
Fore
SplineSet
1212 824 m 2
 1212 134 l 2
 1212 89 1236 57 1299 57 c 2
 1341 57 l 2
 1348 57 1354 53 1354 45 c 2
 1354 2 l 1
 1351 -2 l 1
 1351 -2 1213 2 1150 2 c 0
 1093 2 920 -2 920 -2 c 1
 917 2 l 1
 917 45 l 2
 917 53 922 57 930 57 c 2
 972 57 l 2
 1037 57 1059 94 1059 134 c 2
 1059 824 l 2
 1059 869 1035 888 972 888 c 2
 930 888 l 2
 923 888 916 890 916 898 c 2
 916 943 l 1
 919 947 l 1
 919 947 1082 943 1145 943 c 0
 1202 943 1351 947 1351 947 c 1
 1354 943 l 1
 1354 900 l 2
 1354 892 1349 888 1341 888 c 2
 1299 888 l 2
 1234 888 1212 865 1212 824 c 2
719 268 m 0
 719 376 664 479 518 479 c 2
 370 479 l 1
 370 151.5 l 2
 370 78.5996 415 63 510 63 c 0
 612 63 719 100 719 268 c 0
217 147 m 2
 217 798 l 2
 217 856 198 888 129 888 c 2
 90 888 l 2
 80 888 74 894 74 905 c 2
 74 943 l 1
 78 947 l 1
 78 947 217 943 290 943 c 0
 370 943 510 947 510 947 c 1
 514 943 l 1
 514 905 l 2
 514 894 506 888 497 888 c 2
 458 888 l 2
 391 888 370 856 370 798 c 2
 370 544 l 1
 498 544 l 2
 694 544 872 482 872 288 c 0
 872 116 736 0 507 0 c 2
 290 2 l 2
 217 2 78 -2 78 -2 c 1
 74 2 l 1
 74 40 l 2
 74 51 80 57 90 57 c 2
 129 57 l 2
 198 57 217 89 217 147 c 2
EndSplineSet
EndChar

StartChar: afii10094
Encoding: 1100 1100 101
Width: 937
VWidth: 2047
Flags: HW
HStem: -2 59<78 208.483 378.516 652.136> 479 65<370 647.379> 888 59<78 208.483 376.915 510>
VStem: 217 153<75.4497 479 544 881.339> 719 153<138.133 410.062>
LayerCount: 2
Fore
SplineSet
719 268 m 0
 719 376 664 479 518 479 c 2
 370 479 l 1
 370 151.5 l 2
 370 78.5996 415 63 510 63 c 0
 612 63 719 100 719 268 c 0
217 147 m 2
 217 798 l 2
 217 856 198 888 129 888 c 2
 90 888 l 2
 80 888 74 894 74 905 c 2
 74 943 l 1
 78 947 l 1
 78 947 217 943 290 943 c 0
 370 943 510 947 510 947 c 1
 514 943 l 1
 514 905 l 2
 514 894 506 888 497 888 c 2
 458 888 l 2
 391 888 370 856 370 798 c 2
 370 544 l 1
 498 544 l 2
 694 544 872 482 872 288 c 0
 872 116 736 0 507 0 c 2
 290 2 l 2
 217 2 78 -2 78 -2 c 1
 74 2 l 1
 74 40 l 2
 74 51 80 57 90 57 c 2
 129 57 l 2
 198 57 217 89 217 147 c 2
EndSplineSet
EndChar

StartChar: afii10095
Encoding: 1101 1101 102
Width: 900
VWidth: 2047
Flags: HW
HStem: -25 63<255.706 504.726> 405 99<329.923 628.356> 449 94<183.077 215.269 199.173 397.005> 906 64<233.827 492.825>
VStem: 82 55<674 766.749> 654 156<255.534 684.984>
LayerCount: 2
Fore
SplineSet
378 38 m 0
 572 38 654 289 654 447 c 0
 654 451.739 653.925 456.646 653.773 461.704 c 1
 606.66 437.253 531.368 405 466 405 c 0
 377 405 318 460 246 460 c 0
 221 460 200 449 185 449 c 0
 172 449 169 469 169 477 c 0
 169 507 262 543 351 543 c 0
 442 543 477 504 556 504 c 0
 588.314 504 621.658 510.188 649.37 518.86 c 1
 630.443 677.351 551.348 906 373 906 c 0
 208 906 165 789 137 665 c 1
 82 674 l 1
 94 764 100 834 105 945 c 1
 248 945 247 970 394 970 c 0
 646 970 810 707 810 481 c 0
 810 159 582 -25 365 -25 c 0
 196 -25 75 65 75 173 c 0
 75 201 100 232 137 232 c 0
 159 232 204.223 223.715 216 156 c 0
 228 87.0001 291 38 378 38 c 0
EndSplineSet
EndChar

StartChar: afii10096
Encoding: 1102 1102 103
Width: 1425
VWidth: 2047
Flags: HW
HStem: -25 73<865.806 1082.35> -2 59<59 189.483 357.915 491> 439 80<351 548.081> 888 59<59 189.483 357.915 491> 902 68<826.933 1050.73>
VStem: 198 153<63.661 439 519 881.339> 548.081 161.919<266.167 439 519 704.435> 1190 160<249.012 707.046>
LayerCount: 2
Fore
SplineSet
198 798 m 2
 198 856 179 888 110 888 c 2
 71 888 l 2
 61 888 55 894 55 905 c 2
 55 943 l 1
 59 947 l 1
 59 947 198 943 271 943 c 0
 351 943 491 947 491 947 c 1
 495 943 l 1
 495 905 l 2
 495 894 487 888 478 888 c 2
 439 888 l 2
 372 888 351 856 351 798 c 2
 351 519 l 1
 551.152 519 l 1
 573.51 767.689 714.104 970 950 970 c 0
 1244 970 1350 690 1350 477 c 0
 1350 272 1232 -25 948 -25 c 0
 685.787 -25 551.842 230.565 548.081 439 c 1
 351 439 l 1
 351 147 l 2
 351 89 372 57 439 57 c 2
 478 57 l 2
 487 57 495 51 495 40 c 2
 495 2 l 1
 491 -2 l 1
 491 -2 351 2 271 2 c 0
 198 2 59 -2 59 -2 c 1
 55 2 l 1
 55 40 l 2
 55 51 61 57 71 57 c 2
 110 57 l 2
 179 57 198 89 198 147 c 2
 198 798 l 2
930 902 m 0
 778 902 710 674 710 495 c 0
 710 338 790 48 982 48 c 0
 1066 48 1190 141 1190 411 c 0
 1190 711 1090 902 930 902 c 0
EndSplineSet
EndChar

StartChar: afii10097
Encoding: 1103 1103 104
Width: 880
VWidth: 2047
Flags: HMW
HStem: -2 59<40 128.542 440.292 440.32 440.32 550.801 709.902 808.699 808.699 814.996> 434 71<415.236 553> 888 57<299.274 551.495 706.142 811>
VStem: 89 153<568.364 814.636> 553 153<89.703 434 505 885.343>
LayerCount: 2
Fore
SplineSet
553 505 m 1
 553 815 l 2
 553 880 538.995 888 459 888 c 0
 282 888 242 805 242 710 c 0
 242 607 299.447 505 415 505 c 2
 553 505 l 1
226 312 m 0
 255.744 396.825 302 439 358.112 452.222 c 1
 245 452.222 89 541 89 687 c 0
 89 839 254 945 406 945 c 2
 546 945 l 1
 631.5 943.151 l 1
 811 947 l 1
 815 942.667 l 1
 815 895 l 2
 815 891 813 888 808 888 c 2
 757 888 l 2
 706 888 706 870 706 827 c 2
 706 156 l 2
 706 102 712 57 750 57 c 2
 794 57 l 2
 810 57 815 42 815 39 c 2
 815 -2 l 1
 815 -2 701.557 2 629 2 c 0
 554.884 2 439 -2 439 -2 c 1
 439 43 l 2
 439 51 443 57 451 57 c 2
 481 57 l 2
 549.5 57 553 76 553 156 c 2
 553 434 l 1
 497 434 l 2
 416 434 367.001 330 325 206 c 0
 296.576 122.083 235.985 0.992134 171 0 c 2
 40 -2 l 1
 35 2 l 1
 35 40 l 2
 35 55 47 57 56 57 c 2
 71 57 l 2
 132 57 199 235 226 312 c 0
EndSplineSet
EndChar

StartChar: uni04D0
Encoding: 1232 1232 105
Width: 1424
VWidth: 2047
Flags: HW
HStem: -2 59<9 9.09515 9.09515 156.504 278.619 444.853 444.853 445 898 898.145 898.145 1061.5 1259.92 1405.89 1405.89 1406> 500 80<485.064 896> 1327 20<718.5 747> 1429 63<644 820.8>
VStem: 480 510<1439.6 1632 1578 1580>
DStem2: 195 166 287 147 0.392235 0.919865<18.6082 1078.8> 799 1287 694 1126 0.353155 -0.935565<113.545 1157.3>
LayerCount: 2
Fore
SplineSet
531 580 m 2
 896 580 l 1
 694 1126 l 1
 482 616 l 2
 479 609 478 604 478 599 c 0
 478 586 492 580 531 580 c 2
287 147 m 2
 281 133 278 120 278 109 c 0
 278 75 312 57 373 57 c 2
 432 57 l 2
 441 57 449 51 449 40 c 2
 449 2 l 1
 445 -2 l 1
 445 -2 242 2 192 2 c 0
 140 2 9 -2 9 -2 c 1
 5 2 l 1
 5 40 l 2
 5 51 11 57 21 57 c 2
 45 57 l 2
 129 57 165 97 195 166 c 2
 673 1287 l 2
 692 1333 708 1347 729 1347 c 0
 765 1347 783 1328 799 1287 c 2
 1218 177 l 2
 1248.17 97.0653 1289 57 1370 57 c 2
 1393 57 l 2
 1402 57 1413 51 1413 40 c 2
 1413 2 l 1
 1406 -2 l 1
 1406 -2 1250 2 1170 2 c 0
 1097 2 898 -2 898 -2 c 1
 894 2 l 1
 894 40 l 2
 894 51 900 57 910 57 c 2
 967 57 l 2
 1031 57 1063 79 1063 113 c 0
 1063 123 1061 135 1056 147 c 2
 925 500 l 1
 494 500 l 2
 444 500 429 488 419 464 c 2
 287 147 l 2
990 1588 m 0
 990 1480 863 1429 733 1429 c 0
 598 1429 480 1478 480 1586 c 0
 480 1631 504 1649 559 1649 c 0
 602.725 1649 623.597 1615.56 623.597 1584.88 c 0
 623.597 1581.88 623.396 1578.91 623 1576 c 0
 622.661 1573.51 622.494 1571.04 622.494 1568.59 c 0
 622.494 1527.61 668.955 1492 735 1492 c 0
 797.058 1492 847.622 1521.18 847.622 1567.06 c 0
 847.622 1569.97 847.418 1572.95 847 1576 c 0
 846.577 1579.09 846.357 1582.28 846.357 1585.51 c 0
 846.357 1615.37 864.979 1649 911 1649 c 0
 966 1649 990 1628 990 1588 c 0
EndSplineSet
LCarets2: 1 0 
EndChar

StartChar: uni04D1
Encoding: 1233 1233 106
Width: 1109
VWidth: 2047
Flags: HW
HStem: -2 59<8 8.06756 8.06756 69.8701 247.935 340.883 340.883 341 702 702.126 702.126 830.978 990.05 1098.92 1098.92 1099> 358 60<381.001 706> 950 20 1051 62<477 653.8>
VStem: 320 496<1085 1277.4 1228 1230>
DStem2: 147 143 230 120 0.419429 0.907788<13.9334 768.308> 652 920 549 805 0.375987 -0.926625<67.8353 807.098>
LayerCount: 2
Fore
SplineSet
816 1230 m 0
 816 1118 696 1051 566 1051 c 0
 432 1051 320 1118 320 1228 c 0
 320 1266 352 1296 399 1296 c 0
 444.373 1296 469.117 1267.72 469.117 1234.85 c 0
 469.117 1229.33 468.418 1223.67 467 1218 c 0
 465.562 1212.25 464.864 1206.42 464.864 1200.63 c 0
 464.864 1156.07 506.057 1113 568 1113 c 0
 626.564 1113 670.168 1154.73 670.168 1200.46 c 0
 670.168 1206.27 669.464 1212.14 668 1218 c 0
 666.846 1222.62 666.3 1227.19 666.3 1231.66 c 0
 666.3 1266.71 699.758 1296 737 1296 c 0
 786 1296 816 1270 816 1230 c 0
329 336 m 2
 230 120 l 2
 225 110 222 101 222 94 c 0
 222 67 252 57 306 57 c 2
 331 57 l 2
 338 57 344 52 344 45 c 2
 344 2 l 1
 341 -2 l 1
 341 -2 180 2 141 2 c 0
 101 2 8 -2 8 -2 c 1
 5 2 l 1
 5 45 l 2
 5 52 10 57 17 57 c 0
 69 57 112.843 69.0724 147 143 c 2
 506 920 l 2
 525.335 961.847 560 970 574 970 c 0
 599 970 633 966 652 920 c 2
 962 156 l 2
 996 74 1023 57 1089 57 c 0
 1102 57 1104 52 1104 45 c 2
 1104 2 l 1
 1099 -2 l 1
 1099 -2 994 2 932 2 c 0
 875 2 702 -2 702 -2 c 1
 699 2 l 1
 699 45 l 2
 699 52 704 57 712 57 c 2
 749 57 l 2
 801 57 831 71 831 99 c 0
 831 105 830 112 827 120 c 2
 730 358 l 1
 374 358 l 2
 348 358 337 349 329 336 c 2
706 418 m 1
 549 805 l 1
 546 805 l 1
 381 447 l 1
 381 436.8 381.6 418 422 418 c 2
 706 418 l 1
EndSplineSet
LCarets2: 1 0 
EndChar

StartChar: uni04D2
Encoding: 1234 1234 107
Width: 1424
VWidth: 2047
Flags: HW
HStem: -2 59<9 9.09515 9.09515 156.504 278.619 444.853 444.853 445 898 898.145 898.145 1061.5 1259.92 1405.89 1405.89 1406> 500 80<485.064 896> 1327 20<718.5 747> 1458 186<501.7 634.3 830.7 963.3>
VStem: 475 186<1484.7 1617.3> 804 186<1484.7 1617.3>
DStem2: 195 166 287 147 0.392235 0.919865<18.6082 1078.8> 799 1287 694 1126 0.353155 -0.935565<113.545 1157.3>
LayerCount: 2
Fore
SplineSet
531 580 m 2
 896 580 l 1
 694 1126 l 1
 482 616 l 2
 479 609 478 604 478 599 c 0
 478 586 492 580 531 580 c 2
287 147 m 2
 281 133 278 120 278 109 c 0
 278 75 312 57 373 57 c 2
 432 57 l 2
 441 57 449 51 449 40 c 2
 449 2 l 1
 445 -2 l 1
 445 -2 242 2 192 2 c 0
 140 2 9 -2 9 -2 c 1
 5 2 l 1
 5 40 l 2
 5 51 11 57 21 57 c 2
 45 57 l 2
 129 57 165 97 195 166 c 2
 673 1287 l 2
 692 1333 708 1347 729 1347 c 0
 765 1347 783 1328 799 1287 c 2
 1218 177 l 2
 1248.17 97.0653 1289 57 1370 57 c 2
 1393 57 l 2
 1402 57 1413 51 1413 40 c 2
 1413 2 l 1
 1406 -2 l 1
 1406 -2 1250 2 1170 2 c 0
 1097 2 898 -2 898 -2 c 1
 894 2 l 1
 894 40 l 2
 894 51 900 57 910 57 c 2
 967 57 l 2
 1031 57 1063 79 1063 113 c 0
 1063 123 1061 135 1056 147 c 2
 925 500 l 1
 494 500 l 2
 444 500 429 488 419 464 c 2
 287 147 l 2
804 1551 m 0
 804 1602 846 1644 897 1644 c 0
 948 1644 990 1602 990 1551 c 0
 990 1500 948 1458 897 1458 c 0
 846 1458 804 1500 804 1551 c 0
475 1551 m 0
 475 1602 517 1644 568 1644 c 0
 619 1644 661 1602 661 1551 c 0
 661 1500 619 1458 568 1458 c 0
 517 1458 475 1500 475 1551 c 0
EndSplineSet
LCarets2: 1 0 
EndChar

StartChar: uni04D3
Encoding: 1235 1235 108
Width: 1109
VWidth: 1463
Flags: HW
HStem: -2 59<8 8.06756 8.06756 69.8701 247.935 340.883 340.883 341 702 702.126 702.126 830.978 990.05 1098.92 1098.92 1099> 358 60<381.001 706> 950 20<567 586.5> 1054 186<354.2 486.8 683.2 815.8>
VStem: 327.5 186<1080.7 1213.3> 656.5 186<1080.7 1213.3>
DStem2: 147 143 230 120 0.419429 0.907788<13.9334 768.308> 652 920 549 805 0.375987 -0.926625<67.8353 807.098>
LayerCount: 2
Fore
SplineSet
660.5 1172 m 0
 660.5 1223 702.5 1265 753.5 1265 c 0
 804.5 1265 846.5 1223 846.5 1172 c 0
 846.5 1121 804.5 1079 753.5 1079 c 0
 702.5 1079 660.5 1121 660.5 1172 c 0
331.5 1172 m 0
 331.5 1223 373.5 1265 424.5 1265 c 0
 475.5 1265 517.5 1223 517.5 1172 c 0
 517.5 1121 475.5 1079 424.5 1079 c 0
 373.5 1079 331.5 1121 331.5 1172 c 0
329 336 m 2
 230 120 l 2
 225 110 222 101 222 94 c 0
 222 67 252 57 306 57 c 2
 331 57 l 2
 338 57 344 52 344 45 c 2
 344 2 l 1
 341 -2 l 1
 341 -2 180 2 141 2 c 0
 101 2 8 -2 8 -2 c 1
 5 2 l 1
 5 45 l 2
 5 52 10 57 17 57 c 0
 69 57 112.843 69.0724 147 143 c 2
 506 920 l 2
 525.335 961.847 560 970 574 970 c 0
 599 970 633 966 652 920 c 2
 962 156 l 2
 996 74 1023 57 1089 57 c 0
 1102 57 1104 52 1104 45 c 2
 1104 2 l 1
 1099 -2 l 1
 1099 -2 994 2 932 2 c 0
 875 2 702 -2 702 -2 c 1
 699 2 l 1
 699 45 l 2
 699 52 704 57 712 57 c 2
 749 57 l 2
 801 57 831 71 831 99 c 0
 831 105 830 112 827 120 c 2
 730 358 l 1
 374 358 l 2
 348 358 337 349 329 336 c 2
706 418 m 1
 549 805 l 1
 546 805 l 1
 381 447 l 1
 381 436.8 381.6 418 422 418 c 2
 706 418 l 1
EndSplineSet
LCarets2: 1 0 
EndChar

StartChar: uni04D4
Encoding: 1236 1236 109
Width: 1783
VWidth: 2047
Flags: HW
HStem: -2 59<3.69275 142.7 260.627 399.81 694.749 845> 0 80<1053.5 1558> 544 80<549 873> 679 70<1038 1314> 1242 80<1048.3 1508> 1265 59<601 717.151>
VStem: 873 165<76.8 544 624 679 749 1232.47> 1592 55<1030.42 1145.78>
LayerCount: 2
Fore
SplineSet
549 624 m 1
 873 624 l 1
 873 1178 l 2
 873 1203.25 872.5 1213 870 1224 c 1
 549 624 l 1
959 2 m 2
 886 2 695 -2 695 -2 c 1
 691 2 l 1
 691 38 l 2
 691 49 697 57 707 57 c 2
 761 57 l 2
 845 57 873 90 873 147 c 2
 873 544 l 1
 507 544 l 1
 291 140 l 2
 271.857 104.195 265 91.25 265 80 c 0
 265 62 282 57 331 57 c 2
 391 57 l 2
 399 57 403 50.333 403 45 c 2
 403 2 l 1
 400 -2 l 1
 400 -2 268 2 188 2 c 0
 116 2 3 -2 3 -2 c 1
 0 2 l 1
 0 41 l 2
 0 51 8 57 20 57 c 2
 66 57 l 2
 125 57 150 71 189 144 c 2
 735 1182 l 2
 740.56 1192.57 742.984 1202.29 742.984 1211.06 c 0
 742.984 1244.43 707.885 1265 677 1265 c 2
 613 1265 l 2
 601.333 1265 597 1271 597 1279 c 2
 597 1320 l 1
 601 1324 l 1
 956 1320 l 1
 1115 1322 l 1
 1618 1322 l 1
 1647 1036 l 1
 1592 1030 l 1
 1577 1118 1508 1242 1402 1242 c 2
 1112 1242 l 2
 1063 1242 1038 1224 1038 1175 c 2
 1038 749 l 1
 1245 749 l 2
 1317 749 1334.92 783.018 1348 840 c 2
 1362 901 l 2
 1363 910 1369 918 1377 918 c 2
 1422 918 l 2
 1427 918 1429 913 1429 909 c 0
 1424 843 1413 783 1413 714 c 0
 1413 644 1422 584 1429 518 c 1
 1424 511 l 1
 1377 511 l 2
 1366 511 1361 519 1360 526 c 2
 1348 589 l 2
 1336.77 647.957 1314 679 1245 679 c 2
 1038 679 l 1
 1038 147 l 2
 1038 93 1067 80 1112 80 c 2
 1424 80 l 2
 1558 80 1616 189 1648 337 c 1
 1702 328 l 1
 1650 0 l 1
 1114 0 l 1
 959 2 l 2
EndSplineSet
EndChar

StartChar: uni04D5
Encoding: 1237 1237 110
Width: 1416
VWidth: 2047
Flags: HW
HStem: 1 57<11.3733 126.8 258.6 378.395 576 700 882.229 1308> 358 57<382 718> 471 66<871 1117> 880 65<579.137 653.512> 888.998 56.998<398 510.605 890 1293.9>
VStem: 718 153<67.7 358 415 471 537 853.667> 1334 43<737.361 819.961>
LayerCount: 2
Fore
SplineSet
1095 58 m 2
 1219 58 1266 151 1298 254 c 1
 1350 248 l 1
 1325.38 148.443 1310.12 63.9404 1307.01 -1 c 1
 930 1 l 1
 782 2 l 1
 590 0 l 1
 590 45 l 2
 590 50 592 55 602 55 c 2
 636 55 l 2
 700 55 718 80 718 121 c 2
 718 358 l 1
 406 358 l 2
 366 358 355 349 347 331 c 2
 254 120 l 2
 249 110 247 101 247 93 c 0
 247 69 273 56 321 56 c 2
 341 56 l 2
 348 56 354 51 354 44 c 2
 354 1 l 1
 351 -1 l 1
 351 -1 195 2 156 2 c 0
 116 2 13 -1 13 -1 c 1
 10 1 l 1
 10 44 l 2
 10 51 15 56 22 56 c 2
 41 56 l 2
 107 56 134.924 84.0352 158 134 c 2
 476.433 823.5 l 2
 481.872 835.277 484.461 845.25 484.461 853.627 c 0
 484.461 881.892 454.982 892 406 892 c 0
 394.5 892 393 898 393 902 c 2
 393 941 l 1
 398 948 l 1
 783 945 l 1
 931 946 l 1
 1305 946 l 1
 1307.5 856.012 1321 778 1335 699.5 c 1
 1284 692.5 l 1
 1262 767 1223 888.998 1093.01 888.998 c 2
 929 888.998 l 2
 890 888.998 871 876 871 841 c 2
 871 537 l 1
 1014 537 l 2
 1070 537 1084 561 1094 602 c 2
 1105 645 l 2
 1106 652 1110 657 1117 657 c 2
 1152 657 l 2
 1156 657 1157 655 1157 651 c 0
 1153 604 1145 546 1145 497 c 0
 1145 446 1152 404 1157 356 c 1
 1153 351 l 1
 1117 351 l 2
 1108 351 1104 357 1103 362 c 2
 1094 407 l 2
 1085 449 1067 471 1014 471 c 2
 871 471 l 1
 871 106 l 2
 871 67 894 58 929 58 c 2
 1095 58 l 2
561 805 m 2
 396 440 l 2
 394.337 436.436 393.351 433.155 393.351 430.223 c 0
 393.351 420.813 403.503 415 434 415 c 2
 718 415 l 1
 718 810 l 2
 718 880.04 665.777 882.044 638 882.044 c 0
 610.833 882.044 587.182 862.918 561 805 c 2
EndSplineSet
EndChar

StartChar: uni04D6
Encoding: 1238 1238 111
Width: 1167
VWidth: 2047
Flags: HW
HStem: -2 59<28 199.931> 0 80<375.074 920.566> 669 70<373 740.095> 888 20<781 832.5> 1242 80<375.211 857.022> 1265 59<29 200.021> 1429 63<470 646.8>
VStem: 208 165<83.591 669 739 1238.57> 306 510<1439.6 1632 1578 1580> 768 69<508 579 830 904.994>
LayerCount: 2
Fore
SplineSet
723 1242 m 2
 447 1242 l 2
 398 1242 373 1224 373 1175 c 2
 373 739 l 1
 653 739 l 2
 725 739 742.922 773.018 756 830 c 2
 770 891 l 2
 771 900 777 908 785 908 c 2
 830 908 l 2
 835 908 837 904 837 899 c 0
 830 848 821 773 821 704 c 0
 821 634 832 543 837 508 c 1
 832 501 l 1
 785 501 l 2
 774 501 769 509 768 516 c 2
 756 579 l 2
 744.77 637.957 722 669 653 669 c 2
 373 669 l 1
 373 147 l 2
 373 93 402 80 447 80 c 2
 786 80 l 2
 942 80 1002 200 1043 348 c 1
 1105 338 l 1
 1082 232 1060 114 1051 0 c 1
 449 0 l 1
 290 2 l 1
 28 -2 l 1
 25 2 l 1
 25 43 l 2
 25 50 28 57 41 57 c 2
 102 57 l 2
 184 57 208 90 208 147 c 2
 208 1173 l 2
 208 1237 180 1265 102 1265 c 2
 41 1265 l 2
 27 1265 25 1274 25 1279 c 2
 25 1320 l 1
 29 1324 l 1
 291 1320 l 1
 450 1322 l 1
 975 1324 l 1
 984 1215 1002 1090 1018 1006 c 1
 958 996 l 1
 913 1137 877 1242 723 1242 c 2
816 1588 m 0
 816 1480 689 1429 559 1429 c 0
 424 1429 306 1478 306 1586 c 0
 306 1631 330 1649 385 1649 c 0
 428.725 1649 449.597 1615.56 449.597 1584.88 c 0
 449.597 1581.88 449.396 1578.91 449 1576 c 0
 448.661 1573.51 448.494 1571.04 448.494 1568.59 c 0
 448.494 1527.61 494.955 1492 561 1492 c 0
 623.058 1492 673.622 1521.18 673.622 1567.06 c 0
 673.622 1569.97 673.418 1572.95 673 1576 c 0
 672.577 1579.09 672.357 1582.28 672.357 1585.51 c 0
 672.357 1615.37 690.979 1649 737 1649 c 0
 792 1649 816 1628 816 1588 c 0
EndSplineSet
LCarets2: 1 0 
EndChar

StartChar: uni04D7
Encoding: 1239 1239 112
Width: 950
VWidth: 2047
Flags: HW
HStem: -2 59<68 204.917 379.874 740.48> 471 65<360 612.703> 888 59<68 204.969 360.056 729.762> 1051 62<400 576.8>
VStem: 207 153<61.0434 471 536 884.156> 243 496<1085 1277.4 1228 1230> 628 54<351.224 407.69> 809 51<693.5 778.346> 823 52<156.475 255>
LayerCount: 2
Fore
SplineSet
739 1230 m 0
 739 1118 619 1051 489 1051 c 0
 355 1051 243 1118 243 1228 c 0
 243 1266 275 1296 322 1296 c 0
 367.373 1296 392.117 1267.72 392.117 1234.85 c 0
 392.117 1229.33 391.418 1223.67 390 1218 c 0
 388.562 1212.25 387.864 1206.42 387.864 1200.63 c 0
 387.864 1156.07 429.057 1113 491 1113 c 0
 549.564 1113 593.168 1154.73 593.168 1200.46 c 0
 593.168 1206.27 592.464 1212.14 591 1218 c 0
 589.846 1222.62 589.3 1227.19 589.3 1231.66 c 0
 589.3 1266.71 622.758 1296 660 1296 c 0
 709 1296 739 1270 739 1230 c 0
830 947 m 1
 832 857 846 779 860 700 c 1
 809 694 l 1
 787 768 748 888 618 888 c 2
 418 888 l 2
 379 888 360 875 360 840 c 2
 360 536 l 1
 539 536 l 2
 595 536 609 560 619 601 c 2
 630 644 l 2
 631 651 635 656 642 656 c 2
 677 656 l 2
 681 656 682 654 682 650 c 0
 678 603 670 546 670 497 c 0
 670 446 677 404 682 356 c 1
 678 351 l 1
 642 351 l 2
 633 351 629 357 628 362 c 2
 619 407 l 2
 610 449 592 471 539 471 c 2
 360 471 l 1
 360 105 l 2
 360 66 383 57 418 57 c 2
 620 57 l 2
 744 57 791 152 823 255 c 1
 875 249 l 1
 850 149 835 65 832 0 c 1
 419 0 l 1
 271 2 l 1
 68 -2 l 1
 65 2 l 1
 65 47 l 2
 65 52 67 57 77 57 c 2
 125 57 l 2
 189 57 207 82 207 123 c 2
 207 822 l 2
 207 868 185 888 125 888 c 2
 77 888 l 2
 66 888 65 894 65 898 c 2
 65 942 l 1
 68 947 l 1
 272 943 l 1
 420 947 l 1
 830 947 l 1
EndSplineSet
LCarets2: 1 0 
EndChar

StartChar: uni04D8
Encoding: 1240 1240 113
Width: 1369
VWidth: 2047
Flags: HW
HStem: -25 70<508.077 853.561> 442 90<259 1096> 1277 70<427.455 807.084>
VStem: 1118 183<470.516 892.317>
LayerCount: 2
Fore
SplineSet
208 1072 m 1
 161 1121 l 1
 323 1271 439 1347 664 1347 c 0
 1105 1347 1301 993 1301 668 c 0
 1301 269 1072 -25 677 -25 c 0
 284 -25 119 241 95 532 c 1
 1115 532 l 1
 1117 555 1118 580 1118 608 c 0
 1118 989 909 1277 633 1277 c 0
 441 1277 317 1177 208 1072 c 1
259 442 m 1
 323 177 491 45 691 45 c 0
 908 45 1059 237 1096 442 c 1
 259 442 l 1
EndSplineSet
EndChar

StartChar: afii10846
Encoding: 1241 1241 114
Width: 950
VWidth: 2047
Flags: HW
HStem: 0 59<215.238 584.944 740.031 877> 411 65<332.297 585> 890 59<204.52 565.126 740.083 877>
VStem: 70 52<692 790.525> 85 51<168.654 253.5> 263 54<539.31 595.776> 585 153<62.844 411 476 885.957>
LayerCount: 2
Fore
SplineSet
115 0 m 1
 113 90 99 168 85 247 c 1
 136 253 l 1
 158 179 197 59 327 59 c 2
 527 59 l 2
 566 59 585 72 585 107 c 2
 585 411 l 1
 406 411 l 2
 350 411 336 387 326 346 c 2
 315 303 l 2
 314 296 310 291 303 291 c 2
 268 291 l 2
 264 291 263 293 263 297 c 0
 267 344 275 401 275 450 c 0
 275 501 268 543 263 591 c 1
 267 596 l 1
 303 596 l 2
 312 596 316 590 317 585 c 2
 326 540 l 2
 335 498 353 476 406 476 c 2
 585 476 l 1
 585 842 l 2
 585 881 562 890 527 890 c 2
 325 890 l 2
 201 890 154 795 122 692 c 1
 70 698 l 1
 95 798 110 882 113 947 c 1
 526 947 l 1
 674 945 l 1
 877 949 l 1
 880 945 l 1
 880 900 l 2
 880 895 878 890 868 890 c 2
 820 890 l 2
 756 890 738 865 738 824 c 2
 738 125 l 2
 738 79 760 59 820 59 c 2
 868 59 l 2
 879 59 880 53 880 49 c 2
 880 5 l 1
 877 0 l 1
 673 4 l 1
 525 0 l 1
 115 0 l 1
EndSplineSet
EndChar

StartChar: uni04DA
Encoding: 1242 1242 115
Width: 1369
VWidth: 2047
Flags: HW
HStem: -25 70<508.077 853.561> 442 90<259 1096> 1277 70<427.455 807.084> 1445.5 186<407.2 539.8 795.2 927.8>
VStem: 380.5 186<1472.2 1604.8> 768.5 186<1473.2 1605.8> 1118 183<470.516 892.317>
LayerCount: 2
Fore
SplineSet
208 1072 m 1
 161 1121 l 1
 323 1271 439 1347 664 1347 c 0
 1105 1347 1301 993 1301 668 c 0
 1301 269 1072 -25 677 -25 c 0
 284 -25 119 241 95 532 c 1
 1115 532 l 1
 1117 555 1118 580 1118 608 c 0
 1118 989 909 1277 633 1277 c 0
 441 1277 317 1177 208 1072 c 1
259 442 m 1
 323 177 491 45 691 45 c 0
 908 45 1059 237 1096 442 c 1
 259 442 l 1
768.5 1539.5 m 0
 768.5 1590.5 810.5 1632.5 861.5 1632.5 c 0
 912.5 1632.5 954.5 1590.5 954.5 1539.5 c 0
 954.5 1488.5 912.5 1446.5 861.5 1446.5 c 0
 810.5 1446.5 768.5 1488.5 768.5 1539.5 c 0
380.5 1538.5 m 0
 380.5 1589.5 422.5 1631.5 473.5 1631.5 c 0
 524.5 1631.5 566.5 1589.5 566.5 1538.5 c 0
 566.5 1487.5 524.5 1445.5 473.5 1445.5 c 0
 422.5 1445.5 380.5 1487.5 380.5 1538.5 c 0
EndSplineSet
LCarets2: 1 0 
EndChar

StartChar: uni04DB
Encoding: 1243 1243 116
Width: 950
VWidth: 2047
Flags: HW
HStem: 0 59<215.238 584.944 740.031 877> 411 65<332.297 585> 890 59<204.52 565.126 740.083 877> 1071 186<251.7 384.3 580.7 713.3>
VStem: 70 52<692 790.525> 85 51<168.654 253.5> 225 186<1097.7 1230.3> 263 54<539.31 595.776> 554 186<1097.7 1230.3> 585 153<62.844 411 476 885.957>
LayerCount: 2
Fore
SplineSet
554 1164 m 0
 554 1215 596 1257 647 1257 c 0
 698 1257 740 1215 740 1164 c 0
 740 1113 698 1071 647 1071 c 0
 596 1071 554 1113 554 1164 c 0
225 1164 m 0
 225 1215 267 1257 318 1257 c 0
 369 1257 411 1215 411 1164 c 0
 411 1113 369 1071 318 1071 c 0
 267 1071 225 1113 225 1164 c 0
115 0 m 1
 113 90 99 168 85 247 c 1
 136 253 l 1
 158 179 197 59 327 59 c 2
 527 59 l 2
 566 59 585 72 585 107 c 2
 585 411 l 1
 406 411 l 2
 350 411 336 387 326 346 c 2
 315 303 l 2
 314 296 310 291 303 291 c 2
 268 291 l 2
 264 291 263 293 263 297 c 0
 267 344 275 401 275 450 c 0
 275 501 268 543 263 591 c 1
 267 596 l 1
 303 596 l 2
 312 596 316 590 317 585 c 2
 326 540 l 2
 335 498 353 476 406 476 c 2
 585 476 l 1
 585 842 l 2
 585 881 562 890 527 890 c 2
 325 890 l 2
 201 890 154 795 122 692 c 1
 70 698 l 1
 95 798 110 882 113 947 c 1
 526 947 l 1
 674 945 l 1
 877 949 l 1
 880 945 l 1
 880 900 l 2
 880 895 878 890 868 890 c 2
 820 890 l 2
 756 890 738 865 738 824 c 2
 738 125 l 2
 738 79 760 59 820 59 c 2
 868 59 l 2
 879 59 880 53 880 49 c 2
 880 5 l 1
 877 0 l 1
 673 4 l 1
 525 0 l 1
 115 0 l 1
EndSplineSet
LCarets2: 1 0 
EndChar

StartChar: uni04E0
Encoding: 1248 1248 117
Width: 1246
VWidth: 2047
Flags: HW
HStem: -432 75<440.513 732.064> 964 21G<131 189> 1242 80<292.125 343 343 914> 1347 20G<171.839 198>
VStem: 973 183<-85.7789 299.641>
DStem2: 513 516 752 590 0.483492 0.875349<180.33 829.384>
LayerCount: 2
Fore
SplineSet
343 1322 m 2
 1070 1322 l 2
 1112 1322 1127 1311 1127 1294 c 0
 1127 1273 1109.36 1239.75 1093 1210 c 2
 752 590 l 1
 1027 535 1156 332 1156 104 c 0
 1156 -180 884 -432 557 -432 c 0
 393 -432 85 -360 85 -226 c 0
 85 -178.32 106.774 -123 177 -123 c 0
 231 -123 288.506 -151.702 316 -194 c 0
 381 -294 483 -357 596 -357 c 0
 775 -357 973 -108 973 86 c 0
 973 412 740 522 598 522 c 0
 566 522 543 522 513 516 c 1
 914 1242 l 1
 404 1242 l 2
 252.022 1239.38 193 1056 185 964 c 1
 131 969 l 1
 174 1367 l 1
 222 1357 293 1322 343 1322 c 2
EndSplineSet
EndChar

StartChar: uni04E1
Encoding: 1249 1249 118
Width: 960
VWidth: 2047
Flags: HW
HStem: -389.5 59<251.633 547.273> 864.5 85<159.683 161 161.156 622>
VStem: 89 43<725.507 868.899> 718 144<-130.367 188.413>
DStem2: 301 304.5 502 399.5 0.497306 0.867575<182.378 645.477>
LayerCount: 2
Fore
SplineSet
740 949.5 m 1
 741.894 949.5 l 2
 764.842 949.5 788 949.13 788 921.5 c 0
 788 910.5 782 893.5 769 864.5 c 2
 502 399.5 l 1
 611.363 393.963 862 327.1 862 37.5 c 0
 862 -193.241 633.099 -389.5 348 -389.5 c 0
 272 -389.5 189 -365.5 100 -317.5 c 0
 71 -301.5 57 -280.5 57 -254.5 c 0
 57 -232.5 75.5 -199.5 122 -199.5 c 0
 152 -199.5 177 -211.5 198 -235.5 c 0
 253.071 -298.438 314 -330.5 380 -330.5 c 0
 482.25 -330.5 718 -264.154 718 25.5 c 0
 718 199.411 593.021 319.5 421 319.5 c 0
 385 319.5 345 314.5 301 304.5 c 1
 622 864.5 l 1
 265 864.5 l 2
 178.281 864.5 154.651 850.555 132 719.5 c 1
 89 719.5 l 1
 123 960.5 l 1
 161 960.5 l 1
 164 953.5 188 949.5 235 949.5 c 2
 740 949.5 l 1
EndSplineSet
EndChar

StartChar: uni04E6
Encoding: 1254 1254 119
Width: 1431
VWidth: 2047
Flags: HW
HStem: -25 70<570.897 917.258> 1277 70<516.895 879.003> 1445.5 186<450.7 583.3 838.7 971.3>
VStem: 75 188<407.274 900.52> 424 186<1472.2 1604.8> 812 186<1473.2 1605.8> 1168 188<404.537 931.997>
LayerCount: 2
Fore
SplineSet
685 1277 m 0
 488 1277 263 1100 263 670 c 0
 263 276 508 45 753 45 c 0
 988 45 1168 268 1168 634 c 0
 1168 1060 972 1277 685 1277 c 0
1356 674 m 0
 1356 264 1104 -25 713 -25 c 0
 360 -25 75 232 75 635 c 0
 75 1037 344 1347 711 1347 c 0
 1080 1347 1356 1080 1356 674 c 0
812 1539.5 m 0
 812 1590.5 854 1632.5 905 1632.5 c 0
 956 1632.5 998 1590.5 998 1539.5 c 0
 998 1488.5 956 1446.5 905 1446.5 c 0
 854 1446.5 812 1488.5 812 1539.5 c 0
424 1538.5 m 0
 424 1589.5 466 1631.5 517 1631.5 c 0
 568 1631.5 610 1589.5 610 1538.5 c 0
 610 1487.5 568 1445.5 517 1445.5 c 0
 466 1445.5 424 1487.5 424 1538.5 c 0
EndSplineSet
LCarets2: 1 0 
EndChar

StartChar: uni04E7
Encoding: 1255 1255 120
Width: 1132
VWidth: 2047
Flags: HW
HStem: -25 65<421.463 743.549> 905 65<404.993 703.27> 1054 186<328.2 460.8 657.2 789.8>
VStem: 75 165<244.853 676.833> 301.5 186<1080.7 1213.3> 630.5 186<1080.7 1213.3> 892 165<258.068 681.873>
LayerCount: 2
Fore
SplineSet
630.5 1147 m 0
 630.5 1198 672.5 1240 723.5 1240 c 0
 774.5 1240 816.5 1198 816.5 1147 c 0
 816.5 1096 774.5 1054 723.5 1054 c 0
 672.5 1054 630.5 1096 630.5 1147 c 0
301.5 1147 m 0
 301.5 1198 343.5 1240 394.5 1240 c 0
 445.5 1240 487.5 1198 487.5 1147 c 0
 487.5 1096 445.5 1054 394.5 1054 c 0
 343.5 1054 301.5 1096 301.5 1147 c 0
539 905 m 0
 386 905 240 786 240 479 c 0
 240 197 382 40 592 40 c 0
 776 40 892 192 892 453 c 0
 892 758 741 905 539 905 c 0
1057 482 m 0
 1057 189 866 -25 561 -25 c 0
 286 -25 75 166 75 454 c 0
 75 741 273 970 559 970 c 0
 825 970 1057 772 1057 482 c 0
EndSplineSet
LCarets2: 1 0 
EndChar

StartChar: uni04E8
Encoding: 1256 1256 121
Width: 1431
VWidth: 2047
Flags: HW
HStem: -25 70<570.897 917.258> 543.623 118.377<777.071 1084.09> 637.81 118.531<346.69 689.311> 1277 70<516.895 879.003>
VStem: 75 188<407.274 900.52> 1168 188<404.537 931.997>
LayerCount: 2
Fore
SplineSet
685 1277 m 0
 488 1277 263 1100 263 670 c 0
 263 667.456 263.01 664.918 263.031 662.387 c 1
 343.461 727.556 471.657 756.341 547.753 756.341 c 0
 750 756.341 810 662 940 662 c 0
 1004.23 662 1096.94 687.09 1164.21 733.265 c 1
 1135.7 1093.68 948.786 1277 685 1277 c 0
1356 674 m 0
 1356 264 1104 -25 713 -25 c 0
 360 -25 75 232 75 635 c 0
 75 1037 344 1347 711 1347 c 0
 1080 1347 1356 1080 1356 674 c 0
1167.94 646.558 m 1
 1082.15 567.827 981.028 543.623 903.76 543.623 c 0
 714 543.623 666 637.81 511.479 637.81 c 0
 450.331 637.81 338.264 628.361 267.496 579.414 c 1
 301.84 240.83 527.42 45 753 45 c 0
 988 45 1168 268 1168 634 c 0
 1168 638.206 1167.98 642.392 1167.94 646.558 c 1
EndSplineSet
EndChar

StartChar: uni04E9
Encoding: 1257 1257 122
Width: 1132
VWidth: 2047
Flags: HW
HStem: -25 65<421.463 743.549> 393 101<532.58 818.533> 470 85<244.568 494.499> 905 65<404.993 703.27>
VStem: 75 165<244.853 676.833> 892 165<258.068 681.873>
AnchorPoint: "unten_punkt" 504 -219 basechar 0
AnchorPoint: "top_punkt" 500.733 1126 basechar 0
AnchorPoint: "top_akzent" 484 1320 basechar 0
LayerCount: 2
Fore
SplineSet
1057 482 m 0
 1057 189 866 -25 561 -25 c 0
 286 -25 75 166 75 454 c 0
 75 741 273 970 559 970 c 0
 825 970 1057 772 1057 482 c 0
888.801 527.215 m 1
 866.014 781.882 723.864 905 539 905 c 0
 390.947 905 249.449 793.571 240.453 508.192 c 1
 287.201 532.268 366.155 555 425 555 c 0
 516 555 656 494 735 494 c 0
 772.599 494 847.198 512.849 888.801 527.215 c 1
891.833 470.454 m 1
 834.932 440.419 715.892 393 645 393 c 0
 556 393 392 470 320 470 c 0
 302.353 470 265.773 457.544 240.506 450.216 c 1
 249.895 186.337 389.256 40 592 40 c 0
 776 40 892 192 892 453 c 0
 892 458.877 891.944 464.695 891.833 470.454 c 1
EndSplineSet
EndChar

StartChar: uni04EA
Encoding: 1258 1258 123
Width: 1431
VWidth: 2047
Flags: HW
HStem: -25 70<570.897 917.258> 543.623 118.377<777.071 1084.09> 637.81 118.531<346.69 689.311> 1277 70<516.895 879.003> 1449 186<443.7 576.3 831.7 964.3>
VStem: 75 188<407.274 900.52> 417 186<1475.7 1608.3> 805 186<1476.7 1609.3> 1168 188<404.537 931.997>
LayerCount: 2
Fore
SplineSet
685 1277 m 0
 488 1277 263 1100 263 670 c 0
 263 667.456 263.01 664.918 263.031 662.387 c 1
 343.461 727.556 471.657 756.341 547.753 756.341 c 0
 750 756.341 810 662 940 662 c 0
 1004.23 662 1096.94 687.09 1164.21 733.265 c 1
 1135.7 1093.68 948.786 1277 685 1277 c 0
1356 674 m 0
 1356 264 1104 -25 713 -25 c 0
 360 -25 75 232 75 635 c 0
 75 1037 344 1347 711 1347 c 0
 1080 1347 1356 1080 1356 674 c 0
805 1543 m 0
 805 1594 847 1636 898 1636 c 0
 949 1636 991 1594 991 1543 c 0
 991 1492 949 1450 898 1450 c 0
 847 1450 805 1492 805 1543 c 0
417 1542 m 0
 417 1593 459 1635 510 1635 c 0
 561 1635 603 1593 603 1542 c 0
 603 1491 561 1449 510 1449 c 0
 459 1449 417 1491 417 1542 c 0
1167.94 646.558 m 1
 1082.15 567.827 981.028 543.623 903.76 543.623 c 0
 714 543.623 666 637.81 511.479 637.81 c 0
 450.331 637.81 338.264 628.361 267.496 579.414 c 1
 301.84 240.83 527.42 45 753 45 c 0
 988 45 1168 268 1168 634 c 0
 1168 638.206 1167.98 642.392 1167.94 646.558 c 1
EndSplineSet
LCarets2: 1 0 
EndChar

StartChar: uni04EB
Encoding: 1259 1259 124
Width: 983
VWidth: 2047
Flags: HW
HStem: -25 65<421.463 743.549> 393 101<532.58 818.533> 470 85<244.568 494.499> 905 65<404.993 703.27> 1054 186<328.2 460.8 657.2 789.8>
VStem: 75 165<244.853 676.833> 301.5 186<1080.7 1213.3> 630.5 186<1080.7 1213.3> 892 165<258.068 681.873>
LayerCount: 2
Fore
SplineSet
630.5 1147 m 0
 630.5 1198 672.5 1240 723.5 1240 c 0
 774.5 1240 816.5 1198 816.5 1147 c 0
 816.5 1096 774.5 1054 723.5 1054 c 0
 672.5 1054 630.5 1096 630.5 1147 c 0
301.5 1147 m 0
 301.5 1198 343.5 1240 394.5 1240 c 0
 445.5 1240 487.5 1198 487.5 1147 c 0
 487.5 1096 445.5 1054 394.5 1054 c 0
 343.5 1054 301.5 1096 301.5 1147 c 0
1057 482 m 0
 1057 189 866 -25 561 -25 c 0
 286 -25 75 166 75 454 c 0
 75 741 273 970 559 970 c 0
 825 970 1057 772 1057 482 c 0
888.801 527.215 m 1
 866.014 781.882 723.864 905 539 905 c 0
 390.947 905 249.449 793.571 240.453 508.192 c 1
 287.201 532.268 366.155 555 425 555 c 0
 516 555 656 494 735 494 c 0
 772.599 494 847.198 512.849 888.801 527.215 c 1
891.833 470.454 m 1
 834.932 440.419 715.892 393 645 393 c 0
 556 393 392 470 320 470 c 0
 302.353 470 265.773 457.544 240.506 450.216 c 1
 249.895 186.337 389.256 40 592 40 c 0
 776 40 892 192 892 453 c 0
 892 458.877 891.944 464.695 891.833 470.454 c 1
EndSplineSet
LCarets2: 1 0 
EndChar

StartChar: uni04EF
Encoding: 1263 1263 125
Width: 982
VWidth: 2047
Flags: HW
HStem: -2 59<282 348.536 348.536 418.017 574.815 644.95 644.95 713> 888 59<29 70.8595 70.8595 145.923 314.062 403 657 702.344 702.344 746.111 822.18 901.035 901.035 954> 1051 90<254.5 793.3>
VStem: 420 153<61.6005 412>
DStem2: 329 828 159 825 0.534224 -0.845343<0 391.062> 542 500 573 419 0.505719 0.862698<0 379.052>
LayerCount: 2
Fore
SplineSet
759.5 1051 m 2
 258.5 1051 l 2
 240.5 1051 233.5 1067 233.5 1081 c 0
 233.5 1105 254.5 1141 278.5 1141 c 2
 779.5 1141 l 2
 799.5 1141 807.5 1125 807.5 1111 c 0
 807.5 1087 785.5 1051 759.5 1051 c 2
420 120 m 2
 420 412 l 1
 159 825 l 2
 131.875 867.921 101 888 41 888 c 0
 34 888 25 890 25 899 c 2
 25 943 l 1
 29 947 l 1
 48 946 175 943 196 943 c 0
 206 943 379 945 403 947 c 1
 405 944 l 1
 405 900 l 2
 405 895 402 888 395 888 c 2
 350 888 l 2
 320 888 309 883 309 869 c 0
 309 860 316 849 329 828 c 2
 542 500 l 1
 732 828 l 2
 744 849 750 860 750 868 c 0
 750 884 742 888 709 888 c 2
 662 888 l 1
 655 889 653 894 653 899 c 2
 653 944 l 1
 657 947 l 1
 671 947 795 943 815 943 c 0
 829 943 923 945 954 947 c 1
 957 943 l 1
 957 899 l 2
 957 894 956 888 942 888 c 2
 908 888 l 2
 860 888 838 873 811 825 c 2
 573 419 l 1
 573 120 l 2
 573 75 597 57 660 57 c 2
 703 57 l 2
 710 57 716 52 716 45 c 2
 716 2 l 1
 713 -2 l 1
 713 -2 550 2 488 2 c 0
 431 2 282 -2 282 -2 c 1
 278 2 l 1
 278 45 l 2
 278 52 283 57 291 57 c 2
 333 57 l 2
 399 57 420 79 420 120 c 2
EndSplineSet
LCarets2: 1 0 
EndChar

StartChar: uni04F1
Encoding: 1265 1265 126
Width: 1072
VWidth: 2047
Flags: HW
HStem: -2 59<282 348.536 348.536 418.017 574.815 644.95 644.95 713> 888 59<29 70.8595 70.8595 145.923 314.062 403 657 702.344 702.344 746.111 822.18 901.035 901.035 954> 1075 186<286.7 419.3 615.7 748.3>
VStem: 260 186<1101.7 1234.3> 420 153<61.6005 412> 589 186<1101.7 1234.3>
DStem2: 329 828 159 825 0.534224 -0.845343<0 391.062> 542 500 573 419 0.505719 0.862698<0 379.052>
LayerCount: 2
Fore
SplineSet
420 120 m 2
 420 412 l 1
 159 825 l 2
 131.875 867.921 101 888 41 888 c 0
 34 888 25 890 25 899 c 2
 25 943 l 1
 29 947 l 1
 48 946 175 943 196 943 c 0
 206 943 379 945 403 947 c 1
 405 944 l 1
 405 900 l 2
 405 895 402 888 395 888 c 2
 350 888 l 2
 320 888 309 883 309 869 c 0
 309 860 316 849 329 828 c 2
 542 500 l 1
 732 828 l 2
 744 849 750 860 750 868 c 0
 750 884 742 888 709 888 c 2
 662 888 l 1
 655 889 653 894 653 899 c 2
 653 944 l 1
 657 947 l 1
 671 947 795 943 815 943 c 0
 829 943 923 945 954 947 c 1
 957 943 l 1
 957 899 l 2
 957 894 956 888 942 888 c 2
 908 888 l 2
 860 888 838 873 811 825 c 2
 573 419 l 1
 573 120 l 2
 573 75 597 57 660 57 c 2
 703 57 l 2
 710 57 716 52 716 45 c 2
 716 2 l 1
 713 -2 l 1
 713 -2 550 2 488 2 c 0
 431 2 282 -2 282 -2 c 1
 278 2 l 1
 278 45 l 2
 278 52 283 57 291 57 c 2
 333 57 l 2
 399 57 420 79 420 120 c 2
589 1168 m 0
 589 1219 631 1261 682 1261 c 0
 733 1261 775 1219 775 1168 c 0
 775 1117 733 1075 682 1075 c 0
 631 1075 589 1117 589 1168 c 0
260 1168 m 0
 260 1219 302 1261 353 1261 c 0
 404 1261 446 1219 446 1168 c 0
 446 1117 404 1075 353 1075 c 0
 302 1075 260 1117 260 1168 c 0
EndSplineSet
LCarets2: 1 0 
EndChar

StartChar: uni04F3
Encoding: 1267 1267 127
Width: 1072
VWidth: 2047
Flags: HW
HStem: -2 59<282 348.536 348.536 418.017 574.815 644.95 644.95 713> 888 59<29 70.8595 70.8595 145.923 314.062 403 657 702.344 702.344 746.111 822.18 901.035 901.035 954>
VStem: 420 153<61.6005 412>
DStem2: 329 828 159 825 0.534224 -0.845343<0 391.062> 542 500 573 419 0.505719 0.862698<0 379.052>
LayerCount: 2
Fore
SplineSet
420 120 m 2
 420 412 l 1
 159 825 l 2
 131.875 867.921 101 888 41 888 c 0
 34 888 25 890 25 899 c 2
 25 943 l 1
 29 947 l 1
 48 946 175 943 196 943 c 0
 206 943 379 945 403 947 c 1
 405 944 l 1
 405 900 l 2
 405 895 402 888 395 888 c 2
 350 888 l 2
 320 888 309 883 309 869 c 0
 309 860 316 849 329 828 c 2
 542 500 l 1
 732 828 l 2
 744 849 750 860 750 868 c 0
 750 884 742 888 709 888 c 2
 662 888 l 1
 655 889 653 894 653 899 c 2
 653 944 l 1
 657 947 l 1
 671 947 795 943 815 943 c 0
 829 943 923 945 954 947 c 1
 957 943 l 1
 957 899 l 2
 957 894 956 888 942 888 c 2
 908 888 l 2
 860 888 838 873 811 825 c 2
 573 419 l 1
 573 120 l 2
 573 75 597 57 660 57 c 2
 703 57 l 2
 710 57 716 52 716 45 c 2
 716 2 l 1
 713 -2 l 1
 713 -2 550 2 488 2 c 0
 431 2 282 -2 282 -2 c 1
 278 2 l 1
 278 45 l 2
 278 52 283 57 291 57 c 2
 333 57 l 2
 399 57 420 79 420 120 c 2
901.5 1379 m 0
 919.5 1365 929.5 1343 929.5 1322 c 0
 929.5 1310 927.5 1295 915.5 1283 c 2
 681.5 1059 l 1
 678.5 1054 673.5 1053 669.5 1053 c 0
 659.5 1053 640.5 1064 640.5 1081 c 0
 640.5 1083 640.5 1087 642.5 1089 c 1
 802.5 1373 l 2
 812.607 1390.94 827.5 1397 851.5 1397 c 0
 869.5 1397 886.5 1391 901.5 1379 c 0
625.5 1395 m 0
 646.5 1382 659.5 1359 659.5 1334 c 0
 659.5 1324 657.5 1312 648.5 1302 c 2
 439.5 1054 l 2
 435.5 1050 429.5 1048 424.5 1048 c 0
 412.5 1048 395.5 1058 395.5 1074 c 0
 395.5 1077 395.5 1079 396.5 1081 c 2
 527.5 1380 l 2
 539.5 1407 572.5 1409 581.5 1409 c 0
 597.5 1409 610.5 1404 625.5 1395 c 0
EndSplineSet
LCarets2: 1 0 
EndChar

StartChar: uni1E00
Encoding: 7680 7680 128
Width: 1424
VWidth: 2047
Flags: HW
HStem: -441 55<603.491 769.811> -156 55<604.775 765.65> -2 59<9 9.09515 9.09515 156.504 278.619 444.853 444.853 445 898 898.145 898.145 1061.5 1259.92 1405.89 1405.89 1406> 500 80<485.064 896> 1327 20<718.5 747>
VStem: 512 65<-345.85 -192.35> 797 65<-346.58 -188.78>
DStem2: 195 166 287 147 0.392235 0.919865<18.6082 1078.8> 799 1287 694 1126 0.353155 -0.935565<113.545 1157.3>
LayerCount: 2
Fore
SplineSet
531 580 m 2
 896 580 l 1
 694 1126 l 1
 482 616 l 2
 479 609 478 604 478 599 c 0
 478 586 492 580 531 580 c 2
287 147 m 2
 281 133 278 120 278 109 c 0
 278 75 312 57 373 57 c 2
 432 57 l 2
 441 57 449 51 449 40 c 2
 449 2 l 1
 445 -2 l 1
 445 -2 242 2 192 2 c 0
 140 2 9 -2 9 -2 c 1
 5 2 l 1
 5 40 l 2
 5 51 11 57 21 57 c 2
 45 57 l 2
 129 57 165 97 195 166 c 2
 673 1287 l 2
 692 1333 708 1347 729 1347 c 0
 765 1347 783 1328 799 1287 c 2
 1218 177 l 2
 1248.17 97.0653 1289 57 1370 57 c 2
 1393 57 l 2
 1402 57 1413 51 1413 40 c 2
 1413 2 l 1
 1406 -2 l 1
 1406 -2 1250 2 1170 2 c 0
 1097 2 898 -2 898 -2 c 1
 894 2 l 1
 894 40 l 2
 894 51 900 57 910 57 c 2
 967 57 l 2
 1031 57 1063 79 1063 113 c 0
 1063 123 1061 135 1056 147 c 2
 925 500 l 1
 494 500 l 2
 444 500 429 488 419 464 c 2
 287 147 l 2
687 -156 m 0
 623.75 -156 577 -210.5 577 -271 c 0
 577 -328.58 622.762 -386 687 -386 c 0
 750.701 -386 797 -329.14 797 -271 c 0
 797 -207.75 747.5 -156 687 -156 c 0
512 -271 m 0
 512 -178.36 590.109 -101 686 -101 c 0
 780.166 -101 862 -175.72 862 -271 c 0
 862 -363.45 784.123 -441 686 -441 c 0
 591.749 -441 512 -366.43 512 -271 c 0
EndSplineSet
LCarets2: 1 0 
EndChar

StartChar: uni1E01
Encoding: 7681 7681 129
Width: 1109
VWidth: 2047
Flags: HW
HStem: -424 55<488.8 655.2> -138 55<490.1 650> -2 59<8 8.06756 8.06756 69.8701 247.935 340.883 340.883 341 702 702.126 702.126 830.978 990.05 1098.92 1098.92 1099> 358 60<381.001 706> 950 20
VStem: 397 65<-328.4 -175> 682 65<-328.4 -171.1>
DStem2: 147 143 230 120 0.419429 0.907788<13.9334 768.308> 652 920 549 805 0.375987 -0.926625<67.8353 807.098>
LayerCount: 2
Fore
SplineSet
682 -253 m 0
 682 -190 632 -138 572 -138 c 0
 509 -138 462 -193 462 -253 c 0
 462 -311 508 -369 572 -369 c 0
 636 -369 682 -311 682 -253 c 0
397 -253 m 0
 397 -160 476 -83 572 -83 c 0
 666 -83 747 -158 747 -253 c 0
 747 -345 670 -424 572 -424 c 0
 478 -424 397 -348 397 -253 c 0
329 336 m 2
 230 120 l 2
 225 110 222 101 222 94 c 0
 222 67 252 57 306 57 c 2
 331 57 l 2
 338 57 344 52 344 45 c 2
 344 2 l 1
 341 -2 l 1
 341 -2 180 2 141 2 c 0
 101 2 8 -2 8 -2 c 1
 5 2 l 1
 5 45 l 2
 5 52 10 57 17 57 c 0
 69 57 112.843 69.0724 147 143 c 2
 506 920 l 2
 525.335 961.847 560 970 574 970 c 0
 599 970 633 966 652 920 c 2
 962 156 l 2
 996 74 1023 57 1089 57 c 0
 1102 57 1104 52 1104 45 c 2
 1104 2 l 1
 1099 -2 l 1
 1099 -2 994 2 932 2 c 0
 875 2 702 -2 702 -2 c 1
 699 2 l 1
 699 45 l 2
 699 52 704 57 712 57 c 2
 749 57 l 2
 801 57 831 71 831 99 c 0
 831 105 830 112 827 120 c 2
 730 358 l 1
 374 358 l 2
 348 358 337 349 329 336 c 2
706 418 m 1
 549 805 l 1
 546 805 l 1
 381 447 l 1
 381 436.8 381.6 418 422 418 c 2
 706 418 l 1
EndSplineSet
LCarets2: 1 0 
EndChar

StartChar: uni1E02
Encoding: 7682 7682 130
Width: 1214
VWidth: 2047
Flags: HW
HStem: -2 59<38 210.378 389.539 760.824> 693 70<382 734.641> 1265 59<38 211.749 389.207 726.685> 1420 196<508.8 649.2>
VStem: 217 165<77 693 763 1243.72> 481 196<1447.8 1588.2> 849 158<867.241 1155.85> 946 183<218.487 539.783>
LayerCount: 2
Fore
SplineSet
382 1178 m 2
 382 763 l 1
 544 763 l 2
 714 763 849 832 849 1005 c 0
 849 1215 686 1252 571 1252 c 0
 394 1252 382 1245 382 1178 c 2
382 693 m 1
 382 148 l 2
 382 80 397 67 564 67 c 0
 875 67 946 253 946 379 c 0
 946 563 816 693 575 693 c 2
 382 693 l 1
35 41 m 2
 35 51 38 57 50 57 c 2
 111 57 l 2
 192 57 217 79 217 151 c 2
 217 1176 l 2
 217 1245 196 1265 111 1265 c 2
 50 1265 l 2
 39 1265 35 1271 35 1279 c 2
 35 1320.25 l 1
 38 1324 l 1
 298 1320 l 1
 298 1320 485 1324 557 1324 c 0
 938 1324 1007 1147 1007 1009 c 0
 1007 896 922 787 817 735 c 1
 1034 686 1129 546 1129 356 c 0
 1129 181 1010 -2 602 -2 c 0
 455 -2 298 2 298 2 c 1
 38 -2 l 1
 35 1.75 l 1
 35 41 l 2
481 1518 m 0
 481 1572 525 1616 579 1616 c 0
 633 1616 677 1572 677 1518 c 0
 677 1464 633 1420 579 1420 c 0
 525 1420 481 1464 481 1518 c 0
EndSplineSet
LCarets2: 1 0 
EndChar

StartChar: uni1E03
Encoding: 7683 7683 131
Width: 993
VWidth: 2047
Flags: HW
HStem: -2 59<66.121 205.189 366.515 680.289> 490 51<360 647.906> 888 59<65.2811 191.785 362.961 648.993> 1051 196<428.8 569.2>
VStem: 207 153<59.9499 490 541 885.005> 401 196<1078.8 1219.2> 700 147<604.826 842.227> 761 167<127.282 403.447>
LayerCount: 2
Fore
SplineSet
401 1149 m 0
 401 1203 445 1247 499 1247 c 0
 553 1247 597 1203 597 1149 c 0
 597 1095 553 1051 499 1051 c 0
 445 1051 401 1095 401 1149 c 0
360 842 m 2
 360 541 l 1
 498 541 l 2
 631 541 700 595 700 719 c 0
 700 869 585 895 495 895 c 0
 364 895 360 890 360 842 c 2
360 490 m 1
 360 121 l 2
 360 72 360 48 490 48 c 0
 732 48 761 181 761 271 c 0
 761 403 686 490 498 490 c 2
 360 490 l 1
65 46 m 1
 66 51 68 57 77 57 c 2
 125 57 l 2
 188 57 207 73 207 125 c 2
 207 822 l 2
 207 871 191 888 125 888 c 2
 77 888 l 2
 68 889 65 892 65 898 c 2
 65 947 l 1
 135 945 270 943 270 943 c 1
 270 943 440 947 496 947 c 0
 794 947 847 820 847 721 c 0
 847 641 781 558 699 521 c 1
 843 489 928 390 928 255 c 0
 928 129 842 -2 532 -2 c 0
 417 -2 270 2 270 2 c 1
 65 -2 l 1
 65 46 l 1
EndSplineSet
LCarets2: 1 0 
EndChar

StartChar: uni1E04
Encoding: 7684 7684 132
Width: 1214
VWidth: 2047
Flags: HW
HStem: -334 196<482.8 623.2> -2 59<38 210.378 389.539 760.824> 693 70<382 734.641> 1265 59<38 211.749 389.207 726.685>
VStem: 217 165<77 693 763 1243.72> 455 196<-306.2 -165.8> 849 158<867.241 1155.85> 946 183<218.487 539.783>
LayerCount: 2
Fore
SplineSet
382 1178 m 2
 382 763 l 1
 544 763 l 2
 714 763 849 832 849 1005 c 0
 849 1215 686 1252 571 1252 c 0
 394 1252 382 1245 382 1178 c 2
382 693 m 1
 382 148 l 2
 382 80 397 67 564 67 c 0
 875 67 946 253 946 379 c 0
 946 563 816 693 575 693 c 2
 382 693 l 1
35 41 m 2
 35 51 38 57 50 57 c 2
 111 57 l 2
 192 57 217 79 217 151 c 2
 217 1176 l 2
 217 1245 196 1265 111 1265 c 2
 50 1265 l 2
 39 1265 35 1271 35 1279 c 2
 35 1320.25 l 1
 38 1324 l 1
 298 1320 l 1
 298 1320 485 1324 557 1324 c 0
 938 1324 1007 1147 1007 1009 c 0
 1007 896 922 787 817 735 c 1
 1034 686 1129 546 1129 356 c 0
 1129 181 1010 -2 602 -2 c 0
 455 -2 298 2 298 2 c 1
 38 -2 l 1
 35 1.75 l 1
 35 41 l 2
455 -236 m 0
 455 -182 499 -138 553 -138 c 0
 607 -138 651 -182 651 -236 c 0
 651 -290 607 -334 553 -334 c 0
 499 -334 455 -290 455 -236 c 0
EndSplineSet
LCarets2: 1 0 
EndChar

StartChar: uni1E05
Encoding: 7685 7685 133
Width: 993
VWidth: 2047
Flags: HW
HStem: -350.5 222<370.8 525.5> -2 59<66.121 205.189 366.515 680.289> 490 51<360 647.906> 888 59<65.2811 191.785 362.961 648.993>
VStem: 207 153<59.9499 490 541 885.005> 336.5 222<-317.5 -162.8> 700 147<604.826 842.227> 761 167<127.282 403.447>
LayerCount: 2
Fore
SplineSet
336.5 -239.5 m 0
 336.5 -172.5 388.5 -128.5 447.5 -128.5 c 0
 514.5 -128.5 558.5 -180.5 558.5 -239.5 c 0
 558.5 -304.5 507.5 -350.5 447.5 -350.5 c 0
 382.5 -350.5 336.5 -299.5 336.5 -239.5 c 0
360 842 m 2
 360 541 l 1
 498 541 l 2
 631 541 700 595 700 719 c 0
 700 869 585 895 495 895 c 0
 364 895 360 890 360 842 c 2
360 490 m 1
 360 121 l 2
 360 72 360 48 490 48 c 0
 732 48 761 181 761 271 c 0
 761 403 686 490 498 490 c 2
 360 490 l 1
65 46 m 1
 66 51 68 57 77 57 c 2
 125 57 l 2
 188 57 207 73 207 125 c 2
 207 822 l 2
 207 871 191 888 125 888 c 2
 77 888 l 2
 68 889 65 892 65 898 c 2
 65 947 l 1
 135 945 270 943 270 943 c 1
 270 943 440 947 496 947 c 0
 794 947 847 820 847 721 c 0
 847 641 781 558 699 521 c 1
 843 489 928 390 928 255 c 0
 928 129 842 -2 532 -2 c 0
 417 -2 270 2 270 2 c 1
 65 -2 l 1
 65 46 l 1
EndSplineSet
LCarets2: 1 0 
EndChar

StartChar: uni1E06
Encoding: 7686 7686 134
Width: 1214
VWidth: 2047
Flags: HW
HStem: -217 90<299 837.8> -2 59<38 210.378 389.539 760.824> 693 70<382 734.641> 1265 59<38 211.749 389.207 726.685>
VStem: 217 165<77 693 763 1243.72> 849 158<867.241 1155.85> 946 183<218.487 539.783>
LayerCount: 2
Fore
SplineSet
382 1178 m 2
 382 763 l 1
 544 763 l 2
 714 763 849 832 849 1005 c 0
 849 1215 686 1252 571 1252 c 0
 394 1252 382 1245 382 1178 c 2
382 693 m 1
 382 148 l 2
 382 80 397 67 564 67 c 0
 875 67 946 253 946 379 c 0
 946 563 816 693 575 693 c 2
 382 693 l 1
35 41 m 2
 35 51 38 57 50 57 c 2
 111 57 l 2
 192 57 217 79 217 151 c 2
 217 1176 l 2
 217 1245 196 1265 111 1265 c 2
 50 1265 l 2
 39 1265 35 1271 35 1279 c 2
 35 1320.25 l 1
 38 1324 l 1
 298 1320 l 1
 298 1320 485 1324 557 1324 c 0
 938 1324 1007 1147 1007 1009 c 0
 1007 896 922 787 817 735 c 1
 1034 686 1129 546 1129 356 c 0
 1129 181 1010 -2 602 -2 c 0
 455 -2 298 2 298 2 c 1
 38 -2 l 1
 35 1.75 l 1
 35 41 l 2
804 -217 m 2
 303 -217 l 2
 285 -217 278 -201 278 -187 c 0
 278 -163 299 -127 323 -127 c 2
 824 -127 l 2
 844 -127 852 -143 852 -157 c 0
 852 -181 830 -217 804 -217 c 2
EndSplineSet
LCarets2: 1 0 
EndChar

StartChar: uni1E07
Encoding: 7687 7687 135
Width: 993
VWidth: 2047
Flags: HW
HStem: -224 90<238 776.8> -2 59<66.121 205.189 366.515 680.289> 490 51<360 647.906> 888 59<65.2811 191.785 362.961 648.993>
VStem: 207 153<59.9499 490 541 885.005> 700 147<604.826 842.227> 761 167<127.282 403.447>
LayerCount: 2
Fore
SplineSet
743 -224 m 2
 242 -224 l 2
 224 -224 217 -208 217 -194 c 0
 217 -170 238 -134 262 -134 c 2
 763 -134 l 2
 783 -134 791 -150 791 -164 c 0
 791 -188 769 -224 743 -224 c 2
360 842 m 2
 360 541 l 1
 498 541 l 2
 631 541 700 595 700 719 c 0
 700 869 585 895 495 895 c 0
 364 895 360 890 360 842 c 2
360 490 m 1
 360 121 l 2
 360 72 360 48 490 48 c 0
 732 48 761 181 761 271 c 0
 761 403 686 490 498 490 c 2
 360 490 l 1
65 46 m 1
 66 51 68 57 77 57 c 2
 125 57 l 2
 188 57 207 73 207 125 c 2
 207 822 l 2
 207 871 191 888 125 888 c 2
 77 888 l 2
 68 889 65 892 65 898 c 2
 65 947 l 1
 135 945 270 943 270 943 c 1
 270 943 440 947 496 947 c 0
 794 947 847 820 847 721 c 0
 847 641 781 558 699 521 c 1
 843 489 928 390 928 255 c 0
 928 129 842 -2 532 -2 c 0
 417 -2 270 2 270 2 c 1
 65 -2 l 1
 65 46 l 1
EndSplineSet
LCarets2: 1 0 
EndChar

StartChar: uni1E08
Encoding: 7688 7688 136
Width: 1319
VWidth: 2047
Flags: HW
HStem: -380 52<629.373 776.6> -172 64<715.077 795.1> -25 85<539.142 950.601> 1272 75<552.926 927.464>
VStem: 75 178<418.126 892.619> 819 109<-315.5 -188.1>
LayerCount: 2
Fore
SplineSet
734 -172 m 0
 695 -172 675 -175 642 -186 c 1
 629 -173 l 1
 696.614 -24.4171 l 1
 276.006 -8.6593 75 323.886 75 645 c 0
 75 1048 390 1347 729 1347 c 0
 980 1347 1060 1262 1178 1255 c 1
 1184 1143 1203 1044 1223 939 c 1
 1161 929 l 1
 1108 1105 990 1272 706 1272 c 0
 544 1272 253 1100 253 684 c 0
 253 385 408 60 726 60 c 0
 916 60 1054 128 1200 286 c 1
 1247 256 l 1
 1117.26 86.1283 949.194 -11.4369 767.188 -23.6858 c 1
 730 -114 l 1
 746 -110 764 -108 783 -108 c 0
 865 -108 928 -156 928 -235 c 0
 928 -322 835 -380 710 -380 c 0
 644 -380 609 -368 557 -345 c 1
 579 -300 l 1
 634 -320 656 -328 696 -328 c 0
 758 -328 819 -299 819 -244 c 0
 819 -201 781 -172 734 -172 c 0
836 1678 m 1
 964 1571 l 1
 669 1452 l 2
 624.714 1434.14 598.5 1428 581 1428 c 0
 562.5 1428 551 1438.5 551 1458 c 0
 551 1472 556.307 1483.08 582 1501 c 2
 836 1678 l 1
EndSplineSet
LCarets2: 1 0 
EndChar

StartChar: uni1E09
Encoding: 7689 7689 137
Width: 846
VWidth: 2047
Flags: HW
HStem: -372 52<449.373 596.6> -164 64<535.077 615.1> -25 71<416.172 764.695> 911 59<403.291 742.393>
VStem: 75 163<262.024 678.687> 639 109<-307.5 -180.1> 865 53<666 761.104>
LayerCount: 2
Fore
SplineSet
584 1357 m 1
 591 1360 604 1362 614 1362 c 0
 671.337 1362 696.833 1339.83 714 1324.45 c 0
 718.721 1320.22 722.923 1316.57 727 1314 c 1
 732 1292 l 1
 497 1069 l 2
 465 1039 451 1029 438 1029 c 0
 422 1029 408.001 1040.33 408.001 1053.67 c 0
 408.001 1064.67 408.188 1079.8 421 1100 c 2
 584 1357 l 1
554 -164 m 0
 515 -164 495 -167 462 -178 c 1
 449 -165 l 1
 513.889 -22.4039 l 1
 232.381 4.56444 75 237.029 75 458 c 0
 75 758 288 970 558 970 c 0
 722 970 816 934 892 934 c 1
 895 841 906 756 918 671 c 1
 865 666 l 1
 840 809 750 911 571 911 c 0
 417 911 238 824 238 479 c 0
 238 276 332 46 580 46 c 0
 716 46 788 86 883 197 c 1
 924 163 l 1
 830.918 38.8904 735.015 -21.2899 583.422 -24.8335 c 1
 550 -106 l 1
 566 -102 584 -100 603 -100 c 0
 685 -100 748 -148 748 -227 c 0
 748 -314 655 -372 530 -372 c 0
 464 -372 429 -360 377 -337 c 1
 399 -292 l 1
 454 -312 476 -320 516 -320 c 0
 578 -320 639 -291 639 -236 c 0
 639 -193 601 -164 554 -164 c 0
EndSplineSet
LCarets2: 1 0 
EndChar

StartChar: uni1E0A
Encoding: 7690 7690 138
Width: 1428
VWidth: 2047
Flags: HW
HStem: -2 59<38 50 50 211.976 422.871 882.828> 1265 59<38 53 53 213.647 421.452 791.782> 1429 196<536.8 677.2>
VStem: 217 165<80.7039 1239.96> 509 196<1456.8 1597.2> 1152 188<367.398 857.642>
LayerCount: 2
Fore
SplineSet
35 39 m 2
 35 49 40 57 50 57 c 2
 111 57 l 2
 188 57 217 85 217 151 c 2
 217 1171 l 2
 217 1245 197 1265 111 1265 c 2
 53 1265 l 2
 42 1265 35 1272 35 1283 c 2
 35 1319.83 l 1
 38 1324 l 1
 296 1320 l 1
 296 1320 563 1324 632 1324 c 0
 1027 1324 1340 1011 1340 631 c 0
 1340 128 959 -2 669 -2 c 0
 459 -2 296 2 296 2 c 1
 38 -2 l 1
 35 2 l 1
 35 39 l 2
382 147 m 2
 382 81 406 67 607 67 c 0
 895 67 1152 168 1152 581 c 0
 1152 897 997 1255 556 1255 c 0
 454 1255 382 1248 382 1175 c 2
 382 147 l 2
509 1527 m 0
 509 1581 553 1625 607 1625 c 0
 661 1625 705 1581 705 1527 c 0
 705 1473 661 1429 607 1429 c 0
 553 1429 509 1473 509 1527 c 0
EndSplineSet
LCarets2: 1 0 
EndChar

StartChar: uni1E0B
Encoding: 7691 7691 139
Width: 1160
VWidth: 2047
Flags: HW
HStem: -2 59<68 200.066 387.755 770.433> 888 59<68 205.483 393.782 706.828> 1051 196<499.8 640.2>
VStem: 207 153<71.6936 880.459> 472 196<1078.8 1219.2> 925 160<237.172 654.323>
LayerCount: 2
Fore
SplineSet
472 1149 m 0
 472 1203 516 1247 570 1247 c 0
 624 1247 668 1203 668 1149 c 0
 668 1095 624 1051 570 1051 c 0
 516 1051 472 1095 472 1149 c 0
65 44 m 2
 65 51 69 57 77 57 c 2
 125 57 l 2
 185 57 207 86 207 149 c 2
 207 820 l 2
 207 873 192 888 125 888 c 2
 79 888 l 2
 71 888 65 893 65 900 c 2
 65 943 l 1
 68 947 l 1
 269 943 l 2
 377 945 501 947 555 947 c 0
 863 947 1085 723 1085 451 c 0
 1085 92 810 -2 584 -2 c 0
 420 -2 326 2 269 2 c 2
 68 -2 l 1
 65 2 l 1
 65 44 l 2
360 145 m 2
 360 88 379 55 535 55 c 0
 760 55 925 120 925 415 c 0
 925 641 840 888 496 888 c 0
 416 888 360 883 360 831 c 2
 360 145 l 2
EndSplineSet
LCarets2: 1 0 
EndChar

StartChar: uni1E0C
Encoding: 7692 7692 140
Width: 1428
VWidth: 2047
Flags: HW
HStem: -334 196<522.8 663.2> -2 59<38 50 50 211.976 422.871 882.828> 1265 59<38 53 53 213.647 421.452 791.782>
VStem: 217 165<80.7039 1239.96> 495 196<-306.2 -165.8> 1152 188<367.398 857.642>
LayerCount: 2
Fore
SplineSet
35 39 m 2
 35 49 40 57 50 57 c 2
 111 57 l 2
 188 57 217 85 217 151 c 2
 217 1171 l 2
 217 1245 197 1265 111 1265 c 2
 53 1265 l 2
 42 1265 35 1272 35 1283 c 2
 35 1319.83 l 1
 38 1324 l 1
 296 1320 l 1
 296 1320 563 1324 632 1324 c 0
 1027 1324 1340 1011 1340 631 c 0
 1340 128 959 -2 669 -2 c 0
 459 -2 296 2 296 2 c 1
 38 -2 l 1
 35 2 l 1
 35 39 l 2
382 147 m 2
 382 81 406 67 607 67 c 0
 895 67 1152 168 1152 581 c 0
 1152 897 997 1255 556 1255 c 0
 454 1255 382 1248 382 1175 c 2
 382 147 l 2
495 -236 m 0
 495 -182 539 -138 593 -138 c 0
 647 -138 691 -182 691 -236 c 0
 691 -290 647 -334 593 -334 c 0
 539 -334 495 -290 495 -236 c 0
EndSplineSet
LCarets2: 1 0 
EndChar

StartChar: uni1E0D
Encoding: 7693 7693 141
Width: 1160
VWidth: 2047
Flags: HW
HStem: -331 196<524.8 665.2> -2 59<68 200.066 387.755 770.433> 888 59<68 205.483 393.782 706.828>
VStem: 207 153<71.6936 880.459> 497 196<-303.2 -162.8> 925 160<237.172 654.323>
LayerCount: 2
Fore
SplineSet
497 -233 m 0
 497 -179 541 -135 595 -135 c 0
 649 -135 693 -179 693 -233 c 0
 693 -287 649 -331 595 -331 c 0
 541 -331 497 -287 497 -233 c 0
65 44 m 2
 65 51 69 57 77 57 c 2
 125 57 l 2
 185 57 207 86 207 149 c 2
 207 820 l 2
 207 873 192 888 125 888 c 2
 79 888 l 2
 71 888 65 893 65 900 c 2
 65 943 l 1
 68 947 l 1
 269 943 l 2
 377 945 501 947 555 947 c 0
 863 947 1085 723 1085 451 c 0
 1085 92 810 -2 584 -2 c 0
 420 -2 326 2 269 2 c 2
 68 -2 l 1
 65 2 l 1
 65 44 l 2
360 145 m 2
 360 88 379 55 535 55 c 0
 760 55 925 120 925 415 c 0
 925 641 840 888 496 888 c 0
 416 888 360 883 360 831 c 2
 360 145 l 2
EndSplineSet
EndChar

StartChar: uni1E0E
Encoding: 7694 7694 142
Width: 1428
VWidth: 2047
Flags: HW
HStem: -215 90<314 852.8> -2 59<38 50 50 211.976 422.871 882.828> 1265 59<38 53 53 213.647 421.452 791.782>
VStem: 217 165<80.7039 1239.96> 1152 188<367.398 857.642>
LayerCount: 2
Fore
SplineSet
35 39 m 2
 35 49 40 57 50 57 c 2
 111 57 l 2
 188 57 217 85 217 151 c 2
 217 1171 l 2
 217 1245 197 1265 111 1265 c 2
 53 1265 l 2
 42 1265 35 1272 35 1283 c 2
 35 1319.83 l 1
 38 1324 l 1
 296 1320 l 1
 296 1320 563 1324 632 1324 c 0
 1027 1324 1340 1011 1340 631 c 0
 1340 128 959 -2 669 -2 c 0
 459 -2 296 2 296 2 c 1
 38 -2 l 1
 35 2 l 1
 35 39 l 2
382 147 m 2
 382 81 406 67 607 67 c 0
 895 67 1152 168 1152 581 c 0
 1152 897 997 1255 556 1255 c 0
 454 1255 382 1248 382 1175 c 2
 382 147 l 2
819 -215 m 2
 318 -215 l 2
 300 -215 293 -199 293 -185 c 0
 293 -161 314 -125 338 -125 c 2
 839 -125 l 2
 859 -125 867 -141 867 -155 c 0
 867 -179 845 -215 819 -215 c 2
EndSplineSet
LCarets2: 1 0 
EndChar

StartChar: uni1E0F
Encoding: 7695 7695 143
Width: 1160
VWidth: 2047
Flags: HW
HStem: -223 90<213 751.8> -2 59<68 200.066 387.755 770.433> 888 59<68 205.483 393.782 706.828>
VStem: 207 153<71.6936 880.459> 925 160<237.172 654.323>
LayerCount: 2
Fore
SplineSet
718 -223 m 2
 217 -223 l 2
 199 -223 192 -207 192 -193 c 0
 192 -169 213 -133 237 -133 c 2
 738 -133 l 2
 758 -133 766 -149 766 -163 c 0
 766 -187 744 -223 718 -223 c 2
65 44 m 2
 65 51 69 57 77 57 c 2
 125 57 l 2
 185 57 207 86 207 149 c 2
 207 820 l 2
 207 873 192 888 125 888 c 2
 79 888 l 2
 71 888 65 893 65 900 c 2
 65 943 l 1
 68 947 l 1
 269 943 l 2
 377 945 501 947 555 947 c 0
 863 947 1085 723 1085 451 c 0
 1085 92 810 -2 584 -2 c 0
 420 -2 326 2 269 2 c 2
 68 -2 l 1
 65 2 l 1
 65 44 l 2
360 145 m 2
 360 88 379 55 535 55 c 0
 760 55 925 120 925 415 c 0
 925 641 840 888 496 888 c 0
 416 888 360 883 360 831 c 2
 360 145 l 2
EndSplineSet
LCarets2: 1 0 
EndChar

StartChar: uni1E10
Encoding: 7696 7696 144
Width: 1428
VWidth: 2047
Flags: HW
HStem: -372 52<254.373 401.6> -164 64<340.077 420.1> -2 59<38 50 50 211.976 422.871 882.828> 1265 59<38 53 53 213.647 421.452 791.782>
VStem: 217 165<80.7039 1239.96> 444 109<-307.5 -180.1> 1152 188<367.398 857.642>
LayerCount: 2
Fore
SplineSet
35 39 m 2
 35 49 40 57 50 57 c 2
 111 57 l 2
 188 57 217 85 217 151 c 2
 217 1171 l 2
 217 1245 197 1265 111 1265 c 2
 53 1265 l 2
 42 1265 35 1272 35 1283 c 2
 35 1319.83 l 1
 38 1324 l 1
 296 1320 l 1
 296 1320 563 1324 632 1324 c 0
 1027 1324 1340 1011 1340 631 c 0
 1340 128 959 -2 669 -2 c 0
 561.324 -2 466.004 -0.948377 398.679 0.076444 c 1
 355 -106 l 1
 371 -102 389 -100 408 -100 c 0
 490 -100 553 -148 553 -227 c 0
 553 -314 460 -372 335 -372 c 0
 269 -372 234 -360 182 -337 c 1
 204 -292 l 1
 259 -312 281 -320 321 -320 c 0
 383 -320 444 -291 444 -236 c 0
 444 -193 406 -164 359 -164 c 0
 320 -164 300 -167 267 -178 c 1
 254 -165 l 1
 329.665 1.27671 l 1
 307.993 1.70568 296 2 296 2 c 1
 38 -2 l 1
 35 2 l 1
 35 39 l 2
382 147 m 2
 382 81 406 67 607 67 c 0
 895 67 1152 168 1152 581 c 0
 1152 897 997 1255 556 1255 c 0
 454 1255 382 1248 382 1175 c 2
 382 147 l 2
EndSplineSet
LCarets2: 1 0 
EndChar

StartChar: uni1E11
Encoding: 7697 7697 145
Width: 1160
VWidth: 2047
Flags: HW
HStem: -363 52<349.373 496.6> -155 64<435.077 515.1> -2 59<68 200.066 387.755 770.433> 888 59<68 205.483 393.782 706.828>
VStem: 207 153<71.6936 880.459> 539 109<-298.5 -171.1> 925 160<237.172 654.323>
LayerCount: 2
Fore
SplineSet
454 -155 m 0
 415 -155 395 -158 362 -169 c 1
 349 -156 l 1
 419.711 -0.609299 l 1
 351.197 0.545529 303.371 2 269 2 c 2
 68 -2 l 1
 65 2 l 1
 65 44 l 2
 65 51 69 57 77 57 c 2
 125 57 l 2
 185 57 207 86 207 149 c 2
 207 820 l 2
 207 873 192 888 125 888 c 2
 79 888 l 2
 71 888 65 893 65 900 c 2
 65 943 l 1
 68 947 l 1
 269 943 l 2
 377 945 501 947 555 947 c 0
 863 947 1085 723 1085 451 c 0
 1085 92 810 -2 584 -2 c 0
 549.428 -2 517.966 -1.82224 489.306 -1.54167 c 1
 450 -97 l 1
 466 -93 484 -91 503 -91 c 0
 585 -91 648 -139 648 -218 c 0
 648 -305 555 -363 430 -363 c 0
 364 -363 329 -351 277 -328 c 1
 299 -283 l 1
 354 -303 376 -311 416 -311 c 0
 478 -311 539 -282 539 -227 c 0
 539 -184 501 -155 454 -155 c 0
360 145 m 2
 360 88 379 55 535 55 c 0
 760 55 925 120 925 415 c 0
 925 641 840 888 496 888 c 0
 416 888 360 883 360 831 c 2
 360 145 l 2
EndSplineSet
LCarets2: 1 0 
EndChar

StartChar: uni1E12
Encoding: 7698 7698 146
Width: 1428
VWidth: 2047
Flags: HW
HStem: -2 59<38 50 50 211.976 422.871 882.828> 1265 59<38 53 53 213.647 421.452 791.782>
VStem: 217 165<80.7039 1239.96> 1152 188<367.398 857.642>
LayerCount: 2
Fore
SplineSet
35 39 m 2
 35 49 40 57 50 57 c 2
 111 57 l 2
 188 57 217 85 217 151 c 2
 217 1171 l 2
 217 1245 197 1265 111 1265 c 2
 53 1265 l 2
 42 1265 35 1272 35 1283 c 2
 35 1319.83 l 1
 38 1324 l 1
 296 1320 l 1
 296 1320 563 1324 632 1324 c 0
 1027 1324 1340 1011 1340 631 c 0
 1340 128 959 -2 669 -2 c 0
 459 -2 296 2 296 2 c 1
 38 -2 l 1
 35 2 l 1
 35 39 l 2
382 147 m 2
 382 81 406 67 607 67 c 0
 895 67 1152 168 1152 581 c 0
 1152 897 997 1255 556 1255 c 0
 454 1255 382 1248 382 1175 c 2
 382 147 l 2
598 -117 m 1
 657 -213 732 -299 805 -381 c 1
 763 -410 l 1
 683 -351 614 -300 545 -226 c 1
 469 -304 403 -355 327 -410 c 1
 286 -381 l 1
 358 -300 436 -211 496 -117 c 1
 598 -117 l 1
EndSplineSet
LCarets2: 1 0 
EndChar

StartChar: uni1E13
Encoding: 7699 7699 147
Width: 1160
VWidth: 2047
Flags: HW
HStem: -2 59<68 200.066 387.755 770.433> 888 59<68 205.483 393.782 706.828>
VStem: 207 153<71.6936 880.459> 925 160<237.172 654.323>
LayerCount: 2
Fore
SplineSet
494 -122 m 1
 553 -218 628 -304 701 -386 c 1
 659 -415 l 1
 579 -356 510 -305 441 -231 c 1
 365 -309 299 -360 223 -415 c 1
 182 -386 l 1
 254 -305 332 -216 392 -122 c 1
 494 -122 l 1
65 44 m 2
 65 51 69 57 77 57 c 2
 125 57 l 2
 185 57 207 86 207 149 c 2
 207 820 l 2
 207 873 192 888 125 888 c 2
 79 888 l 2
 71 888 65 893 65 900 c 2
 65 943 l 1
 68 947 l 1
 269 943 l 2
 377 945 501 947 555 947 c 0
 863 947 1085 723 1085 451 c 0
 1085 92 810 -2 584 -2 c 0
 420 -2 326 2 269 2 c 2
 68 -2 l 1
 65 2 l 1
 65 44 l 2
360 145 m 2
 360 88 379 55 535 55 c 0
 760 55 925 120 925 415 c 0
 925 641 840 888 496 888 c 0
 416 888 360 883 360 831 c 2
 360 145 l 2
EndSplineSet
LCarets2: 1 0 
EndChar

StartChar: uni1E14
Encoding: 7700 7700 148
Width: 1167
VWidth: 2047
Flags: HW
HStem: -2 59<28 199.931> 0 80<375.074 920.566> 669 70<373 740.095> 888 20<781 832.5> 1242 80<375.211 857.022> 1265 59<29 200.021> 1501 90<355 893.8>
VStem: 208 165<83.591 669 739 1238.57> 768 69<508 579 830 904.994>
LayerCount: 2
Fore
SplineSet
42.3496 1703.08 m 1
 233.31 1550.84 l 2
 250.25 1536.76 257.18 1525.32 257.18 1513 c 0
 257.18 1494.96 248.71 1486.6 234.08 1486.6 c 0
 220.22 1486.6 199.754 1492.29 166.32 1507.72 c 2
 -77.7695 1620.36 l 1
 42.3496 1703.08 l 1
723 1242 m 2
 447 1242 l 2
 398 1242 373 1224 373 1175 c 2
 373 739 l 1
 653 739 l 2
 725 739 742.922 773.018 756 830 c 2
 770 891 l 2
 771 900 777 908 785 908 c 2
 830 908 l 2
 835 908 837 904 837 899 c 0
 830 848 821 773 821 704 c 0
 821 634 832 543 837 508 c 1
 832 501 l 1
 785 501 l 2
 774 501 769 509 768 516 c 2
 756 579 l 2
 744.77 637.957 722 669 653 669 c 2
 373 669 l 1
 373 147 l 2
 373 93 402 80 447 80 c 2
 786 80 l 2
 942 80 1002 200 1043 348 c 1
 1105 338 l 1
 1082 232 1060 114 1051 0 c 1
 449 0 l 1
 290 2 l 1
 28 -2 l 1
 25 2 l 1
 25 43 l 2
 25 50 28 57 41 57 c 2
 102 57 l 2
 184 57 208 90 208 147 c 2
 208 1173 l 2
 208 1237 180 1265 102 1265 c 2
 41 1265 l 2
 27 1265 25 1274 25 1279 c 2
 25 1320 l 1
 29 1324 l 1
 291 1320 l 1
 450 1322 l 1
 975 1324 l 1
 984 1215 1002 1090 1018 1006 c 1
 958 996 l 1
 913 1137 877 1242 723 1242 c 2
860 1501 m 2
 359 1501 l 2
 341 1501 334 1517 334 1531 c 0
 334 1555 355 1591 379 1591 c 2
 880 1591 l 2
 900 1591 908 1575 908 1561 c 0
 908 1537 886 1501 860 1501 c 2
EndSplineSet
LCarets2: 1 0 
EndChar

StartChar: uni1E15
Encoding: 7701 7701 149
Width: 950
VWidth: 2047
Flags: HW
HStem: -2 59<68 204.917 379.874 740.48> 471 65<360 612.703> 888 59<68 204.969 360.056 729.762> 1043 90<266.5 805.3>
VStem: 207 153<61.0434 471 536 884.156> 628 54<351.224 407.69> 809 51<693.5 778.346> 823 52<156.475 255>
LayerCount: 2
Fore
SplineSet
434 1545.1 m 1
 548.4 1313.8 l 2
 557.2 1295.8 558.8 1283.2 558.8 1269.7 c 0
 558.8 1260.7 547.6 1249.9 534.8 1249.9 c 0
 524.4 1249.9 513.2 1258.9 487.6 1285.9 c 2
 299.6 1486.6 l 1
 303.6 1506.4 l 1
 316.4 1518.1 354 1549.6 410 1549.6 c 0
 418 1549.6 428.4 1547.8 434 1545.1 c 1
731.5 1043 m 2
 230.5 1043 l 2
 212.5 1043 205.5 1059 205.5 1073 c 0
 205.5 1097 226.5 1133 250.5 1133 c 2
 751.5 1133 l 2
 771.5 1133 779.5 1117 779.5 1103 c 0
 779.5 1079 757.5 1043 731.5 1043 c 2
830 947 m 1
 832 857 846 779 860 700 c 1
 809 694 l 1
 787 768 748 888 618 888 c 2
 418 888 l 2
 379 888 360 875 360 840 c 2
 360 536 l 1
 539 536 l 2
 595 536 609 560 619 601 c 2
 630 644 l 2
 631 651 635 656 642 656 c 2
 677 656 l 2
 681 656 682 654 682 650 c 0
 678 603 670 546 670 497 c 0
 670 446 677 404 682 356 c 1
 678 351 l 1
 642 351 l 2
 633 351 629 357 628 362 c 2
 619 407 l 2
 610 449 592 471 539 471 c 2
 360 471 l 1
 360 105 l 2
 360 66 383 57 418 57 c 2
 620 57 l 2
 744 57 791 152 823 255 c 1
 875 249 l 1
 850 149 835 65 832 0 c 1
 419 0 l 1
 271 2 l 1
 68 -2 l 1
 65 2 l 1
 65 47 l 2
 65 52 67 57 77 57 c 2
 125 57 l 2
 189 57 207 82 207 123 c 2
 207 822 l 2
 207 868 185 888 125 888 c 2
 77 888 l 2
 66 888 65 894 65 898 c 2
 65 942 l 1
 68 947 l 1
 272 943 l 1
 420 947 l 1
 830 947 l 1
EndSplineSet
LCarets2: 1 0 
EndChar

StartChar: uni1E16
Encoding: 7702 7702 150
Width: 1167
VWidth: 2047
Flags: HW
HStem: -2 59<28 199.931> 0 80<375.074 920.566> 669 70<373 740.095> 888 20<781 832.5> 1242 80<375.211 857.022> 1265 59<29 200.021> 1501 90<240 778.8>
VStem: 208 165<83.591 669 739 1238.57> 768 69<508 579 830 904.994>
LayerCount: 2
Fore
SplineSet
1096.06 1704.6 m 1
 1194.62 1610.44 l 1
 967.47 1505.72 l 2
 933.368 1490 913.185 1484.6 899.71 1484.6 c 0
 885.465 1484.6 876.61 1493.84 876.61 1511 c 0
 876.61 1523.32 880.696 1533.07 900.48 1548.84 c 2
 1096.06 1704.6 l 1
723 1242 m 2
 447 1242 l 2
 398 1242 373 1224 373 1175 c 2
 373 739 l 1
 653 739 l 2
 725 739 742.922 773.018 756 830 c 2
 770 891 l 2
 771 900 777 908 785 908 c 2
 830 908 l 2
 835 908 837 904 837 899 c 0
 830 848 821 773 821 704 c 0
 821 634 832 543 837 508 c 1
 832 501 l 1
 785 501 l 2
 774 501 769 509 768 516 c 2
 756 579 l 2
 744.77 637.957 722 669 653 669 c 2
 373 669 l 1
 373 147 l 2
 373 93 402 80 447 80 c 2
 786 80 l 2
 942 80 1002 200 1043 348 c 1
 1105 338 l 1
 1082 232 1060 114 1051 0 c 1
 449 0 l 1
 290 2 l 1
 28 -2 l 1
 25 2 l 1
 25 43 l 2
 25 50 28 57 41 57 c 2
 102 57 l 2
 184 57 208 90 208 147 c 2
 208 1173 l 2
 208 1237 180 1265 102 1265 c 2
 41 1265 l 2
 27 1265 25 1274 25 1279 c 2
 25 1320 l 1
 29 1324 l 1
 291 1320 l 1
 450 1322 l 1
 975 1324 l 1
 984 1215 1002 1090 1018 1006 c 1
 958 996 l 1
 913 1137 877 1242 723 1242 c 2
745 1501 m 2
 244 1501 l 2
 226 1501 219 1517 219 1531 c 0
 219 1555 240 1591 264 1591 c 2
 765 1591 l 2
 785 1591 793 1575 793 1561 c 0
 793 1537 771 1501 745 1501 c 2
EndSplineSet
LCarets2: 1 0 
EndChar

StartChar: uni1E17
Encoding: 7703 7703 151
Width: 950
VWidth: 2047
Flags: HW
HStem: -2 59<68 204.917 379.874 740.48> 471 65<360 612.703> 888 59<68 204.969 360.056 729.762> 1043 90<266.5 805.3>
VStem: 207 153<61.0434 471 536 884.156> 628 54<351.224 407.69> 809 51<693.5 778.346> 823 52<156.475 255>
LayerCount: 2
Fore
SplineSet
540.4 1535.1 m 1
 546 1537.8 556.4 1539.6 564.4 1539.6 c 0
 610.27 1539.6 630.666 1519.65 644.4 1505.8 c 0
 648.177 1502 651.538 1498.71 654.8 1496.4 c 1
 658.8 1476.6 l 1
 470.8 1275.9 l 2
 445.2 1248.9 434 1239.9 423.6 1239.9 c 0
 410.8 1239.9 399.601 1250.1 399.601 1262.1 c 0
 399.601 1272 399.751 1285.62 410 1303.8 c 2
 540.4 1535.1 l 1
731.5 1043 m 2
 230.5 1043 l 2
 212.5 1043 205.5 1059 205.5 1073 c 0
 205.5 1097 226.5 1133 250.5 1133 c 2
 751.5 1133 l 2
 771.5 1133 779.5 1117 779.5 1103 c 0
 779.5 1079 757.5 1043 731.5 1043 c 2
830 947 m 1
 832 857 846 779 860 700 c 1
 809 694 l 1
 787 768 748 888 618 888 c 2
 418 888 l 2
 379 888 360 875 360 840 c 2
 360 536 l 1
 539 536 l 2
 595 536 609 560 619 601 c 2
 630 644 l 2
 631 651 635 656 642 656 c 2
 677 656 l 2
 681 656 682 654 682 650 c 0
 678 603 670 546 670 497 c 0
 670 446 677 404 682 356 c 1
 678 351 l 1
 642 351 l 2
 633 351 629 357 628 362 c 2
 619 407 l 2
 610 449 592 471 539 471 c 2
 360 471 l 1
 360 105 l 2
 360 66 383 57 418 57 c 2
 620 57 l 2
 744 57 791 152 823 255 c 1
 875 249 l 1
 850 149 835 65 832 0 c 1
 419 0 l 1
 271 2 l 1
 68 -2 l 1
 65 2 l 1
 65 47 l 2
 65 52 67 57 77 57 c 2
 125 57 l 2
 189 57 207 82 207 123 c 2
 207 822 l 2
 207 868 185 888 125 888 c 2
 77 888 l 2
 66 888 65 894 65 898 c 2
 65 942 l 1
 68 947 l 1
 272 943 l 1
 420 947 l 1
 830 947 l 1
EndSplineSet
LCarets2: 1 0 
EndChar

StartChar: uni1E18
Encoding: 7704 7704 152
Width: 1167
VWidth: 2047
Flags: HW
HStem: -2 59<28 199.931> 0 80<375.074 920.566> 669 70<373 740.095> 888 20<781 832.5> 1242 80<375.211 857.022> 1265 59<29 200.021>
VStem: 208 165<83.591 669 739 1238.57> 768 69<508 579 830 904.994>
LayerCount: 2
Fore
SplineSet
723 1242 m 2
 447 1242 l 2
 398 1242 373 1224 373 1175 c 2
 373 739 l 1
 653 739 l 2
 725 739 742.922 773.018 756 830 c 2
 770 891 l 2
 771 900 777 908 785 908 c 2
 830 908 l 2
 835 908 837 904 837 899 c 0
 830 848 821 773 821 704 c 0
 821 634 832 543 837 508 c 1
 832 501 l 1
 785 501 l 2
 774 501 769 509 768 516 c 2
 756 579 l 2
 744.77 637.957 722 669 653 669 c 2
 373 669 l 1
 373 147 l 2
 373 93 402 80 447 80 c 2
 786 80 l 2
 942 80 1002 200 1043 348 c 1
 1105 338 l 1
 1082 232 1060 114 1051 0 c 1
 449 0 l 1
 290 2 l 1
 28 -2 l 1
 25 2 l 1
 25 43 l 2
 25 50 28 57 41 57 c 2
 102 57 l 2
 184 57 208 90 208 147 c 2
 208 1173 l 2
 208 1237 180 1265 102 1265 c 2
 41 1265 l 2
 27 1265 25 1274 25 1279 c 2
 25 1320 l 1
 29 1324 l 1
 291 1320 l 1
 450 1322 l 1
 975 1324 l 1
 984 1215 1002 1090 1018 1006 c 1
 958 996 l 1
 913 1137 877 1242 723 1242 c 2
614 -117 m 1
 673 -213 748 -299 821 -381 c 1
 779 -410 l 1
 699 -351 630 -300 561 -226 c 1
 485 -304 419 -355 343 -410 c 1
 302 -381 l 1
 374 -300 452 -211 512 -117 c 1
 614 -117 l 1
EndSplineSet
LCarets2: 1 0 
EndChar

StartChar: uni1E19
Encoding: 7705 7705 153
Width: 950
VWidth: 2047
Flags: HW
HStem: -2 59<68 204.917 379.874 740.48> 471 65<360 612.703> 888 59<68 204.969 360.056 729.762>
VStem: 207 153<61.0434 471 536 884.156> 628 54<351.224 407.69> 809 51<693.5 778.346> 823 52<156.475 255>
LayerCount: 2
Fore
SplineSet
539 -132 m 1
 598 -228 673 -314 746 -396 c 1
 704 -425 l 1
 624 -366 555 -315 486 -241 c 1
 410 -319 344 -370 268 -425 c 1
 227 -396 l 1
 299 -315 377 -226 437 -132 c 1
 539 -132 l 1
830 947 m 1
 832 857 846 779 860 700 c 1
 809 694 l 1
 787 768 748 888 618 888 c 2
 418 888 l 2
 379 888 360 875 360 840 c 2
 360 536 l 1
 539 536 l 2
 595 536 609 560 619 601 c 2
 630 644 l 2
 631 651 635 656 642 656 c 2
 677 656 l 2
 681 656 682 654 682 650 c 0
 678 603 670 546 670 497 c 0
 670 446 677 404 682 356 c 1
 678 351 l 1
 642 351 l 2
 633 351 629 357 628 362 c 2
 619 407 l 2
 610 449 592 471 539 471 c 2
 360 471 l 1
 360 105 l 2
 360 66 383 57 418 57 c 2
 620 57 l 2
 744 57 791 152 823 255 c 1
 875 249 l 1
 850 149 835 65 832 0 c 1
 419 0 l 1
 271 2 l 1
 68 -2 l 1
 65 2 l 1
 65 47 l 2
 65 52 67 57 77 57 c 2
 125 57 l 2
 189 57 207 82 207 123 c 2
 207 822 l 2
 207 868 185 888 125 888 c 2
 77 888 l 2
 66 888 65 894 65 898 c 2
 65 942 l 1
 68 947 l 1
 272 943 l 1
 420 947 l 1
 830 947 l 1
EndSplineSet
EndChar

StartChar: uni1E1A
Encoding: 7706 7706 154
Width: 1167
VWidth: 2047
Flags: HW
HStem: -336 90<638.3 746.2> -237 94<351.1 466.8> -2 59<28 199.931> 0 80<375.074 920.566> 669 70<373 740.095> 888 20<781 832.5> 1242 80<375.211 857.022> 1265 59<29 200.021>
VStem: 208 165<83.591 669 739 1238.57> 272 568<-325 -151> 768 69<508 579 830 904.994>
LayerCount: 2
Fore
SplineSet
723 1242 m 2
 447 1242 l 2
 398 1242 373 1224 373 1175 c 2
 373 739 l 1
 653 739 l 2
 725 739 742.922 773.018 756 830 c 2
 770 891 l 2
 771 900 777 908 785 908 c 2
 830 908 l 2
 835 908 837 904 837 899 c 0
 830 848 821 773 821 704 c 0
 821 634 832 543 837 508 c 1
 832 501 l 1
 785 501 l 2
 774 501 769 509 768 516 c 2
 756 579 l 2
 744.77 637.957 722 669 653 669 c 2
 373 669 l 1
 373 147 l 2
 373 93 402 80 447 80 c 2
 786 80 l 2
 942 80 1002 200 1043 348 c 1
 1105 338 l 1
 1082 232 1060 114 1051 0 c 1
 449 0 l 1
 290 2 l 1
 28 -2 l 1
 25 2 l 1
 25 43 l 2
 25 50 28 57 41 57 c 2
 102 57 l 2
 184 57 208 90 208 147 c 2
 208 1173 l 2
 208 1237 180 1265 102 1265 c 2
 41 1265 l 2
 27 1265 25 1274 25 1279 c 2
 25 1320 l 1
 29 1324 l 1
 291 1320 l 1
 450 1322 l 1
 975 1324 l 1
 984 1215 1002 1090 1018 1006 c 1
 958 996 l 1
 913 1137 877 1242 723 1242 c 2
689 -246 m 0
 733 -246 762 -224 791 -138 c 1
 840 -151 l 1
 815 -274 757 -336 662 -336 c 0
 617 -336 574.215 -309.662 532 -283 c 0
 494 -259 456 -237 420 -237 c 0
 367 -237 340 -267 320 -335 c 1
 272 -325 l 1
 300 -204 346 -143 434 -143 c 0
 497 -143 542 -172 582 -200 c 0
 616.094 -223.866 650 -246 689 -246 c 0
EndSplineSet
EndChar

StartChar: uni1E1B
Encoding: 7707 7707 155
Width: 950
VWidth: 2047
Flags: HW
HStem: -326 90<563.3 671.2> -227 94<276.1 391.8> -2 59<68 204.917 379.874 740.48> 471 65<360 612.703> 888 59<68 204.969 360.056 729.762>
VStem: 197 568<-315 -141> 207 153<61.0434 471 536 884.156> 628 54<351.224 407.69> 809 51<693.5 778.346> 823 52<156.475 255>
LayerCount: 2
Fore
SplineSet
614 -236 m 0
 658 -236 687 -214 716 -128 c 1
 765 -141 l 1
 740 -264 682 -326 587 -326 c 0
 542 -326 499.215 -299.662 457 -273 c 0
 419 -249 381 -227 345 -227 c 0
 292 -227 265 -257 245 -325 c 1
 197 -315 l 1
 225 -194 271 -133 359 -133 c 0
 422 -133 467 -162 507 -190 c 0
 541.094 -213.866 575 -236 614 -236 c 0
830 947 m 1
 832 857 846 779 860 700 c 1
 809 694 l 1
 787 768 748 888 618 888 c 2
 418 888 l 2
 379 888 360 875 360 840 c 2
 360 536 l 1
 539 536 l 2
 595 536 609 560 619 601 c 2
 630 644 l 2
 631 651 635 656 642 656 c 2
 677 656 l 2
 681 656 682 654 682 650 c 0
 678 603 670 546 670 497 c 0
 670 446 677 404 682 356 c 1
 678 351 l 1
 642 351 l 2
 633 351 629 357 628 362 c 2
 619 407 l 2
 610 449 592 471 539 471 c 2
 360 471 l 1
 360 105 l 2
 360 66 383 57 418 57 c 2
 620 57 l 2
 744 57 791 152 823 255 c 1
 875 249 l 1
 850 149 835 65 832 0 c 1
 419 0 l 1
 271 2 l 1
 68 -2 l 1
 65 2 l 1
 65 47 l 2
 65 52 67 57 77 57 c 2
 125 57 l 2
 189 57 207 82 207 123 c 2
 207 822 l 2
 207 868 185 888 125 888 c 2
 77 888 l 2
 66 888 65 894 65 898 c 2
 65 942 l 1
 68 947 l 1
 272 943 l 1
 420 947 l 1
 830 947 l 1
EndSplineSet
EndChar

StartChar: uni1E1C
Encoding: 7708 7708 156
Width: 1167
VWidth: 2047
Flags: HW
HStem: -372 52<441.373 588.6> -164 64<527.077 607.1> -2 59<28 199.931> 0 80<375.074 920.566> 669 70<373 740.095> 888 20<781 832.5> 1242 80<375.211 857.022> 1265 59<29 200.021> 1417 107<474.3 746> 1629 20<337 394 836 891>
VStem: 208 165<83.591 669 739 1238.57> 337 554<1551.82 1649 1649 1649> 631 109<-307.5 -180.1> 768 69<508 579 830 904.994>
LayerCount: 2
Fore
SplineSet
723 1242 m 2
 447 1242 l 2
 398 1242 373 1224 373 1175 c 2
 373 739 l 1
 653 739 l 2
 725 739 742.922 773.018 756 830 c 2
 770 891 l 2
 771 900 777 908 785 908 c 2
 830 908 l 2
 835 908 837 904 837 899 c 0
 830 848 821 773 821 704 c 0
 821 634 832 543 837 508 c 1
 832 501 l 1
 785 501 l 2
 774 501 769 509 768 516 c 2
 756 579 l 2
 744.77 637.957 722 669 653 669 c 2
 373 669 l 1
 373 147 l 2
 373 93 402 80 447 80 c 2
 786 80 l 2
 942 80 1002 200 1043 348 c 1
 1105 338 l 1
 1082 232 1060 114 1051 0 c 1
 585.647 -2.77556e-17 l 1
 542 -106 l 1
 558 -102 576 -100 595 -100 c 0
 677 -100 740 -148 740 -227 c 0
 740 -314 647 -372 522 -372 c 0
 456 -372 421 -360 369 -337 c 1
 391 -292 l 1
 446 -312 468 -320 508 -320 c 0
 570 -320 631 -291 631 -236 c 0
 631 -193 593 -164 546 -164 c 0
 507 -164 487 -167 454 -178 c 1
 441 -165 l 1
 516.084 3.88578e-15 l 1
 449 0 l 1
 290 2 l 1
 28 -2 l 1
 25 2 l 1
 25 43 l 2
 25 50 28 57 41 57 c 2
 102 57 l 2
 184 57 208 90 208 147 c 2
 208 1173 l 2
 208 1237 180 1265 102 1265 c 2
 41 1265 l 2
 27 1265 25 1274 25 1279 c 2
 25 1320 l 1
 29 1324 l 1
 291 1320 l 1
 450 1322 l 1
 975 1324 l 1
 984 1215 1002 1090 1018 1006 c 1
 958 996 l 1
 913 1137 877 1242 723 1242 c 2
891 1649 m 1
 879 1503 750 1417 616 1417 c 0
 465 1417 348 1506 337 1649 c 1
 394 1649 l 1
 411 1569 507 1524 616 1524 c 0
 716 1524 822 1569 836 1649 c 1
 891 1649 l 1
EndSplineSet
LCarets2: 1 0 
EndChar

StartChar: uni1E1D
Encoding: 7709 7709 157
Width: 979
VWidth: 2047
Flags: HW
HStem: -382 52<372.874 542.189> -174 64<466.575 548.942> -1 55<61.5184 200.575 374.874 446 515 816.498> 0 3<446 515> 470 66<355 641.703> 891 56<60.0008 200.328 355.056 783.663> 1025 117<318.8 602.2>
VStem: 202 55<1188.33 1324.71> 202 153<58.004 470 536 887.156> 555 109<-312.333 -182.933> 657 54<347.554 406.891> 701 54<1191.09 1330> 838 43<736.361 801.217> 882 42<84.8396 241>
LayerCount: 2
Fore
SplineSet
470 -174 m 0
 431 -174 411 -177 378 -188 c 1
 365 -175 l 1
 444.635 -3.66374e-15 l 1
 414 0 l 1
 266 1 l 1
 60 -1 l 1
 60 44 l 2
 60 49 62 54 72 54 c 2
 120 54 l 2
 184 54 202 79 202 120 c 2
 202 825 l 2
 202 871 180 891 120 891 c 2
 72 891 l 2
 61 891 60 897 60 901 c 2
 60 947 l 1
 267 944 l 1
 415 945 l 1
 859 945 l 1
 881 741 l 1
 838 736 l 1
 827 799 773 888 690 888 c 2
 413 888 l 2
 374 888 355 875 355 840 c 2
 355 536 l 1
 568 536 l 2
 624 536 638 560 648 601 c 2
 659 644 l 2
 660 651 664 656 671 656 c 2
 706 656 l 2
 710 656 711 654 711 650 c 0
 707 603 699 545 699 496 c 0
 699 445 706 403 711 355 c 1
 707 350 l 1
 671 350 l 2
 662 350 658 356 657 361 c 2
 648 406 l 2
 639 448 621 470 568 470 c 2
 355 470 l 1
 355 105 l 2
 355 66 378 57 413 57 c 2
 707 57 l 2
 812 57 857 135 882 241 c 1
 924 235 l 1
 883 0 l 1
 513.765 -3.81639e-17 l 1
 466 -116 l 1
 482 -112 500 -110 519 -110 c 0
 601 -110 664 -158 664 -237 c 0
 664 -324 571 -382 446 -382 c 0
 380 -382 345 -370 293 -347 c 1
 312 -310 l 1
 370 -327 384 -330 432 -330 c 0
 494 -330 555 -301 555 -246 c 0
 555 -203 517 -174 470 -174 c 0
257 1330 m 1
 261 1225 356 1142 480 1142 c 0
 574 1142 696 1203 701 1330 c 1
 755 1302 l 1
 735 1096 582 1025 480 1025 c 0
 321 1025 217 1143 202 1302 c 1
 257 1330 l 1
EndSplineSet
EndChar

StartChar: uni1E1E
Encoding: 7710 7710 158
Width: 998
VWidth: 2047
Flags: HW
HStem: -2 59<30 194.943 381.694 552> 669 70<373 738.095> 888 20<779 830.5> 1242 82<375.211 836.993> 1265 59<32 201.88> 1443 196<513.8 654.2>
VStem: 208 165<68.8652 669 739 1238.87> 486 196<1470.8 1611.2> 766 69<508 553.632 859.768 904.994>
LayerCount: 2
Fore
SplineSet
373 1175 m 2
 373 739 l 1
 651 739 l 2
 723 739 740.922 773.018 754 830 c 2
 768 891 l 2
 769 900 775 908 783 908 c 2
 828 908 l 2
 833 908 835 904 835 899 c 1
 828 852 819 773 819 704 c 0
 819 634 826 572 835 508 c 1
 830 501 l 1
 783 501 l 2
 772 501 767 509 766 516 c 2
 754 579 l 2
 742.77 637.957 720 669 651 669 c 2
 373 669 l 1
 373 147 l 2
 373 84 404 57 485 57 c 2
 539 57 l 2
 548 57 556 51 556 40 c 2
 556 2 l 1
 552 -2 l 1
 294 2 l 2
 221 2 30 -2 30 -2 c 1
 26 2 l 1
 26 40 l 2
 26 51 32 57 42 57 c 2
 96 57 l 2
 180 57 208 90 208 147 c 2
 208 1175 l 2
 208 1234 190 1265 102 1265 c 2
 41 1265 l 2
 27 1265 25 1275 25 1280 c 2
 25 1320 l 1
 32 1324 l 1
 288 1320 l 1
 441 1322 l 1
 955 1324 l 1
 964 1215 982 1090 998 1006 c 1
 938 996 l 1
 893 1137 857 1242 703 1242 c 2
 447 1242 l 2
 398 1242 373 1224 373 1175 c 2
486 1541 m 0
 486 1595 530 1639 584 1639 c 0
 638 1639 682 1595 682 1541 c 0
 682 1487 638 1443 584 1443 c 0
 530 1443 486 1487 486 1541 c 0
EndSplineSet
LCarets2: 1 0 
EndChar

StartChar: uni1E1F
Encoding: 7711 7711 159
Width: 904
VWidth: 2047
Flags: HW
HStem: 2 55<63 199.944 356.815 495> 471 65<355 619.703> 888 59<65 200.556 355.125 722.629> 1051 196<407.8 548.2>
VStem: 202 153<61.6005 471 536 884.742> 380 196<1078.8 1219.2>
LayerCount: 2
Fore
SplineSet
380 1149 m 0
 380 1203 424 1247 478 1247 c 0
 532 1247 576 1203 576 1149 c 0
 576 1095 532 1051 478 1051 c 0
 424 1051 380 1095 380 1149 c 0
355 839 m 2
 355 536 l 1
 546 536 l 2
 602 536 616 560 626 601 c 2
 637 644 l 2
 638 651 642 656 649 656 c 2
 684 656 l 2
 688 656 689 654 689 650 c 0
 685 603 677 545 677 496 c 0
 677 445 684 404 689 356 c 1
 685 351 l 1
 649 351 l 2
 640 351 636 357 635 362 c 2
 626 407 l 2
 617 449 599 471 546 471 c 2
 355 471 l 1
 355 120 l 2
 355 75 379 57 442 57 c 2
 484 57 l 2
 491 57 498 52 498 45 c 2
 498 2 l 1
 495 -2 l 1
 495 -2 332 2 269 2 c 0
 212 2 63 -2 63 -2 c 1
 60 2 l 1
 60 45 l 2
 60 52 65 57 73 57 c 2
 115 57 l 2
 180 57 202 79 202 120 c 2
 202 824 l 2
 202 866 188 888 120 888 c 2
 72 888 l 2
 61 888 60 896 60 899 c 2
 60 944 l 1
 65 947 l 1
 265 943 l 1
 408 944 l 1
 817 944 l 1
 820 859 832 779 844 701 c 1
 792 696 l 1
 777 770 728 887 627 887 c 2
 413 887 l 2
 374 887 355 874 355 839 c 2
EndSplineSet
LCarets2: 1 0 
EndChar

StartChar: uni1E20
Encoding: 7712 7712 160
Width: 1420
VWidth: 2047
Flags: HW
HStem: -25 75<597.937 1018.34> 555 74<927 1095.06 1277.81 1376> 1272 75<550.557 965.743> 1501 90<485 1023.8>
VStem: 65 178<440.982 883.546> 1106 165<199.651 544.121>
LayerCount: 2
Fore
SplineSet
767 1347 m 0
 1018 1347 1092 1256 1214 1255 c 1
 1228 1108 1242 1026 1259 940 c 1
 1198 928 l 1
 1144 1103 1037 1272 739 1272 c 0
 463 1272 243 1028 243 669 c 0
 243 399 441 50 804 50 c 0
 916 50 1036 85 1106 151 c 1
 1106 465 l 2
 1106 528 1075 555 994 555 c 2
 940 555 l 2
 931 555 923 561 923 572 c 2
 923 625 l 1
 927 629 l 1
 927 629 1105 625 1185 625 c 0
 1258 625 1376 629 1376 629 c 1
 1380 625 l 1
 1380 572 l 2
 1380 561 1374 555 1364 555 c 2
 1362 555 l 2
 1291 555 1271 522 1271 465 c 2
 1271 228 l 2
 1271 204 1283 188 1304 169 c 1
 1165 52 1000 -25 758 -25 c 0
 346 -25 65 274 65 629 c 0
 65 1080 416 1347 767 1347 c 0
990 1501 m 2
 489 1501 l 2
 471 1501 464 1517 464 1531 c 0
 464 1555 485 1591 509 1591 c 2
 1010 1591 l 2
 1030 1591 1038 1575 1038 1561 c 0
 1038 1537 1016 1501 990 1501 c 2
EndSplineSet
LCarets2: 1 0 
EndChar

StartChar: uni1E21
Encoding: 7713 7713 161
Width: 1114
VWidth: 2047
Flags: HW
HStem: -25 55<459.779 759.615> 396 53<675 810.982 969.119 1049> 915 55<416.781 769.687> 1051 90<330 868.8>
VStem: 77 160<283.87 671.741> 815 152<153.878 391.225>
LayerCount: 2
Fore
SplineSet
835 1051 m 2
 334 1051 l 2
 316 1051 309 1067 309 1081 c 0
 309 1105 330 1141 354 1141 c 2
 855 1141 l 2
 875 1141 883 1125 883 1111 c 0
 883 1087 861 1051 835 1051 c 2
815 332 m 2
 815 377 790 396 727 396 c 2
 685 396 l 2
 678 396 672 400 672 408 c 2
 672 446 l 1
 675 449 l 1
 675 449 838 446 900 446 c 0
 957 446 1049 449 1049 449 c 1
 1052 446 l 1
 1052 408 l 2
 1052 400 1048 396 1040 396 c 2
 1038 396 l 2
 983 396 967 373 967 332 c 2
 967 174 l 2
 967 160 982 142 995 128 c 1
 869 38 719 -25 580 -25 c 0
 286 -25 77 189 77 450 c 0
 77 777 306 970 606 970 c 0
 720 970 872 933 935 933 c 1
 937 837 947 753 960 671 c 1
 907 666 l 1
 880 804 792 915 580 915 c 0
 365 915 237 735 237 478 c 0
 237 309 361 30 616 30 c 0
 689 30 762 66 815 116 c 1
 815 332 l 2
EndSplineSet
LCarets2: 1 0 
EndChar

StartChar: uni1E22
Encoding: 7714 7714 162
Width: 1435
VWidth: 2047
Flags: HW
HStem: -2 59<40 204.943 393.94 562 874 1038.94 1227.94 1396> 664 80<383 1052> 1265 59<39 207.06 396.057 561 873 1041.06 1230.06 1395> 1429 196<654.8 795.2>
VStem: 218 165<68.8652 664 744 1253.13> 627 196<1456.8 1597.2> 1052 165<68.8652 664 744 1253.13>
LayerCount: 2
Fore
SplineSet
627 1527 m 0
 627 1581 671 1625 725 1625 c 0
 779 1625 823 1581 823 1527 c 0
 823 1473 779 1429 725 1429 c 0
 671 1429 627 1473 627 1527 c 0
1052 147 m 2
 1052 664 l 1
 383 664 l 1
 383 147 l 2
 383 84 414 57 495 57 c 2
 549 57 l 2
 558 57 566 51 566 40 c 2
 566 2 l 1
 562 -2 l 1
 562 -2 384 2 304 2 c 0
 231 2 40 -2 40 -2 c 1
 36 2 l 1
 36 40 l 2
 36 51 42 57 52 57 c 2
 106 57 l 2
 190 57 218 90 218 147 c 2
 218 1175 l 2
 218 1238 187 1265 106 1265 c 2
 52 1265 l 2
 43 1265 35 1271 35 1282 c 2
 35 1320 l 1
 39 1324 l 1
 39 1324 217 1320 297 1320 c 0
 370 1320 561 1324 561 1324 c 1
 565 1320 l 1
 565 1282 l 2
 565 1271 559 1265 549 1265 c 2
 495 1265 l 2
 411 1265 383 1232 383 1175 c 2
 383 744 l 1
 1052 744 l 1
 1052 1175 l 2
 1052 1238 1021 1265 940 1265 c 2
 886 1265 l 2
 877 1265 869 1271 869 1282 c 2
 869 1320 l 1
 873 1324 l 1
 873 1324 1051 1320 1131 1320 c 0
 1204 1320 1395 1324 1395 1324 c 1
 1399 1320 l 1
 1399 1282 l 2
 1399 1271 1393 1265 1383 1265 c 2
 1329 1265 l 2
 1245 1265 1217 1232 1217 1175 c 2
 1217 147 l 2
 1217 84 1248 57 1329 57 c 2
 1383 57 l 2
 1392 57 1400 51 1400 40 c 2
 1400 2 l 1
 1396 -2 l 1
 1396 -2 1218 2 1138 2 c 0
 1065 2 874 -2 874 -2 c 1
 870 2 l 1
 870 40 l 2
 870 51 876 57 886 57 c 2
 940 57 l 2
 1024 57 1052 90 1052 147 c 2
EndSplineSet
LCarets2: 1 0 
EndChar

StartChar: uni1E23
Encoding: 7715 7715 163
Width: 1219
VWidth: 2047
Flags: HW
HStem: 2 55<69 205.944 362.815 500 720.19 856.939 1012.82 1151> 480 65<361 859> 888 56<69 188.342 188.342 189.445 189.445 206.185 363.056 500 717.924 857.119 1013.06 1150> 1051 196<527.3 667.7>
VStem: 208 153<61.6005 480 545 883.399> 499.5 196<1078.8 1219.2> 859 152<61.6005 480 545 883.399>
LayerCount: 2
Fore
SplineSet
499.5 1149 m 0
 499.5 1203 543.5 1247 597.5 1247 c 0
 651.5 1247 695.5 1203 695.5 1149 c 0
 695.5 1095 651.5 1051 597.5 1051 c 0
 543.5 1051 499.5 1095 499.5 1149 c 0
859 120 m 2
 859 480 l 1
 361 480 l 1
 361 120 l 2
 361 75 385 57 448 57 c 2
 490 57 l 2
 497 57 503 52 503 45 c 2
 503 2 l 1
 500 -2 l 1
 500 -2 338 2 275 2 c 0
 218 2 69 -2 69 -2 c 1
 66 2 l 1
 66 45 l 2
 66 52 71 57 79 57 c 2
 121 57 l 2
 186 57 208 79 208 120 c 2
 208 825 l 2
 208 870 184 888 121 888 c 2
 79 888 l 2
 72 888 65 893 65 901 c 2
 65 943 l 1
 69 947 l 1
 69 947 207 944 270 944 c 0
 327 944 500 947 500 947 c 1
 503 943 l 1
 503 901 l 2
 503 893 498 888 490 888 c 2
 448 888 l 2
 383 888 361 866 361 825 c 2
 361 545 l 1
 859 545 l 1
 859 825 l 2
 859 870 834 888 771 888 c 2
 729 888 l 2
 722 888 716 893 716 901 c 2
 716 943 l 1
 719 947 l 1
 719 947 858 943 920 943 c 0
 977 943 1150 947 1150 947 c 1
 1153 943 l 1
 1153 901 l 2
 1153 893 1149 888 1141 888 c 2
 1099 888 l 2
 1033 888 1011 866 1011 825 c 2
 1011 120 l 2
 1011 75 1035 57 1099 57 c 2
 1141 57 l 2
 1148 57 1154 52 1154 45 c 2
 1154 2 l 1
 1151 -2 l 1
 1151 -2 988 2 926 2 c 0
 869 2 720 -2 720 -2 c 1
 717 2 l 1
 717 45 l 2
 717 52 721 57 729 57 c 2
 771 57 l 2
 837 57 859 79 859 120 c 2
EndSplineSet
LCarets2: 1 0 
EndChar

StartChar: uni1E24
Encoding: 7716 7716 164
Width: 1435
VWidth: 2047
Flags: HW
HStem: -334 196<653.8 794.2> -2 59<40 204.943 393.94 562 874 1038.94 1227.94 1396> 664 80<383 1052> 1265 59<39 207.06 396.057 561 873 1041.06 1230.06 1395>
VStem: 218 165<68.8652 664 744 1253.13> 626 196<-306.2 -165.8> 1052 165<68.8652 664 744 1253.13>
LayerCount: 2
Fore
SplineSet
626 -236 m 0
 626 -182 670 -138 724 -138 c 0
 778 -138 822 -182 822 -236 c 0
 822 -290 778 -334 724 -334 c 0
 670 -334 626 -290 626 -236 c 0
1052 147 m 2
 1052 664 l 1
 383 664 l 1
 383 147 l 2
 383 84 414 57 495 57 c 2
 549 57 l 2
 558 57 566 51 566 40 c 2
 566 2 l 1
 562 -2 l 1
 562 -2 384 2 304 2 c 0
 231 2 40 -2 40 -2 c 1
 36 2 l 1
 36 40 l 2
 36 51 42 57 52 57 c 2
 106 57 l 2
 190 57 218 90 218 147 c 2
 218 1175 l 2
 218 1238 187 1265 106 1265 c 2
 52 1265 l 2
 43 1265 35 1271 35 1282 c 2
 35 1320 l 1
 39 1324 l 1
 39 1324 217 1320 297 1320 c 0
 370 1320 561 1324 561 1324 c 1
 565 1320 l 1
 565 1282 l 2
 565 1271 559 1265 549 1265 c 2
 495 1265 l 2
 411 1265 383 1232 383 1175 c 2
 383 744 l 1
 1052 744 l 1
 1052 1175 l 2
 1052 1238 1021 1265 940 1265 c 2
 886 1265 l 2
 877 1265 869 1271 869 1282 c 2
 869 1320 l 1
 873 1324 l 1
 873 1324 1051 1320 1131 1320 c 0
 1204 1320 1395 1324 1395 1324 c 1
 1399 1320 l 1
 1399 1282 l 2
 1399 1271 1393 1265 1383 1265 c 2
 1329 1265 l 2
 1245 1265 1217 1232 1217 1175 c 2
 1217 147 l 2
 1217 84 1248 57 1329 57 c 2
 1383 57 l 2
 1392 57 1400 51 1400 40 c 2
 1400 2 l 1
 1396 -2 l 1
 1396 -2 1218 2 1138 2 c 0
 1065 2 874 -2 874 -2 c 1
 870 2 l 1
 870 40 l 2
 870 51 876 57 886 57 c 2
 940 57 l 2
 1024 57 1052 90 1052 147 c 2
EndSplineSet
EndChar

StartChar: uni1E25
Encoding: 7717 7717 165
Width: 1219
VWidth: 2047
Flags: HW
HStem: -321 196<500.8 641.2> 2 55<69 205.944 362.815 500 720.19 856.939 1012.82 1151> 480 65<361 859> 888 56<69 188.342 188.342 189.445 189.445 206.185 363.056 500 717.924 857.119 1013.06 1150>
VStem: 208 153<61.6005 480 545 883.399> 473 196<-293.2 -152.8> 859 152<61.6005 480 545 883.399>
LayerCount: 2
Fore
SplineSet
473 -223 m 0
 473 -169 517 -125 571 -125 c 0
 625 -125 669 -169 669 -223 c 0
 669 -277 625 -321 571 -321 c 0
 517 -321 473 -277 473 -223 c 0
859 120 m 2
 859 480 l 1
 361 480 l 1
 361 120 l 2
 361 75 385 57 448 57 c 2
 490 57 l 2
 497 57 503 52 503 45 c 2
 503 2 l 1
 500 -2 l 1
 500 -2 338 2 275 2 c 0
 218 2 69 -2 69 -2 c 1
 66 2 l 1
 66 45 l 2
 66 52 71 57 79 57 c 2
 121 57 l 2
 186 57 208 79 208 120 c 2
 208 825 l 2
 208 870 184 888 121 888 c 2
 79 888 l 2
 72 888 65 893 65 901 c 2
 65 943 l 1
 69 947 l 1
 69 947 207 944 270 944 c 0
 327 944 500 947 500 947 c 1
 503 943 l 1
 503 901 l 2
 503 893 498 888 490 888 c 2
 448 888 l 2
 383 888 361 866 361 825 c 2
 361 545 l 1
 859 545 l 1
 859 825 l 2
 859 870 834 888 771 888 c 2
 729 888 l 2
 722 888 716 893 716 901 c 2
 716 943 l 1
 719 947 l 1
 719 947 858 943 920 943 c 0
 977 943 1150 947 1150 947 c 1
 1153 943 l 1
 1153 901 l 2
 1153 893 1149 888 1141 888 c 2
 1099 888 l 2
 1033 888 1011 866 1011 825 c 2
 1011 120 l 2
 1011 75 1035 57 1099 57 c 2
 1141 57 l 2
 1148 57 1154 52 1154 45 c 2
 1154 2 l 1
 1151 -2 l 1
 1151 -2 988 2 926 2 c 0
 869 2 720 -2 720 -2 c 1
 717 2 l 1
 717 45 l 2
 717 52 721 57 729 57 c 2
 771 57 l 2
 837 57 859 79 859 120 c 2
EndSplineSet
EndChar

StartChar: uni1E26
Encoding: 7718 7718 166
Width: 1435
VWidth: 2047
Flags: HW
HStem: -2 59<40 204.943 393.94 562 874 1038.94 1227.94 1396> 664 80<383 1052> 1265 59<39 207.06 396.057 561 873 1041.06 1230.06 1395> 1441 186<456.7 589.3 844.7 977.3>
VStem: 218 165<68.8652 664 744 1253.13> 430 186<1467.7 1600.3> 818 186<1468.7 1601.3> 1052 165<68.8652 664 744 1253.13>
LayerCount: 2
Fore
SplineSet
818 1535 m 0
 818 1586 860 1628 911 1628 c 0
 962 1628 1004 1586 1004 1535 c 0
 1004 1484 962 1442 911 1442 c 0
 860 1442 818 1484 818 1535 c 0
430 1534 m 0
 430 1585 472 1627 523 1627 c 0
 574 1627 616 1585 616 1534 c 0
 616 1483 574 1441 523 1441 c 0
 472 1441 430 1483 430 1534 c 0
1052 147 m 2
 1052 664 l 1
 383 664 l 1
 383 147 l 2
 383 84 414 57 495 57 c 2
 549 57 l 2
 558 57 566 51 566 40 c 2
 566 2 l 1
 562 -2 l 1
 562 -2 384 2 304 2 c 0
 231 2 40 -2 40 -2 c 1
 36 2 l 1
 36 40 l 2
 36 51 42 57 52 57 c 2
 106 57 l 2
 190 57 218 90 218 147 c 2
 218 1175 l 2
 218 1238 187 1265 106 1265 c 2
 52 1265 l 2
 43 1265 35 1271 35 1282 c 2
 35 1320 l 1
 39 1324 l 1
 39 1324 217 1320 297 1320 c 0
 370 1320 561 1324 561 1324 c 1
 565 1320 l 1
 565 1282 l 2
 565 1271 559 1265 549 1265 c 2
 495 1265 l 2
 411 1265 383 1232 383 1175 c 2
 383 744 l 1
 1052 744 l 1
 1052 1175 l 2
 1052 1238 1021 1265 940 1265 c 2
 886 1265 l 2
 877 1265 869 1271 869 1282 c 2
 869 1320 l 1
 873 1324 l 1
 873 1324 1051 1320 1131 1320 c 0
 1204 1320 1395 1324 1395 1324 c 1
 1399 1320 l 1
 1399 1282 l 2
 1399 1271 1393 1265 1383 1265 c 2
 1329 1265 l 2
 1245 1265 1217 1232 1217 1175 c 2
 1217 147 l 2
 1217 84 1248 57 1329 57 c 2
 1383 57 l 2
 1392 57 1400 51 1400 40 c 2
 1400 2 l 1
 1396 -2 l 1
 1396 -2 1218 2 1138 2 c 0
 1065 2 874 -2 874 -2 c 1
 870 2 l 1
 870 40 l 2
 870 51 876 57 886 57 c 2
 940 57 l 2
 1024 57 1052 90 1052 147 c 2
EndSplineSet
LCarets2: 1 0 
EndChar

StartChar: uni1E27
Encoding: 7719 7719 167
Width: 1219
VWidth: 2047
Flags: HW
HStem: 2 55<69 205.944 362.815 500 720.19 856.939 1012.82 1151> 480 65<361 859> 888 56<69 188.342 188.342 189.445 189.445 206.185 363.056 500 717.924 857.119 1013.06 1150> 1054 186<373.7 506.3 702.7 835.3>
VStem: 208 153<61.6005 480 545 883.399> 347 186<1080.7 1213.3> 676 186<1080.7 1213.3> 859 152<61.6005 480 545 883.399>
LayerCount: 2
Fore
SplineSet
676 1147 m 0
 676 1198 718 1240 769 1240 c 0
 820 1240 862 1198 862 1147 c 0
 862 1096 820 1054 769 1054 c 0
 718 1054 676 1096 676 1147 c 0
347 1147 m 0
 347 1198 389 1240 440 1240 c 0
 491 1240 533 1198 533 1147 c 0
 533 1096 491 1054 440 1054 c 0
 389 1054 347 1096 347 1147 c 0
859 120 m 2
 859 480 l 1
 361 480 l 1
 361 120 l 2
 361 75 385 57 448 57 c 2
 490 57 l 2
 497 57 503 52 503 45 c 2
 503 2 l 1
 500 -2 l 1
 500 -2 338 2 275 2 c 0
 218 2 69 -2 69 -2 c 1
 66 2 l 1
 66 45 l 2
 66 52 71 57 79 57 c 2
 121 57 l 2
 186 57 208 79 208 120 c 2
 208 825 l 2
 208 870 184 888 121 888 c 2
 79 888 l 2
 72 888 65 893 65 901 c 2
 65 943 l 1
 69 947 l 1
 69 947 207 944 270 944 c 0
 327 944 500 947 500 947 c 1
 503 943 l 1
 503 901 l 2
 503 893 498 888 490 888 c 2
 448 888 l 2
 383 888 361 866 361 825 c 2
 361 545 l 1
 859 545 l 1
 859 825 l 2
 859 870 834 888 771 888 c 2
 729 888 l 2
 722 888 716 893 716 901 c 2
 716 943 l 1
 719 947 l 1
 719 947 858 943 920 943 c 0
 977 943 1150 947 1150 947 c 1
 1153 943 l 1
 1153 901 l 2
 1153 893 1149 888 1141 888 c 2
 1099 888 l 2
 1033 888 1011 866 1011 825 c 2
 1011 120 l 2
 1011 75 1035 57 1099 57 c 2
 1141 57 l 2
 1148 57 1154 52 1154 45 c 2
 1154 2 l 1
 1151 -2 l 1
 1151 -2 988 2 926 2 c 0
 869 2 720 -2 720 -2 c 1
 717 2 l 1
 717 45 l 2
 717 52 721 57 729 57 c 2
 771 57 l 2
 837 57 859 79 859 120 c 2
EndSplineSet
LCarets2: 1 0 
EndChar

